<svg width="279" height="88" viewBox="0 0 279 88" fill="none" xmlns="http://www.w3.org/2000/svg">
<g clip-path="url(#clip0_343_325)">
<path d="M228.31 68.2441H209.349C202.868 68.2441 196.653 65.668 192.071 61.0859C187.489 56.5037 184.915 50.2907 184.915 43.8105C184.915 37.3304 187.489 31.1153 192.071 26.5331C196.653 21.9509 202.868 19.377 209.349 19.377H228.31C234.79 19.377 241.005 21.9509 245.588 26.5331C250.17 31.1153 252.744 37.3304 252.744 43.8105C252.744 50.2907 250.17 56.5037 245.588 61.0859C241.005 65.668 234.79 68.2441 228.31 68.2441ZM207.839 59.5991V65.9132H210.867V59.5991H207.839ZM221.599 53.9106L219.461 56.0486L223.932 60.5153L226.062 58.3795L221.599 53.9106ZM197.106 53.9106L192.635 58.3795L194.773 60.5153L199.244 56.0486L197.106 53.9106ZM209.349 30.3678C208.85 30.3612 208.35 30.389 207.855 30.4505C204.564 30.8144 201.526 32.3805 199.316 34.8473C197.107 37.3141 195.885 40.5077 195.885 43.819C195.885 47.1304 197.107 50.3261 199.316 52.7929C201.526 55.2596 204.564 56.8237 207.855 57.1875C208.352 57.2411 208.854 57.2688 209.353 57.2702C212.92 57.2702 216.341 55.8542 218.863 53.3316C221.386 50.8089 222.804 47.3866 222.804 43.819C222.804 40.2515 221.386 36.8312 218.863 34.3086C216.341 31.7859 212.92 30.3678 209.353 30.3678H209.349ZM229.812 30.4505C232.419 34.4218 233.808 39.0684 233.808 43.819C233.808 48.5697 232.419 53.2162 229.812 57.1875C233.103 56.8237 236.146 55.2596 238.355 52.7929C240.564 50.3261 241.787 47.1304 241.787 43.819C241.787 40.5077 240.564 37.3141 238.355 34.8473C236.146 32.3805 233.103 30.8144 229.812 30.4505ZM225.146 42.3089V45.3292H231.466V42.3089H225.146ZM187.223 42.3089V45.3292H193.56V42.3089H187.223ZM223.928 27.1227L219.457 31.5916L221.595 33.7274L226.058 29.2607L223.928 27.1227ZM194.769 27.1227L192.631 29.2607L197.102 33.7274L199.24 31.5916L194.769 27.1227ZM207.834 21.727V28.0242H210.863V21.727H207.834Z" fill="#232323"/>
<path d="M45.3244 34.342L43.196 30.7801C44.6149 29.9403 46.0773 29.1005 47.5832 28.2607C49.089 27.392 50.7686 26.4653 52.6219 25.4807C54.5042 24.4672 56.705 23.3233 59.2244 22.0492L61.2225 25.8717C58.6452 27.1169 56.4154 28.2318 54.5332 29.2164C52.6798 30.2009 51.0147 31.1131 49.5378 31.9529C48.0899 32.7638 46.6854 33.5601 45.3244 34.342ZM44.0647 60.6651L45.1941 54.5839C47.2501 54.5839 48.9297 54.5549 50.2328 54.497C51.536 54.4391 52.535 54.3377 53.23 54.1929C53.954 54.0192 54.4608 53.7875 54.7503 53.4979C55.0399 53.2083 55.1847 52.8464 55.1847 52.412C55.1847 51.8907 54.9531 51.2826 54.4897 50.5876C54.0553 49.8926 53.4762 49.1687 52.7522 48.4157C52.0572 47.6628 51.3188 46.9099 50.5369 46.157C49.755 45.3751 49.0021 44.6512 48.2782 43.9851C47.5832 43.3191 47.004 42.7399 46.5407 42.2476C46.1063 41.7264 45.8891 41.3499 45.8891 41.1182C45.8891 40.3074 45.9325 39.6703 46.0194 39.207C46.1063 38.7147 46.2221 38.3238 46.3669 38.0342C46.5407 37.7446 46.7289 37.4984 46.9316 37.2957C47.5976 36.6297 48.6691 35.8623 50.146 34.9936C51.6518 34.1248 53.4617 33.1837 55.5757 32.1701C57.6896 31.1276 60.0063 30.0272 62.5257 28.8689L65.0016 34.1682C62.4822 35.2976 60.2959 36.3112 58.4425 37.2089C56.6182 38.0776 55.0399 38.874 53.7078 39.5979C52.4047 40.2929 51.2753 40.959 50.3197 41.5961L50.7541 38.3817C51.9993 39.4531 53.1287 40.4667 54.1422 41.4223C55.1558 42.3779 56.0969 43.3336 56.9657 44.2892C57.8344 45.2448 58.6452 46.2294 59.3982 47.2429C60.18 48.2565 60.9329 49.3569 61.6569 50.5442C62.1202 51.2971 62.5981 51.9052 63.0903 52.3686C63.6116 52.8029 64.1184 53.136 64.6107 53.3676C65.1319 53.5703 65.6242 53.7151 66.0875 53.802C66.5798 53.8599 67.0142 53.8889 67.3907 53.8889C68.4911 53.8889 69.2729 54.1929 69.7363 54.8011C70.2286 55.4092 70.4747 56.1331 70.4747 56.9729C70.4747 57.8706 70.1707 58.5946 69.5625 59.1448C68.9544 59.695 68.0857 59.9701 66.9563 59.9701C66.0007 59.9701 64.9726 59.8253 63.8722 59.5357C62.7718 59.2172 61.7438 58.696 60.7882 57.972C59.8325 57.2191 59.1086 56.1911 58.6163 54.8879L60.9619 55.0617C60.4117 56.249 59.7457 57.2191 58.9638 57.972C58.1819 58.696 57.1684 59.2606 55.9232 59.6661C54.6779 60.0425 53.0852 60.3031 51.145 60.4479C49.2338 60.5927 46.8737 60.6651 44.0647 60.6651ZM44.0647 60.6651C40.9372 60.6651 38.2875 60.419 36.1157 59.9267C33.9727 59.4633 32.2208 58.7973 30.8597 57.9286C29.5276 57.0308 28.5575 55.9883 27.9494 54.8011C27.3413 53.6138 27.0372 52.3106 27.0372 50.8917C27.0372 49.965 27.1096 49.0383 27.2544 48.1117C27.4282 47.1561 27.6309 46.2294 27.8625 45.3317C28.1232 44.434 28.3548 43.6231 28.5575 42.8992L33.9872 44.1589C33.8714 44.6801 33.7411 45.2448 33.5963 45.8529C33.4515 46.4611 33.3357 47.0547 33.2488 47.6339C33.1619 48.1841 33.1185 48.6908 33.1185 49.1542C33.1185 50.2256 33.4949 51.1813 34.2478 52.0211C35.0297 52.8319 36.3039 53.469 38.0703 53.9323C39.8368 54.3667 42.2114 54.5839 45.1941 54.5839L46.0628 59.2751L44.0647 60.6651ZM67.0062 59.9701L67.4405 53.8889C68.541 53.8889 69.4097 53.7875 70.0468 53.5848C70.7128 53.3821 71.2341 52.9767 71.6105 52.3686C72.016 51.7315 72.349 50.8048 72.6096 49.5886C72.8992 48.3723 73.1888 46.7506 73.4784 44.7236L79.1687 45.6792C79.1107 46.1136 79.0239 46.6203 78.908 47.1995C78.8212 47.7787 78.7343 48.3723 78.6474 48.9804C78.5895 49.5596 78.5605 50.1098 78.5605 50.6311C78.5605 51.3261 78.7053 51.9197 78.9949 52.412C79.3135 52.8753 79.8637 53.2373 80.6455 53.4979C81.4564 53.7586 82.6147 53.8889 84.1205 53.8889C85.221 53.8889 86.0028 54.1785 86.4662 54.7576C86.9295 55.3078 87.1612 56.0028 87.1612 56.8426C87.1612 57.7403 86.8571 58.4932 86.249 59.1014C85.6698 59.6805 84.8155 59.9701 83.6862 59.9701C81.688 59.9701 80.0664 59.7819 78.8212 59.4054C77.576 59.029 76.6493 58.3919 76.0412 57.4942C75.433 56.5965 75.0421 55.3657 74.8684 53.802H76.9534C76.4321 55.192 75.824 56.3069 75.129 57.1467C74.434 57.9575 73.6521 58.5656 72.7834 58.9711C71.9146 59.3765 70.9879 59.6371 70.0034 59.7529C69.0477 59.8977 68.0487 59.9701 67.0062 59.9701ZM75.8674 40.2929C74.9697 40.2929 74.2023 39.9889 73.5652 39.3807C72.9571 38.7726 72.653 38.0197 72.653 37.122C72.653 36.2243 72.9571 35.4569 73.5652 34.8198C74.2023 34.1827 74.9697 33.8642 75.8674 33.8642C76.7362 33.8642 77.4746 34.1827 78.0827 34.8198C78.7198 35.4569 79.0384 36.2243 79.0384 37.122C79.0384 38.0197 78.7198 38.7726 78.0827 39.3807C77.4746 39.9889 76.7362 40.2929 75.8674 40.2929ZM101.356 60.1004C100.053 60.1004 98.7064 59.9412 97.3164 59.6226C95.9553 59.3041 94.6377 58.8263 93.3636 58.1892C92.0894 57.5521 90.9455 56.7557 89.932 55.8001C88.9185 54.8445 88.1076 53.7441 87.4995 52.4989C86.9203 51.2247 86.6308 49.7913 86.6308 48.1986C86.6308 46.8954 86.9059 45.6937 87.4561 44.5932C88.0063 43.4928 88.8171 42.6096 89.8886 41.9436C90.989 41.2486 92.3211 40.9011 93.8848 40.9011C95.3617 40.9011 96.6359 41.263 97.7073 41.987C98.8077 42.682 99.662 43.5942 100.27 44.7236C100.878 45.824 101.182 46.9823 101.182 48.1986C101.182 50.1388 100.705 51.8473 99.7489 53.3242C98.7933 54.7721 97.4756 55.9883 95.7961 56.9729C94.1454 57.9575 92.2776 58.7104 90.1926 59.2317C88.1076 59.724 85.9358 59.9701 83.677 59.9701L84.1114 53.8889C85.762 53.8889 87.1954 53.8454 88.4117 53.7586C89.6569 53.6717 90.7284 53.4835 91.6261 53.1939C92.5238 52.9043 93.3056 52.4699 93.9717 51.8907C94.6377 51.3116 95.1445 50.6745 95.492 49.9795C95.8685 49.2555 96.0567 48.5461 96.0567 47.8511C96.0567 47.3877 95.9843 46.9533 95.8395 46.5479C95.7237 46.1425 95.521 45.8095 95.2314 45.5489C94.9708 45.2593 94.6233 45.1145 94.1889 45.1145C93.7255 45.1145 93.3346 45.2593 93.0161 45.5489C92.7265 45.8095 92.4948 46.157 92.3211 46.5914C92.1763 47.0257 92.1039 47.4891 92.1039 47.9814C92.1039 48.9949 92.3645 49.9071 92.8858 50.7179C93.436 51.5288 94.1599 52.2093 95.0576 52.7595C95.9553 53.3097 96.9399 53.7296 98.0114 54.0192C99.1118 54.3088 100.227 54.4536 101.356 54.4536C102.254 54.4536 102.891 54.3088 103.267 54.0192C103.644 53.7296 103.832 53.3387 103.832 52.8464C103.832 52.4989 103.745 52.1369 103.571 51.7604C103.427 51.355 103.094 50.8627 102.572 50.2836C102.051 49.7044 101.255 48.9949 100.183 48.1551C99.1118 47.2864 97.6784 46.2149 95.8829 44.9407C94.0875 43.6666 91.8288 42.1173 89.1067 40.2929L92.4514 35.5582C95.521 37.7301 98.0838 39.6269 100.14 41.2486C102.225 42.8702 103.904 44.2892 105.179 45.5054C106.453 46.7217 107.423 47.7931 108.089 48.7198C108.784 49.6175 109.247 50.4428 109.479 51.1957C109.711 51.9487 109.826 52.7016 109.826 53.4545C109.826 54.8445 109.493 56.0318 108.827 57.0164C108.161 58.001 107.191 58.7683 105.917 59.3186C104.672 59.8398 103.151 60.1004 101.356 60.1004ZM125.274 59.9701C122.581 59.9701 120.496 59.695 119.019 59.1448C117.571 58.5946 116.557 57.7403 115.978 56.582C115.399 55.3947 115.066 53.9033 114.979 52.1079L114.067 27.9567H120.148L121.06 49.1976C121.118 50.5297 121.263 51.5288 121.495 52.1948C121.726 52.8608 122.161 53.3097 122.798 53.5414C123.464 53.773 124.434 53.8889 125.708 53.8889C126.809 53.8889 127.591 54.1785 128.054 54.7576C128.546 55.3078 128.792 56.0028 128.792 56.8426C128.792 57.7403 128.488 58.4932 127.88 59.1014C127.272 59.6805 126.403 59.9701 125.274 59.9701ZM125.333 59.9701L125.767 53.8889C126.491 53.8889 127.041 53.7441 127.418 53.4545C127.794 53.1649 128.171 52.6581 128.547 51.9342C128.924 51.2102 129.445 50.2256 130.111 48.9804C130.835 47.5904 131.588 46.4321 132.37 45.5054C133.152 44.5498 133.934 43.7969 134.715 43.2467C135.526 42.6675 136.323 42.2621 137.104 42.0304C137.915 41.7698 138.712 41.6395 139.494 41.6395C140.565 41.6395 141.564 41.8712 142.491 42.3345C143.446 42.7689 144.359 43.5363 145.227 44.6367C146.096 45.7081 146.921 47.185 147.703 49.0673C148.253 50.3704 148.804 51.3695 149.354 52.0645C149.904 52.7595 150.469 53.2373 151.048 53.4979C151.656 53.7586 152.264 53.8889 152.872 53.8889C153.973 53.8889 154.755 54.1785 155.218 54.7576C155.681 55.3078 155.913 56.0028 155.913 56.8426C155.913 57.7403 155.609 58.4932 155.001 59.1014C154.393 59.6805 153.538 59.9701 152.438 59.9701C151.019 59.9701 149.73 59.7385 148.572 59.2751C147.414 58.8118 146.501 58.1168 145.835 57.1901L147.095 56.2345C146.834 56.8426 146.444 57.4797 145.922 58.1457C145.43 58.8118 144.778 59.3765 143.968 59.8398C143.186 60.3031 142.245 60.5348 141.144 60.5348C140.42 60.5348 139.566 60.39 138.581 60.1004C137.626 59.8398 136.627 59.391 135.584 58.7539C134.571 58.0878 133.629 57.1901 132.761 56.0607C132.21 57.0743 131.602 57.8706 130.936 58.4498C130.27 59 129.488 59.391 128.591 59.6226C127.693 59.8543 126.607 59.9701 125.333 59.9701ZM135.28 50.9351C135.57 51.3695 135.917 51.8039 136.323 52.2382C136.728 52.6726 137.177 53.0636 137.669 53.4111C138.161 53.7296 138.683 53.9902 139.233 54.1929C139.812 54.3956 140.377 54.497 140.927 54.497C141.506 54.497 141.984 54.2798 142.36 53.8454C142.737 53.3821 142.751 52.7016 142.404 51.8039C142.259 51.4274 142.056 51.0075 141.796 50.5442C141.564 50.0519 141.289 49.5886 140.97 49.1542C140.681 48.7198 140.348 48.3578 139.971 48.0682C139.624 47.7787 139.262 47.6339 138.885 47.6339C138.509 47.6339 138.118 47.7497 137.713 47.9814C137.307 48.213 136.902 48.575 136.496 49.0673C136.091 49.5306 135.685 50.1532 135.28 50.9351ZM170.118 60.1004C168.815 60.1004 167.468 59.9412 166.078 59.6226C164.717 59.3041 163.4 58.8263 162.125 58.1892C160.851 57.5521 159.707 56.7557 158.694 55.8001C157.68 54.8445 156.87 53.7441 156.261 52.4989C155.682 51.2247 155.393 49.7913 155.393 48.1986C155.393 46.8954 155.668 45.6937 156.218 44.5932C156.768 43.4928 157.579 42.6096 158.65 41.9436C159.751 41.2486 161.083 40.9011 162.647 40.9011C164.124 40.9011 165.398 41.263 166.469 41.987C167.57 42.682 168.424 43.5942 169.032 44.7236C169.64 45.824 169.944 46.9823 169.944 48.1986C169.944 50.1388 169.466 51.8473 168.511 53.3242C167.555 54.7721 166.238 55.9883 164.558 56.9729C162.907 57.9575 161.04 58.7104 158.955 59.2317C156.87 59.724 154.698 59.9701 152.439 59.9701L152.873 53.8889C154.524 53.8889 155.957 53.8454 157.174 53.7586C158.419 53.6717 159.49 53.4835 160.388 53.1939C161.286 52.9043 162.068 52.4699 162.734 51.8907C163.4 51.3116 163.906 50.6745 164.254 49.9795C164.63 49.2555 164.819 48.5461 164.819 47.8511C164.819 47.3877 164.746 46.9533 164.601 46.5479C164.486 46.1425 164.283 45.8095 163.993 45.5489C163.733 45.2593 163.385 45.1145 162.951 45.1145C162.487 45.1145 162.097 45.2593 161.778 45.5489C161.488 45.8095 161.257 46.157 161.083 46.5914C160.938 47.0257 160.866 47.4891 160.866 47.9814C160.866 48.9949 161.126 49.9071 161.648 50.7179C162.198 51.5288 162.922 52.2093 163.82 52.7595C164.717 53.3097 165.702 53.7296 166.773 54.0192C167.874 54.3088 168.989 54.4536 170.118 54.4536C171.016 54.4536 171.653 54.3088 172.029 54.0192C172.406 53.7296 172.594 53.3387 172.594 52.8464C172.594 52.4989 172.507 52.1369 172.333 51.7604C172.188 51.355 171.855 50.8627 171.334 50.2836C170.813 49.7044 170.017 48.9949 168.945 48.1551C167.874 47.2864 166.44 46.2149 164.645 44.9407C162.849 43.6666 160.591 42.1173 157.869 40.2929L161.213 35.5582C164.283 37.7301 166.846 39.6269 168.902 41.2486C170.987 42.8702 172.666 44.2892 173.94 45.5054C175.215 46.7217 176.185 47.7931 176.851 48.7198C177.546 49.6175 178.009 50.4428 178.241 51.1957C178.472 51.9487 178.588 52.7016 178.588 53.4545C178.588 54.8445 178.255 56.0318 177.589 57.0164C176.923 58.001 175.953 58.7683 174.679 59.3186C173.434 59.8398 171.913 60.1004 170.118 60.1004Z" fill="#232323"/>
</g>
<defs>
<clipPath id="clip0_343_325">
<rect width="278" height="87.6304" fill="white" transform="translate(0.831543)"/>
</clipPath>
</defs>
</svg>
