<svg width="207" height="67" viewBox="0 0 207 67" fill="none" xmlns="http://www.w3.org/2000/svg">
<g clip-path="url(#clip0_335_128)">
<path d="M127.651 38.0491C127.529 42.1937 125.789 46.1259 122.804 49.0034C119.818 51.8808 115.825 53.4747 111.678 53.4436H95.7725V19.8H95.8319C95.4953 19.7996 95.1621 19.7327 94.8514 19.6033C94.5406 19.4738 94.2585 19.2844 94.0211 19.0457C93.7837 18.8071 93.5957 18.5239 93.4679 18.2125C93.3402 17.9011 93.275 17.5675 93.2764 17.2309C93.2762 16.8945 93.3422 16.5615 93.4708 16.2507C93.5994 15.9399 93.7881 15.6575 94.0259 15.4197C94.2637 15.1819 94.5461 14.9933 94.8569 14.8647C95.1676 14.7361 95.5007 14.67 95.837 14.6702H100.899V48.3138H111.745C114.533 48.3316 117.218 47.2626 119.232 45.3337C121.245 43.4048 122.428 40.7675 122.529 37.9811C122.563 36.5704 122.315 35.1672 121.799 33.8538C121.283 32.5404 120.51 31.3434 119.525 30.333C118.54 29.3226 117.363 28.5193 116.063 27.9701C114.763 27.421 113.366 27.1372 111.955 27.1353H103.301V21.6895L103.663 21.3276L115.653 9.45886C115.891 9.22103 116.174 9.03294 116.485 8.90556C116.797 8.77818 117.131 8.71404 117.467 8.71689C117.804 8.71973 118.136 8.78951 118.445 8.92214C118.755 9.05478 119.035 9.24762 119.269 9.48945C119.506 9.72753 119.695 10.0106 119.822 10.322C119.949 10.6335 120.013 10.9673 120.011 11.3038C120.008 11.6403 119.938 11.9729 119.805 12.2822C119.673 12.5914 119.48 12.8713 119.238 13.1053L110.232 22.0531H111.95C114.038 22.0495 116.106 22.463 118.032 23.2693C119.957 24.0756 121.703 25.2585 123.165 26.7485C124.628 28.2385 125.778 30.0057 126.548 31.9463C127.318 33.8868 127.693 35.9617 127.651 38.0491Z" fill="#232323"/>
<path d="M76.6485 22.0215H62.9701C62.6338 22.0213 62.3007 22.0873 61.99 22.216C61.6792 22.3446 61.3968 22.5332 61.159 22.771C60.9212 23.0088 60.7325 23.2912 60.6039 23.602C60.4753 23.9127 60.4093 24.2458 60.4095 24.5821C60.4093 24.9185 60.4753 25.2515 60.6039 25.5623C60.7325 25.8731 60.9212 26.1555 61.159 26.3933C61.3968 26.6311 61.6792 26.8197 61.99 26.9483C62.3007 27.0769 62.6338 27.143 62.9701 27.1428V48.3213H41.581V27.1428H41.6404C41.9768 27.143 42.3098 27.0769 42.6206 26.9483C42.9314 26.8197 43.2138 26.6311 43.4516 26.3933C43.6894 26.1555 43.878 25.8731 44.0066 25.5623C44.1352 25.2515 44.2013 24.9185 44.2011 24.5821C44.2013 24.246 44.1353 23.913 44.0068 23.6023C43.8783 23.2917 43.6898 23.0094 43.4522 22.7716C43.2146 22.5338 42.9324 22.3451 42.6218 22.2164C42.3112 22.0877 41.9783 22.0215 41.6421 22.0215H27.121C22.9584 22.0215 18.9662 23.6751 16.0228 26.6185C13.0794 29.562 11.4258 33.5541 11.4258 37.7167C11.4258 41.8794 13.0794 45.8715 16.0228 48.8149C18.9662 51.7584 22.9584 53.412 27.121 53.412H36.4665V57.9912C36.1301 57.991 35.7971 58.0571 35.4863 58.1857C35.1755 58.3143 34.8931 58.5029 34.6553 58.7407C34.4175 58.9786 34.2289 59.2609 34.1003 59.5717C33.9717 59.8825 33.9056 60.2156 33.9058 60.5519C33.9056 60.8882 33.9717 61.2213 34.1003 61.5321C34.2289 61.8428 34.4175 62.1252 34.6553 62.363C34.8931 62.6009 35.1755 62.7895 35.4863 62.9181C35.7971 63.0467 36.1301 63.1128 36.4665 63.1125H41.5878V53.412H76.6485C80.8111 53.412 84.8032 51.7584 87.7467 48.8149C90.6901 45.8715 92.3437 41.8794 92.3437 37.7167C92.3437 33.5541 90.6901 29.562 87.7467 26.6185C84.8032 23.6751 80.8111 22.0215 76.6485 22.0215ZM36.4308 48.3213H27.0853C24.2769 48.3172 21.5851 47.1977 19.6021 45.2089C17.6191 43.2202 16.5073 40.5252 16.5114 37.7167C16.5155 34.9083 17.635 32.2165 19.6237 30.2335C21.6125 28.2505 24.3075 27.1387 27.1159 27.1428H36.4614V48.3213H36.4308ZM76.6485 48.3213H68.0914V27.1428H76.6468C79.4552 27.1428 82.1486 28.2584 84.1345 30.2443C86.1203 32.2302 87.236 34.9236 87.236 37.732C87.236 40.5405 86.1203 43.2339 84.1345 45.2197C82.1486 47.2056 79.4569 48.3213 76.6485 48.3213Z" fill="#232323"/>
<path d="M8.41301 14.7305V53.4427H3.29171V19.8518H3.35118C3.01485 19.852 2.68177 19.7859 2.371 19.6573C2.06022 19.5287 1.77785 19.3401 1.54003 19.1023C1.3022 18.8644 1.1136 18.5821 0.984991 18.2713C0.856385 17.9605 0.790305 17.6275 0.790528 17.2911C0.790305 16.9548 0.856385 16.6217 0.984991 16.3109C1.1136 16.0002 1.3022 15.7178 1.54003 15.48C1.77785 15.2421 2.06022 15.0535 2.371 14.9249C2.68177 14.7963 3.01485 14.7302 3.35118 14.7305H8.41301Z" fill="#232323"/>
<path d="M173.501 65.3717C166.11 65.3901 158.942 62.8479 153.214 58.1774C147.486 53.507 143.552 46.9967 142.082 39.7537C140.612 32.5107 141.697 24.982 145.151 18.4482C148.605 11.9143 154.215 6.7785 161.029 3.91422C167.842 1.04994 175.437 0.634002 182.522 2.73713C189.607 4.84025 195.745 9.33259 199.892 15.4502C204.039 21.5678 205.939 28.933 205.268 36.2932C204.598 43.6535 201.399 50.5544 196.216 55.8224L196.036 56.0025C193.09 58.9832 189.581 61.3469 185.712 62.9556C181.842 64.5643 177.691 65.3857 173.501 65.3717Z" fill="white"/>
<path d="M173.501 3.31338C180.977 3.33302 188.179 6.12912 193.71 11.1591C199.241 16.1891 202.706 23.0944 203.433 30.5349C204.159 37.9755 202.096 45.4207 197.644 51.4261C193.191 57.4314 186.666 61.5685 179.335 63.0347C172.005 64.5008 164.391 63.1915 157.971 59.3607C151.551 55.5299 146.783 49.4508 144.592 42.303C142.401 35.1552 142.944 27.4485 146.115 20.6782C149.285 13.9079 154.858 8.55682 161.751 5.66334C165.472 4.10276 169.467 3.30371 173.501 3.31338ZM173.501 0C166.876 0 160.399 1.96469 154.89 5.64562C149.381 9.32656 145.087 14.5584 142.552 20.6796C140.016 26.8008 139.353 33.5363 140.646 40.0345C141.938 46.5327 145.129 52.5017 149.814 57.1866C154.499 61.8716 160.468 65.062 166.966 66.3546C173.464 67.6472 180.199 66.9838 186.321 64.4483C192.442 61.9129 197.674 57.6192 201.355 52.1103C205.036 46.6014 207 40.1247 207 33.4991C206.998 24.6152 203.469 16.0956 197.187 9.81366C190.905 3.53174 182.385 0.00180193 173.501 0Z" fill="#232323"/>
<path d="M203.364 38.1704C202.622 42.9454 200.741 47.4715 197.881 51.3662L191.103 50.7935L181.282 49.6194L187.006 43.9255L192.911 37.4482L200.503 38.0514L203.364 38.1704Z" fill="white"/>
<path d="M178.021 36.3015L164.976 44.9469L157.957 41.5129L146.51 33.5268L143.436 30.7877C143.807 26.5276 145.092 22.3974 147.201 18.6777L153.527 24.3105L178.021 36.3015Z" fill="white"/>
<path d="M202.12 23.8006L201.909 24.4633L193.595 37.5078L182.78 48.3825L166.844 57.1791L160.577 60.7949C155.675 58.448 151.486 54.8404 148.437 50.3416L157.354 48.1429L170.398 41.3343L182.78 31.5437L190.1 22.0284L195.854 13.2012C198.147 15.7262 200 18.6181 201.337 21.7565C201.609 22.4447 201.879 23.1073 202.12 23.8006Z" fill="white"/>
<path d="M192.24 36.5736C191.456 37.537 190.673 38.4715 189.83 39.3755C189.619 39.6168 189.409 39.8275 189.198 40.0687L187.39 41.9667L186.908 42.4493C187.57 42.5088 188.202 42.5699 188.865 42.6005L190.822 42.6906C191.162 42.3507 191.454 41.9973 191.786 41.6711C191.876 40.9778 191.966 40.2845 192.058 39.5624C192.178 38.5684 192.238 37.605 192.33 36.6092V36.4886L192.24 36.5736ZM192.24 36.5736C191.456 37.537 190.673 38.4715 189.83 39.3755C189.619 39.6168 189.409 39.8275 189.198 40.0687L187.39 41.9667L186.908 42.4493C187.57 42.5088 188.202 42.5699 188.865 42.6005L190.822 42.6906C191.162 42.3507 191.454 41.9973 191.786 41.6711C191.876 40.9778 191.966 40.2845 192.058 39.5624C192.178 38.5684 192.238 37.605 192.33 36.6092V36.4886L192.24 36.5736ZM192.24 36.5736C191.456 37.537 190.673 38.4715 189.83 39.3755C189.619 39.6168 189.409 39.8275 189.198 40.0687L187.39 41.9667L186.908 42.4493C187.57 42.5088 188.202 42.5699 188.865 42.6005L190.822 42.6906C191.162 42.3507 191.454 41.9973 191.786 41.6711C191.876 40.9778 191.966 40.2845 192.058 39.5624C192.178 38.5684 192.238 37.605 192.33 36.6092V36.4886L192.24 36.5736ZM184.046 45.0694C183.504 45.5214 182.991 46.004 182.449 46.4288L180.281 48.1466C180.853 48.2367 181.426 48.3573 181.999 48.4474C182.751 48.568 183.504 48.6581 184.287 48.7481L184.739 48.3862C185.011 47.331 185.222 46.2775 185.433 45.2223C185.553 44.6497 185.643 44.1077 185.733 43.5351C185.161 44.0754 184.62 44.5868 184.046 45.0694ZM177.238 50.3368L176.966 50.517L175.436 51.511C174.201 52.2943 172.935 53.0402 171.671 53.7403C170.677 54.2823 169.652 54.8243 168.628 55.3069C167.634 55.7895 166.609 56.2415 165.615 56.6662C165.374 56.7563 165.133 56.8769 164.863 56.967C163.899 57.3578 162.934 57.7197 161.974 58.0817C160.739 58.5336 159.503 58.9312 158.268 59.2864L157.758 59.4376C157.006 59.6483 156.282 59.859 155.529 60.0408C154.987 60.1614 154.445 60.3127 153.903 60.4316C154.265 60.7035 154.627 60.9736 155.018 61.2149C155.621 61.6057 156.222 61.9982 156.856 62.3602C157.007 62.4502 157.196 62.5403 157.339 62.632C158.358 62.3602 159.417 62.0594 160.411 61.7281L161.495 61.3662C162.067 61.1861 162.669 60.9753 163.241 60.763C164.567 60.2804 165.862 59.7689 167.15 59.2337C168.169 58.7817 169.168 58.3297 170.162 57.8472C171.522 57.1845 172.813 56.4878 174.109 55.7691C175.224 55.137 176.339 54.4743 177.423 53.7811C177.763 52.787 178.055 51.8236 178.357 50.8279C178.509 50.3181 178.629 49.8084 178.779 49.3224C178.232 49.6487 177.757 49.98 177.238 50.3419V50.3368ZM192.24 36.5736C191.456 37.537 190.673 38.4715 189.83 39.3755C189.619 39.6168 189.409 39.8275 189.198 40.0687L187.39 41.9667L186.908 42.4493C187.57 42.5088 188.202 42.5699 188.865 42.6005L190.822 42.6906C191.162 42.3507 191.454 41.9973 191.786 41.6711C191.876 40.9778 191.966 40.2845 192.058 39.5624C192.178 38.5684 192.238 37.605 192.33 36.6092V36.4886L192.24 36.5736ZM184.046 45.0694C183.504 45.5214 182.991 46.004 182.449 46.4288L180.281 48.1466C180.853 48.2367 181.426 48.3573 181.999 48.4474C182.751 48.568 183.504 48.6581 184.287 48.7481L184.739 48.3862C185.011 47.331 185.222 46.2775 185.433 45.2223C185.553 44.6497 185.643 44.1077 185.733 43.5351C185.161 44.0754 184.62 44.5868 184.046 45.0694ZM177.238 50.3368L176.966 50.517L175.436 51.511C174.201 52.2943 172.935 53.0402 171.671 53.7403C170.677 54.2823 169.652 54.8243 168.628 55.3069C167.634 55.7895 166.609 56.2415 165.615 56.6662C165.374 56.7563 165.133 56.8769 164.863 56.967C163.899 57.3578 162.934 57.7197 161.974 58.0817C160.739 58.5336 159.503 58.9312 158.268 59.2864L157.758 59.4376C157.006 59.6483 156.282 59.859 155.529 60.0408C154.987 60.1614 154.445 60.3127 153.903 60.4316C154.265 60.7035 154.627 60.9736 155.018 61.2149C155.621 61.6057 156.222 61.9982 156.856 62.3602C157.007 62.4502 157.196 62.5403 157.339 62.632C158.358 62.3602 159.417 62.0594 160.411 61.7281L161.495 61.3662C162.067 61.1861 162.669 60.9753 163.241 60.763C164.567 60.2804 165.862 59.7689 167.15 59.2337C168.169 58.7817 169.168 58.3297 170.162 57.8472C171.522 57.1845 172.813 56.4878 174.109 55.7691C175.224 55.137 176.339 54.4743 177.423 53.7811C177.763 52.787 178.055 51.8236 178.357 50.8279C178.509 50.3181 178.629 49.8084 178.779 49.3224C178.232 49.6487 177.757 49.98 177.238 50.3419V50.3368ZM192.24 36.5736H192.33V36.4529L192.24 36.5736ZM184.046 45.0694C183.504 45.5214 182.991 46.004 182.449 46.4288L180.281 48.1466C180.853 48.2367 181.426 48.3573 181.999 48.4474C182.751 48.568 183.504 48.6581 184.287 48.7481L184.739 48.3862C185.011 47.331 185.222 46.2775 185.433 45.2223C185.553 44.6497 185.643 44.1077 185.733 43.5351C185.161 44.0754 184.62 44.5868 184.046 45.0694ZM177.238 50.3368L176.966 50.517L175.436 51.511C174.201 52.2943 172.935 53.0402 171.671 53.7403C170.677 54.2823 169.652 54.8243 168.628 55.3069C167.634 55.7895 166.609 56.2415 165.615 56.6662C165.374 56.7563 165.133 56.8769 164.863 56.967C163.899 57.3578 162.934 57.7197 161.974 58.0817C160.739 58.5336 159.503 58.9312 158.268 59.2864L157.758 59.4376C157.006 59.6483 156.282 59.859 155.529 60.0408C154.987 60.1614 154.445 60.3127 153.903 60.4316C154.265 60.7035 154.627 60.9736 155.018 61.2149C155.621 61.6057 156.222 61.9982 156.856 62.3602C157.007 62.4502 157.196 62.5403 157.339 62.632C158.358 62.3602 159.417 62.0594 160.411 61.7281L161.495 61.3662C162.067 61.1861 162.669 60.9753 163.241 60.763C164.567 60.2804 165.862 59.7689 167.15 59.2337C168.169 58.7817 169.168 58.3297 170.162 57.8472C171.522 57.1845 172.813 56.4878 174.109 55.7691C175.224 55.137 176.339 54.4743 177.423 53.7811C177.763 52.787 178.055 51.8236 178.357 50.8279C178.509 50.3181 178.629 49.8084 178.779 49.3224C178.232 49.6487 177.757 49.98 177.238 50.3419V50.3368ZM192.24 36.5736H192.33V36.4529L192.24 36.5736ZM168.59 55.2814C167.596 55.764 166.572 56.216 165.578 56.6408C165.337 56.7308 165.095 56.8515 164.825 56.9415C163.862 57.3323 162.897 57.6942 161.937 58.0562C160.701 58.5081 159.466 58.9058 158.231 59.2609L157.721 59.4121C156.968 59.6228 156.244 59.8335 155.492 60.0153C154.95 60.136 154.408 60.2872 153.865 60.4061C154.227 60.678 154.589 60.9482 154.98 61.1894C155.583 61.5802 156.185 61.9728 156.819 62.3347C156.97 62.4247 157.158 62.5148 157.301 62.6065C158.321 62.3347 159.379 62.0339 160.373 61.7026L161.457 61.3407C162.03 61.1605 162.631 60.9499 163.204 60.7375C164.529 60.2549 165.826 59.7434 167.112 59.2082C168.132 58.7562 169.131 58.3042 170.125 57.8217C170.667 56.4623 171.18 55.0809 171.654 53.6944C170.64 54.2568 169.615 54.8006 168.59 55.2814ZM192.24 36.5736H192.33V36.4529L192.24 36.5736ZM168.59 55.2814C167.596 55.764 166.572 56.216 165.578 56.6408C165.337 56.7308 165.095 56.8515 164.825 56.9415C163.862 57.3323 162.897 57.6942 161.937 58.0562C160.701 58.5081 159.466 58.9058 158.231 59.2609L157.721 59.4121C156.968 59.6228 156.244 59.8335 155.492 60.0153C154.95 60.136 154.408 60.2872 153.865 60.4061C154.227 60.678 154.589 60.9482 154.98 61.1894C155.583 61.5802 156.185 61.9728 156.819 62.3347C156.97 62.4247 157.158 62.5148 157.301 62.6065C158.321 62.3347 159.379 62.0339 160.373 61.7026L161.457 61.3407C162.03 61.1605 162.631 60.9499 163.204 60.7375C164.529 60.2549 165.826 59.7434 167.112 59.2082C168.132 58.7562 169.131 58.3042 170.125 57.8217C170.667 56.4623 171.18 55.0809 171.654 53.6944C170.64 54.2568 169.615 54.8006 168.59 55.2814ZM202.965 17.9863C202.693 18.7102 202.392 19.4017 202.091 20.1256C201.881 20.6353 201.639 21.1451 201.429 21.6548C201.187 22.1969 200.919 22.7695 200.645 23.3115C199.862 24.9376 199.019 26.54 198.085 28.0692C197.332 29.3351 196.579 30.5704 195.735 31.8074C195.614 31.9875 195.493 32.1472 195.373 32.3171C194.409 33.7325 193.354 35.1191 192.27 36.475L192.18 36.5651C191.397 37.5285 190.613 38.463 189.771 39.367C189.56 39.6083 189.349 39.819 189.139 40.0603L187.331 41.9582L186.848 42.4408C186.457 42.8316 186.065 43.1935 185.674 43.586C185.132 44.0958 184.559 44.6055 183.987 45.1153C183.445 45.5673 182.932 46.0498 182.389 46.4746L180.221 48.1925C179.712 48.5833 179.202 48.9452 178.692 49.3071C178.209 49.6691 177.698 50.0004 177.187 50.3623L176.915 50.5424L175.385 51.5365C174.15 52.3198 172.884 53.0657 171.62 53.7658C170.626 54.3078 169.601 54.8498 168.577 55.3324C167.583 55.815 166.558 56.2669 165.534 56.6917C165.292 56.7818 165.051 56.9024 164.781 56.9925C163.817 57.3833 162.852 57.7452 161.892 58.1071C160.657 58.5591 159.422 58.9567 158.186 59.3119L157.677 59.4631C156.924 59.6738 156.2 59.8845 155.447 60.0663C154.905 60.1869 154.363 60.3382 153.821 60.4571C154.183 60.729 154.543 60.9991 154.936 61.2404C155.539 61.6312 156.141 62.0237 156.774 62.3857C156.926 62.4757 157.114 62.5658 157.257 62.6575C158.277 62.3857 159.335 62.0849 160.329 61.7536L161.413 61.3916C161.986 61.2115 162.587 61.0008 163.16 60.7884C164.485 60.3059 165.782 59.7944 167.068 59.2592C168.088 58.8072 169.087 58.3552 170.081 57.8727C171.44 57.21 172.731 56.5133 174.028 55.7946C175.142 55.1625 176.257 54.4998 177.341 53.8065C178.577 53.0232 179.781 52.1804 180.957 51.336L181.258 51.1253C182.252 50.3725 183.246 49.6198 184.209 48.8365L184.661 48.4745C185.776 47.54 186.891 46.546 187.946 45.552C188.089 45.4035 188.24 45.2629 188.398 45.1306C189.212 44.3473 189.995 43.5639 190.777 42.7517C191.116 42.4119 191.409 42.0585 191.74 41.7322C192.343 41.0696 192.945 40.3729 193.548 39.683L195.174 37.695C195.415 37.3943 195.657 37.0629 195.898 36.7605C196.681 35.741 197.427 34.6518 198.187 33.5677C199.206 32.0623 200.175 30.4956 201.109 28.8984C201.712 27.8789 202.255 26.8203 202.797 25.7345C203.459 24.4398 204.062 23.1433 204.633 21.8265C204.188 20.501 203.63 19.2162 202.965 17.9863ZM192.24 36.5736H192.33V36.4529L192.24 36.5736ZM198.114 28.0777C197.361 29.3436 196.608 30.5789 195.764 31.8159C195.643 31.996 195.522 32.1557 195.402 32.3256C194.438 33.741 193.383 35.1276 192.299 36.4835L192.209 36.5736H192.299C193.293 36.633 194.256 36.6636 195.25 36.6636H195.913C196.696 35.6441 197.442 34.5549 198.202 33.4709C198.202 32.9611 198.233 32.4514 198.233 31.9416C198.233 30.6469 198.202 29.3504 198.112 28.0862L198.114 28.0777ZM168.59 55.312C167.596 55.7946 166.572 56.2466 165.578 56.6714C165.337 56.7614 165.095 56.882 164.825 56.9721C163.862 57.3629 162.897 57.7248 161.937 58.0868C160.701 58.5387 159.466 58.9363 158.231 59.2915L157.721 59.4427C156.968 59.6534 156.244 59.8641 155.492 60.0459C154.95 60.1665 154.408 60.3178 153.865 60.4367C154.227 60.7086 154.589 60.9787 154.98 61.22C155.583 61.6108 156.185 62.0033 156.819 62.3653C156.97 62.4553 157.158 62.5454 157.301 62.6371C158.321 62.3653 159.379 62.0645 160.373 61.7332L161.457 61.3713C162.03 61.1911 162.631 60.9804 163.204 60.768C164.529 60.2855 165.826 59.774 167.112 59.2388C168.132 58.7868 169.131 58.3348 170.125 57.8523C170.667 56.4929 171.18 55.1115 171.654 53.725C170.635 54.267 169.605 54.809 168.582 55.3222L168.59 55.312ZM192.24 36.5736H192.33V36.4529L192.24 36.5736ZM177.238 50.3368L176.966 50.517L175.436 51.511C174.201 52.2943 172.935 53.0402 171.671 53.7403C170.677 54.2823 169.652 54.8243 168.628 55.3069C167.634 55.7895 166.609 56.2415 165.615 56.6662C165.374 56.7563 165.133 56.8769 164.863 56.967C163.899 57.3578 162.934 57.7197 161.974 58.0817C160.739 58.5336 159.503 58.9312 158.268 59.2864L157.758 59.4376C157.006 59.6483 156.282 59.859 155.529 60.0408C154.987 60.1614 154.445 60.3127 153.903 60.4316C154.265 60.7035 154.627 60.9736 155.018 61.2149C155.621 61.6057 156.222 61.9982 156.856 62.3602C157.007 62.4502 157.196 62.5403 157.339 62.632C158.358 62.3602 159.417 62.0594 160.411 61.7281L161.495 61.3662C162.067 61.1861 162.669 60.9753 163.241 60.763C164.567 60.2804 165.862 59.7689 167.15 59.2337C168.169 58.7817 169.168 58.3297 170.162 57.8472C171.522 57.1845 172.813 56.4878 174.109 55.7691C175.224 55.137 176.339 54.4743 177.423 53.7811C177.763 52.787 178.055 51.8236 178.357 50.8279C178.509 50.3181 178.629 49.8084 178.779 49.3224C178.232 49.6487 177.757 49.98 177.238 50.3419V50.3368ZM184.046 45.0694C183.504 45.5214 182.991 46.004 182.449 46.4288L180.281 48.1466C180.853 48.2367 181.426 48.3573 181.999 48.4474C182.751 48.568 183.504 48.6581 184.287 48.7481L184.739 48.3862C185.011 47.331 185.222 46.2775 185.433 45.2223C185.553 44.6497 185.643 44.1077 185.733 43.5351C185.161 44.0771 184.619 44.5902 184.046 45.0643V45.0694ZM192.24 36.5736C191.456 37.537 190.673 38.4715 189.83 39.3755C189.619 39.6168 189.409 39.8275 189.198 40.0687L187.39 41.9667L186.908 42.4493C187.57 42.5088 188.202 42.5699 188.865 42.6005L190.822 42.6906C191.162 42.3507 191.454 41.9973 191.786 41.6711C191.876 40.9778 191.966 40.2845 192.058 39.5624C192.178 38.5684 192.238 37.605 192.33 36.6092V36.4886L192.24 36.5736ZM177.238 50.3368L176.966 50.517L175.436 51.511C174.201 52.2943 172.935 53.0402 171.671 53.7403C170.677 54.2823 169.652 54.8243 168.628 55.3069C167.634 55.7895 166.609 56.2415 165.615 56.6662C165.374 56.7563 165.133 56.8769 164.863 56.967C163.899 57.3578 162.934 57.7197 161.974 58.0817C160.739 58.5336 159.503 58.9312 158.268 59.2864L157.758 59.4376C157.006 59.6483 156.282 59.859 155.529 60.0408C154.987 60.1614 154.445 60.3127 153.903 60.4316C154.265 60.7035 154.627 60.9736 155.018 61.2149C155.621 61.6057 156.222 61.9982 156.856 62.3602C157.007 62.4502 157.196 62.5403 157.339 62.632C158.358 62.3602 159.417 62.0594 160.411 61.7281L161.495 61.3662C162.067 61.1861 162.669 60.9753 163.241 60.763C164.567 60.2804 165.862 59.7689 167.15 59.2337C168.169 58.7817 169.168 58.3297 170.162 57.8472C171.522 57.1845 172.813 56.4878 174.109 55.7691C175.224 55.137 176.339 54.4743 177.423 53.7811C177.763 52.787 178.055 51.8236 178.357 50.8279C178.509 50.3181 178.629 49.8084 178.779 49.3224C178.232 49.6487 177.757 49.98 177.238 50.3419V50.3368ZM184.046 45.0694C183.504 45.5214 182.991 46.004 182.449 46.4288L180.281 48.1466C180.853 48.2367 181.426 48.3573 181.999 48.4474C182.751 48.568 183.504 48.6581 184.287 48.7481L184.739 48.3862C185.011 47.331 185.222 46.2775 185.433 45.2223C185.553 44.6497 185.643 44.1077 185.733 43.5351C185.161 44.0771 184.619 44.5902 184.046 45.0643V45.0694ZM192.24 36.5736C191.456 37.537 190.673 38.4715 189.83 39.3755C189.619 39.6168 189.409 39.8275 189.198 40.0687L187.39 41.9667L186.908 42.4493C187.57 42.5088 188.202 42.5699 188.865 42.6005L190.822 42.6906C191.162 42.3507 191.454 41.9973 191.786 41.6711C191.876 40.9778 191.966 40.2845 192.058 39.5624C192.178 38.5684 192.238 37.605 192.33 36.6092V36.4886L192.24 36.5736ZM177.238 50.3368L176.966 50.517L175.436 51.511C174.201 52.2943 172.935 53.0402 171.671 53.7403C170.677 54.2823 169.652 54.8243 168.628 55.3069C167.634 55.7895 166.609 56.2415 165.615 56.6662C165.374 56.7563 165.133 56.8769 164.863 56.967C163.899 57.3578 162.934 57.7197 161.974 58.0817C160.739 58.5336 159.503 58.9312 158.268 59.2864L157.758 59.4376C157.006 59.6483 156.282 59.859 155.529 60.0408C154.987 60.1614 154.445 60.3127 153.903 60.4316C154.265 60.7035 154.627 60.9736 155.018 61.2149C155.621 61.6057 156.222 61.9982 156.856 62.3602C157.007 62.4502 157.196 62.5403 157.339 62.632C158.358 62.3602 159.417 62.0594 160.411 61.7281L161.495 61.3662C162.067 61.1861 162.669 60.9753 163.241 60.763C164.567 60.2804 165.862 59.7689 167.15 59.2337C168.169 58.7817 169.168 58.3297 170.162 57.8472C171.522 57.1845 172.813 56.4878 174.109 55.7691C175.224 55.137 176.339 54.4743 177.423 53.7811C177.763 52.787 178.055 51.8236 178.357 50.8279C178.509 50.3181 178.629 49.8084 178.779 49.3224C178.232 49.6487 177.757 49.98 177.238 50.3419V50.3368ZM184.046 45.0694C183.504 45.5214 182.991 46.004 182.449 46.4288L180.281 48.1466C180.853 48.2367 181.426 48.3573 181.999 48.4474C182.751 48.568 183.504 48.6581 184.287 48.7481L184.739 48.3862C185.011 47.331 185.222 46.2775 185.433 45.2223C185.553 44.6497 185.643 44.1077 185.733 43.5351C185.161 44.0771 184.619 44.5902 184.046 45.0643V45.0694ZM192.24 36.5736C191.456 37.537 190.673 38.4715 189.83 39.3755C189.619 39.6168 189.409 39.8275 189.198 40.0687L187.39 41.9667L186.908 42.4493C187.57 42.5088 188.202 42.5699 188.865 42.6005L190.822 42.6906C191.162 42.3507 191.454 41.9973 191.786 41.6711C191.876 40.9778 191.966 40.2845 192.058 39.5624C192.178 38.5684 192.238 37.605 192.33 36.6092V36.4886L192.24 36.5736ZM192.24 36.5736C191.456 37.537 190.673 38.4715 189.83 39.3755C189.619 39.6168 189.409 39.8275 189.198 40.0687L187.39 41.9667L186.908 42.4493C187.57 42.5088 188.202 42.5699 188.865 42.6005L190.822 42.6906C191.162 42.3507 191.454 41.9973 191.786 41.6711C191.876 40.9778 191.966 40.2845 192.058 39.5624C192.178 38.5684 192.238 37.605 192.33 36.6092V36.4886L192.24 36.5736ZM192.24 36.5736C191.456 37.537 190.673 38.4715 189.83 39.3755C190.552 39.435 191.307 39.4961 192.059 39.5267C192.18 38.5327 192.24 37.5693 192.331 36.5736V36.4529L192.24 36.5736Z" fill="#232323"/>
<path d="M185.402 35.8802C185.793 35.9397 186.186 36.0009 186.607 36.0603C186.637 35.5506 186.666 35.0408 186.666 34.5311L185.402 35.8802ZM179.494 41.3329C179.766 41.3923 180.036 41.4229 180.278 41.4841C180.308 41.1833 180.368 40.8809 180.398 40.5495C180.101 40.8214 179.798 41.0933 179.494 41.3329ZM172.626 46.3029C172.966 46.393 173.289 46.5136 173.62 46.6037C173.71 46.2418 173.771 45.8798 173.861 45.5196C173.44 45.7915 173.012 46.0616 172.626 46.3029ZM185.399 35.8802C185.79 35.9397 186.182 36.0009 186.603 36.0603C186.634 35.5506 186.663 35.0408 186.663 34.5311L185.399 35.8802ZM179.494 41.3329C179.766 41.3923 180.036 41.4229 180.278 41.4841C180.308 41.1833 180.368 40.8809 180.398 40.5495C180.101 40.8214 179.798 41.0933 179.494 41.3329ZM172.626 46.3029C172.966 46.393 173.289 46.5136 173.62 46.6037C173.71 46.2418 173.771 45.8798 173.861 45.5196C173.44 45.7915 173.012 46.0616 172.626 46.3029ZM185.399 35.8802C185.79 35.9397 186.182 36.0009 186.603 36.0603C186.634 35.5506 186.663 35.0408 186.663 34.5311L185.399 35.8802ZM179.494 41.3329C179.766 41.3923 180.036 41.4229 180.278 41.4841C180.308 41.1833 180.368 40.8809 180.398 40.5495C180.101 40.8214 179.798 41.0933 179.494 41.3329ZM172.626 46.3029C172.966 46.393 173.289 46.5136 173.62 46.6037C173.71 46.2418 173.771 45.8798 173.861 45.5196C173.44 45.7915 173.012 46.0616 172.626 46.3029ZM185.399 35.8802C185.79 35.9397 186.182 36.0009 186.603 36.0603C186.634 35.5506 186.663 35.0408 186.663 34.5311L185.399 35.8802ZM179.494 41.3329C179.766 41.3923 180.036 41.4229 180.278 41.4841C180.308 41.1833 180.368 40.8809 180.398 40.5495C180.101 40.8214 179.798 41.0933 179.494 41.3329ZM172.626 46.3029C172.966 46.393 173.289 46.5136 173.62 46.6037C173.71 46.2418 173.771 45.8798 173.861 45.5196C173.44 45.7915 173.012 46.0616 172.626 46.3029ZM199.884 13.1963C199.643 13.7995 199.402 14.401 199.16 14.9736C199.16 15.0042 199.16 15.0042 199.13 15.0331C198.95 15.4851 198.739 15.9371 198.527 16.3924C198.075 17.4119 197.592 18.4416 197.081 19.4356C196.387 20.795 195.665 22.0863 194.912 23.3828C194.25 24.4975 193.553 25.6121 192.804 26.6962C192.653 26.9375 192.464 27.1788 192.294 27.4201C191.444 28.6248 190.576 29.8295 189.643 31.0053C188.68 32.21 187.686 33.3841 186.631 34.5294L185.365 35.8887C185.064 36.2285 184.733 36.5514 184.43 36.8521C184.189 37.0934 183.921 37.3347 183.678 37.6049C183.377 37.9056 183.074 38.1775 182.774 38.4545C181.99 39.1783 181.207 39.9005 180.395 40.5937C180.094 40.8656 179.792 41.1035 179.491 41.377C178.767 41.9802 178.014 42.5512 177.292 43.1238C177.02 43.3345 176.75 43.5452 176.478 43.727C175.754 44.2367 175.032 44.7822 174.308 45.2562C174.156 45.3391 174.015 45.4401 173.887 45.557C173.496 45.8289 173.073 46.099 172.682 46.3403C172.079 46.7311 171.478 47.093 170.874 47.455C170.365 47.7557 169.819 48.0582 169.308 48.3589C168.676 48.7209 168.013 49.0522 167.379 49.3784C166.415 49.8904 165.421 50.3724 164.397 50.8244C163.824 51.0963 163.252 51.3342 162.679 51.5772C162.076 51.8184 161.505 52.0597 160.902 52.301C159.938 52.6629 159.004 53.0248 158.04 53.3562C156.895 53.747 155.752 54.1089 154.576 54.4403C153.793 54.651 153.009 54.8617 152.197 55.0724L151.714 55.1318C150.72 55.3731 149.726 55.5838 148.732 55.7639C149.367 56.4839 150.041 57.168 150.751 57.8131C150.902 57.9643 151.091 58.1139 151.234 58.2651C151.896 58.1139 152.559 57.9643 153.191 57.8131C153.733 57.6925 154.246 57.5412 154.788 57.3917C155.451 57.2116 156.114 57.0298 156.746 56.8191C157.709 56.5183 158.644 56.2159 159.578 55.8846C160.814 55.4632 162.018 54.9806 163.194 54.498C164.188 54.0766 165.182 53.6484 166.147 53.2033C167.383 52.6306 168.587 51.9986 169.792 51.3648C170.811 50.8227 171.841 50.2195 172.835 49.618L173.015 49.4974C174.16 48.8041 175.275 48.0808 176.359 47.3275L176.419 47.2969C177.533 46.5442 178.589 45.7677 179.647 44.947C179.827 44.7958 180.038 44.6462 180.22 44.495C181.214 43.7117 182.177 42.8978 183.108 42.0856L183.198 41.9955C184.254 41.061 185.248 40.1264 186.242 39.1341L186.362 39.0135C187.236 38.1401 188.08 37.2362 188.923 36.3322C189.103 36.1215 189.285 35.9108 189.465 35.729C190.459 34.5838 191.422 33.4402 192.354 32.2338C193.348 30.939 194.311 29.6137 195.215 28.2866C196.088 26.9919 196.902 25.6665 197.686 24.3395C198.535 22.8935 199.312 21.4169 200.064 19.9114C200.126 19.7602 200.216 19.6107 200.275 19.4594C200.817 18.3754 201.295 17.2607 201.78 16.1155C201.244 15.0833 200.609 14.1056 199.884 13.1963ZM172.63 46.3046C172.969 46.3947 173.292 46.5153 173.624 46.6054C173.714 46.2435 173.775 45.8815 173.865 45.5213C173.443 45.7932 173.015 46.0634 172.63 46.3046ZM179.498 41.3346C179.769 41.394 180.04 41.4246 180.281 41.4858C180.311 41.185 180.371 40.8826 180.402 40.5512C180.101 40.8214 179.798 41.0933 179.494 41.3329L179.498 41.3346ZM185.402 35.8802C185.793 35.9397 186.186 36.0009 186.607 36.0603C186.637 35.5506 186.666 35.0408 186.666 34.5311L185.402 35.8802ZM179.494 41.3329C179.766 41.3923 180.036 41.4229 180.278 41.4841C180.308 41.1833 180.368 40.8809 180.398 40.5495C180.101 40.8214 179.798 41.0933 179.494 41.3329ZM185.399 35.8802C185.79 35.9397 186.182 36.0009 186.603 36.0603C186.634 35.5506 186.663 35.0408 186.663 34.5311L185.399 35.8802ZM172.626 46.3029C172.966 46.393 173.289 46.5136 173.62 46.6037C173.71 46.2418 173.771 45.8798 173.861 45.5196C173.442 45.7915 173.02 46.0634 172.63 46.3046L172.626 46.3029ZM179.494 41.3329C179.766 41.3923 180.036 41.4229 180.278 41.4841C180.308 41.1833 180.368 40.8809 180.398 40.5495C180.097 40.8214 179.795 41.0916 179.494 41.3329ZM185.399 35.8802C185.79 35.9397 186.182 36.0009 186.603 36.0603C186.634 35.5506 186.663 35.0408 186.663 34.5311L185.399 35.8802ZM172.626 46.3029C172.966 46.393 173.289 46.5136 173.62 46.6037C173.71 46.2418 173.771 45.8798 173.861 45.5196C173.442 45.7915 173.02 46.0634 172.63 46.3046L172.626 46.3029ZM179.494 41.3329C179.766 41.3923 180.036 41.4229 180.278 41.4841C180.308 41.1833 180.368 40.8809 180.398 40.5495C180.097 40.8214 179.795 41.0916 179.494 41.3329ZM185.399 35.8802C185.79 35.9397 186.182 36.0009 186.603 36.0603C186.634 35.5506 186.663 35.0408 186.663 34.5311L185.399 35.8802Z" fill="#232323"/>
<path d="M198.083 11.0551L196.129 9.09766C195.789 9.88097 195.466 10.6269 195.109 11.417L194.839 11.9591C194.357 12.9225 193.876 13.9165 193.363 14.8476C192.67 16.1135 191.947 17.3777 191.164 18.613C190.743 19.3063 190.291 19.9723 189.839 20.6316C189.538 21.053 189.235 21.505 188.935 21.9264C188.121 23.1005 187.247 24.2152 186.343 25.3247C185.494 26.3442 184.656 27.3433 183.752 28.3374C182.999 29.1869 182.223 29.9941 181.402 30.808L180.86 31.35C179.956 32.254 178.991 33.1273 178.028 33.9701C177.907 34.0908 177.786 34.1808 177.666 34.3099C176.792 35.0627 175.858 35.8154 174.947 36.5393L174.888 36.5987C173.984 37.292 173.051 37.9853 172.116 38.6479C171.844 38.828 171.574 39.0387 171.267 39.2206L171.236 39.2511C170.483 39.7609 169.707 40.2706 168.917 40.7566C168.645 40.9078 168.375 41.0964 168.133 41.2392C167.44 41.6606 166.747 42.0531 166.025 42.4439C165.483 42.7446 164.941 43.0165 164.399 43.3173C163.857 43.5891 163.315 43.8593 162.742 44.1668C162.169 44.4387 161.568 44.7395 160.965 45.0164C160.603 45.1965 160.241 45.3563 159.85 45.499C159.752 45.5444 159.652 45.5847 159.549 45.6196C158.555 46.041 157.561 46.4324 156.567 46.7938C155.633 47.1557 154.698 47.4564 153.735 47.7572C152.651 48.097 151.567 48.4199 150.481 48.7206C149.577 48.9619 148.644 49.2032 147.709 49.3833L147.529 49.4139C147.56 49.4734 147.619 49.5345 147.65 49.594C148.192 50.4436 148.734 51.2507 149.337 52.034L149.578 51.9745C150.693 51.7027 151.808 51.4019 152.892 51.1012C153.826 50.8293 154.79 50.5285 155.724 50.2278C156.87 49.837 157.984 49.4445 159.099 48.9925C160.062 48.6017 161.028 48.2092 161.988 47.7878C162.837 47.4259 163.675 47.035 164.487 46.6136C164.788 46.4624 165.09 46.3129 165.36 46.1617C166.234 45.7086 167.077 45.2554 167.89 44.8023L168.281 44.5916C169.427 43.9595 170.511 43.2663 171.625 42.573L171.715 42.5135C172.679 41.8815 173.644 41.2477 174.577 40.5561L174.877 40.3454C175.871 39.6216 176.865 38.8688 177.8 38.0855C178.011 37.9343 178.191 37.7457 178.403 37.6029C179.217 36.9403 180 36.2776 180.753 35.5537L181.146 35.1918C182.05 34.3779 182.923 33.5045 183.796 32.6312C184.731 31.6677 185.665 30.6737 186.568 29.6491C187.531 28.5651 188.466 27.4504 189.339 26.3052C190.189 25.2211 190.996 24.1064 191.779 22.9918C192.629 21.7871 193.436 20.5212 194.189 19.2536C194.882 18.1084 195.548 16.9036 196.177 15.7295C196.418 15.2775 196.659 14.8256 196.87 14.3702C197.322 13.4968 197.743 12.5928 198.136 11.6889C198.17 11.6055 198.21 11.5248 198.256 11.4476C198.269 11.3724 198.26 11.295 198.229 11.2252C198.198 11.1553 198.147 11.0962 198.083 11.0551Z" fill="#232323"/>
<path d="M173.624 46.6048C173.284 46.5147 172.961 46.4247 172.63 46.304C172.026 46.6948 171.425 47.0567 170.822 47.4187C170.312 47.7194 169.766 48.0219 169.255 48.3226C169.676 48.4739 170.105 48.6234 170.521 48.744C171.304 49.0159 172.118 49.2538 172.93 49.4679L173.082 49.4985C174.227 48.8052 175.341 48.0819 176.426 47.3286C175.491 47.1145 174.557 46.8732 173.624 46.6048ZM173.624 46.6048C173.284 46.5147 172.961 46.4247 172.63 46.304C172.026 46.6948 171.425 47.0567 170.822 47.4187C170.312 47.7194 169.766 48.0219 169.255 48.3226C169.676 48.4739 170.105 48.6234 170.521 48.744C171.304 49.0159 172.118 49.2538 172.93 49.4679L173.082 49.4985C174.227 48.8052 175.341 48.0819 176.426 47.3286C175.491 47.1145 174.557 46.8732 173.624 46.6048ZM173.624 46.6048C173.284 46.5147 172.961 46.4247 172.63 46.304C172.026 46.6948 171.425 47.0567 170.822 47.4187C170.312 47.7194 169.766 48.0219 169.255 48.3226C169.676 48.4739 170.105 48.6234 170.521 48.744C171.304 49.0159 172.118 49.2538 172.93 49.4679L173.082 49.4985C174.227 48.8052 175.341 48.0819 176.426 47.3286C175.491 47.1145 174.557 46.8732 173.624 46.6048ZM173.624 46.6048C173.284 46.5147 172.961 46.4247 172.63 46.304C172.026 46.6948 171.425 47.0567 170.822 47.4187C170.312 47.7194 169.766 48.0219 169.255 48.3226C169.676 48.4739 170.105 48.6234 170.521 48.744C171.304 49.0159 172.118 49.2538 172.93 49.4679L173.082 49.4985C174.227 48.8052 175.341 48.0819 176.426 47.3286C175.491 47.1145 174.557 46.8732 173.624 46.6048ZM173.624 46.6048C173.284 46.5147 172.961 46.4247 172.63 46.304C172.026 46.6948 171.425 47.0567 170.822 47.4187C170.312 47.7194 169.766 48.0219 169.255 48.3226C169.676 48.4739 170.105 48.6234 170.521 48.744C171.304 49.0159 172.118 49.2538 172.93 49.4679L173.082 49.4985C174.227 48.8052 175.341 48.0819 176.426 47.3286C175.491 47.1145 174.557 46.8732 173.624 46.6048ZM173.624 46.6048C173.284 46.5147 172.961 46.4247 172.63 46.304C172.026 46.6948 171.425 47.0567 170.822 47.4187C170.312 47.7194 169.766 48.0219 169.255 48.3226C169.676 48.4739 170.105 48.6234 170.521 48.744C171.304 49.0159 172.118 49.2538 172.93 49.4679L173.082 49.4985C174.227 48.8052 175.341 48.0819 176.426 47.3286C175.491 47.1145 174.557 46.8732 173.624 46.6048ZM199.651 48.8936C199.471 48.9241 199.312 48.9241 199.142 48.953C198.122 49.0431 197.064 49.1331 196.039 49.1637L193.298 49.2538H192.574C191.791 49.2538 191.008 49.2538 190.255 49.2232C189.351 49.1926 188.478 49.1331 187.574 49.072C186.579 49.0119 185.585 48.9213 184.592 48.8001L184.23 48.7695C183.477 48.6795 182.701 48.5588 181.941 48.4688C181.368 48.3787 180.796 48.2886 180.223 48.168C179.713 48.5588 179.204 48.9207 178.694 49.2827C178.211 49.6446 177.7 49.9759 177.188 50.3378L176.917 50.518C177.369 50.608 177.821 50.7287 178.276 50.8187C179.18 50.9988 180.053 51.1585 180.957 51.3013L181.198 51.3319C182.048 51.4831 182.916 51.6037 183.79 51.6938C184.784 51.8144 185.778 51.9045 186.772 51.9945C187.645 52.054 188.518 52.1152 189.392 52.1458C190.411 52.1764 191.441 52.2052 192.464 52.2052H192.554C193.427 52.2052 194.301 52.1747 195.145 52.1458C195.929 52.1152 196.712 52.0863 197.465 52.0251C197.736 51.9945 198.007 51.9945 198.279 51.9657C199.298 51.8756 200.328 51.7855 201.351 51.6649C202.032 50.6146 202.655 49.5284 203.22 48.411C202.105 48.6217 200.9 48.7729 199.665 48.8936H199.651ZM165.882 43.8623C165.4 43.6516 164.948 43.4715 164.467 43.2591C163.986 43.0467 163.532 42.8377 163.051 42.5964C162.202 42.2056 161.395 41.7825 160.581 41.3611C159.646 40.8786 158.712 40.3416 157.779 39.7945C156.929 39.2847 156.092 38.775 155.249 38.2279C154.887 37.9866 154.525 37.7759 154.194 37.5346C153.59 37.1438 153.019 36.7207 152.447 36.2993C151.573 35.6672 150.7 35.0045 149.856 34.3419C148.862 33.5585 147.898 32.7446 146.933 31.8713C145.939 30.9979 144.976 30.0633 144.044 29.1305L143.535 28.6207C142.685 27.7474 141.847 26.874 141.033 25.9395C140.759 27.1631 140.548 28.4 140.401 29.6453C141.305 30.5799 142.209 31.5144 143.173 32.4167C144.347 33.5619 145.582 34.646 146.848 35.6706C147.783 36.4233 148.717 37.1761 149.65 37.8999C150.464 38.5031 151.307 39.1046 152.151 39.6772C153.055 40.3093 153.988 40.9125 154.923 41.4852C155.736 41.9972 156.549 42.4792 157.362 42.9312C158.266 43.4409 159.17 43.9252 160.103 44.4077C160.404 44.559 160.735 44.7085 161.038 44.8903C161.52 45.1316 162.032 45.3729 162.514 45.6142C163.177 45.9149 163.874 46.2462 164.564 46.5181C164.864 46.3669 165.167 46.2174 165.437 46.0661C166.31 45.613 167.154 45.1599 167.967 44.7068C167.298 44.4587 166.574 44.1631 165.882 43.8623ZM173.625 46.6031C173.285 46.513 172.963 46.423 172.631 46.3023C172.028 46.6931 171.427 47.055 170.823 47.417C170.314 47.7177 169.768 48.0202 169.257 48.3209C169.678 48.4722 170.106 48.6217 170.523 48.7423C171.306 49.0142 172.12 49.2521 172.932 49.4662L173.083 49.4968C174.228 48.8035 175.343 48.0802 176.427 47.3269C175.491 47.114 174.557 46.8732 173.624 46.6048L173.625 46.6031ZM173.625 46.6031C173.285 46.513 172.963 46.423 172.631 46.3023C172.028 46.6931 171.427 47.055 170.823 47.417C170.314 47.7177 169.768 48.0202 169.257 48.3209C169.678 48.4722 170.106 48.6217 170.523 48.7423C171.306 49.0142 172.12 49.2521 172.932 49.4662L173.083 49.4968C174.228 48.8035 175.343 48.0802 176.427 47.3269C175.491 47.114 174.557 46.8732 173.624 46.6048L173.625 46.6031ZM173.625 46.6031C173.285 46.513 172.963 46.423 172.631 46.3023C172.028 46.6931 171.427 47.055 170.823 47.417C170.314 47.7177 169.768 48.0202 169.257 48.3209C169.678 48.4722 170.106 48.6217 170.523 48.7423C171.306 49.0142 172.12 49.2521 172.932 49.4662L173.083 49.4968C174.228 48.8035 175.343 48.0802 176.427 47.3269C175.491 47.114 174.557 46.8732 173.624 46.6048L173.625 46.6031ZM173.625 46.6031C173.285 46.513 172.963 46.423 172.631 46.3023C172.028 46.6931 171.427 47.055 170.823 47.417C170.314 47.7177 169.768 48.0202 169.257 48.3209C169.678 48.4722 170.106 48.6217 170.523 48.7423C171.306 49.0142 172.12 49.2521 172.932 49.4662L173.083 49.4968C174.228 48.8035 175.343 48.0802 176.427 47.3269C175.491 47.114 174.557 46.8732 173.624 46.6048L173.625 46.6031ZM173.625 46.6031C173.285 46.513 172.963 46.423 172.631 46.3023C172.028 46.6931 171.427 47.055 170.823 47.417C170.314 47.7177 169.768 48.0202 169.257 48.3209C169.678 48.4722 170.106 48.6217 170.523 48.7423C171.306 49.0142 172.12 49.2521 172.932 49.4662L173.083 49.4968C174.228 48.8035 175.343 48.0802 176.427 47.3269C175.491 47.114 174.557 46.8732 173.624 46.6048L173.625 46.6031Z" fill="#232323"/>
<path d="M174.703 40.1889C173.829 39.9476 172.985 39.7063 172.111 39.4056C171.87 39.3155 171.602 39.2543 171.359 39.1643C170.635 38.923 169.943 38.6817 169.25 38.4116C168.377 38.0717 167.532 37.7489 166.659 37.3921L166.418 37.302C165.514 36.9112 164.64 36.5187 163.767 36.1279C162.893 35.7065 162.02 35.2783 161.147 34.8331C160.153 34.3233 159.189 33.7779 158.224 33.207C157.32 32.665 156.416 32.1229 155.543 31.5503L154.729 31.0083C153.976 30.4985 153.252 29.9888 152.53 29.479C151.597 28.7858 150.663 28.0625 149.728 27.3092C148.644 26.4052 147.558 25.4707 146.5 24.5378L144.971 23.0918C144.577 24.1229 144.255 25.1801 144.007 26.2557C144.942 27.1291 145.876 27.9736 146.84 28.7858C147.834 29.6353 148.828 30.4424 149.883 31.2258C150.756 31.8884 151.66 32.5511 152.564 33.1543C153.528 33.817 154.493 34.4491 155.487 35.0523C156.336 35.5943 157.205 36.1075 158.078 36.5815C159.012 37.1236 159.976 37.6011 160.939 38.087C161.789 38.5084 162.627 38.9366 163.5 39.3223C164.435 39.7437 165.398 40.1719 166.333 40.527C166.936 40.7683 167.568 41.0096 168.169 41.2509C168.396 41.3447 168.627 41.4252 168.863 41.4921C169.797 41.832 170.761 42.1548 171.724 42.4556C171.747 42.459 171.767 42.4698 171.783 42.4862C172.747 41.8541 173.712 41.2203 174.645 40.5287L174.946 40.318L174.703 40.1889ZM183.198 41.9968C182.235 41.8456 181.241 41.6961 180.276 41.5142C180.004 41.4548 179.734 41.4242 179.493 41.363C178.769 41.9662 178.016 42.5371 177.294 43.1098C177.022 43.3205 176.752 43.5312 176.48 43.713C176.708 43.7777 176.939 43.8282 177.173 43.8642C178.047 44.0749 178.951 44.255 179.824 44.4062L180.306 44.4963C181.301 43.713 182.264 42.8991 183.195 42.0869L183.285 41.9968H183.198ZM183.198 41.9968C182.235 41.8456 181.241 41.6961 180.276 41.5142C180.004 41.4548 179.734 41.4242 179.493 41.363C178.769 41.9662 178.016 42.5371 177.294 43.1098C177.022 43.3205 176.752 43.5312 176.48 43.713C176.708 43.7777 176.939 43.8282 177.173 43.8642C178.047 44.0749 178.951 44.255 179.824 44.4062L180.306 44.4963C181.301 43.713 182.264 42.8991 183.195 42.0869L183.285 41.9968H183.198ZM183.198 41.9968C182.235 41.8456 181.241 41.6961 180.276 41.5142C180.004 41.4548 179.734 41.4242 179.493 41.363C178.769 41.9662 178.016 42.5371 177.294 43.1098C177.022 43.3205 176.752 43.5312 176.48 43.713C176.708 43.7777 176.939 43.8282 177.173 43.8642C178.047 44.0749 178.951 44.255 179.824 44.4062L180.306 44.4963C181.301 43.713 182.264 42.8991 183.195 42.0869L183.285 41.9968H183.198ZM183.198 41.9968C182.235 41.8456 181.241 41.6961 180.276 41.5142C180.004 41.4548 179.734 41.4242 179.493 41.363C178.769 41.9662 178.016 42.5371 177.294 43.1098C177.022 43.3205 176.752 43.5312 176.48 43.713C176.708 43.7777 176.939 43.8282 177.173 43.8642C178.047 44.0749 178.951 44.255 179.824 44.4062L180.306 44.4963C181.301 43.713 182.264 42.8991 183.195 42.0869L183.285 41.9968H183.198ZM183.198 41.9968C182.235 41.8456 181.241 41.6961 180.276 41.5142C180.004 41.4548 179.734 41.4242 179.493 41.363C178.769 41.9662 178.016 42.5371 177.294 43.1098C177.022 43.3205 176.752 43.5312 176.48 43.713C176.708 43.7777 176.939 43.8282 177.173 43.8642C178.047 44.0749 178.951 44.255 179.824 44.4062L180.306 44.4963C181.301 43.713 182.264 42.8991 183.195 42.0869L183.285 41.9968H183.198ZM183.198 41.9968C182.235 41.8456 181.241 41.6961 180.276 41.5142C180.004 41.4548 179.734 41.4242 179.493 41.363C178.769 41.9662 178.016 42.5371 177.294 43.1098C177.022 43.3205 176.752 43.5312 176.48 43.713C176.708 43.7777 176.939 43.8282 177.173 43.8642C178.047 44.0749 178.951 44.255 179.824 44.4062L180.306 44.4963C181.301 43.713 182.264 42.8991 183.195 42.0869L183.285 41.9968H183.198ZM183.198 41.9968C182.235 41.8456 181.241 41.6961 180.276 41.5142C180.004 41.4548 179.734 41.4242 179.493 41.363C178.769 41.9662 178.016 42.5371 177.294 43.1098C177.022 43.3205 176.752 43.5312 176.48 43.713C176.708 43.7777 176.939 43.8282 177.173 43.8642C178.047 44.0749 178.951 44.255 179.824 44.4062L180.306 44.4963C181.301 43.713 182.264 42.8991 183.195 42.0869L183.285 41.9968H183.198ZM183.198 41.9968C182.235 41.8456 181.241 41.6961 180.276 41.5142C180.004 41.4548 179.734 41.4242 179.493 41.363C178.769 41.9662 178.016 42.5371 177.294 43.1098C177.022 43.3205 176.752 43.5312 176.48 43.713C176.708 43.7777 176.939 43.8282 177.173 43.8642C178.047 44.0749 178.951 44.255 179.824 44.4062L180.306 44.4963C181.301 43.713 182.264 42.8991 183.195 42.0869L183.285 41.9968H183.198ZM202.63 42.0274L200.431 42.2993C199.437 42.4199 198.413 42.4794 197.388 42.5405C196.454 42.6 195.519 42.6306 194.586 42.6612C194.104 42.6612 193.592 42.6918 193.11 42.6918C192.6 42.6918 192.116 42.6918 191.603 42.6612C191.331 42.6661 191.059 42.6559 190.789 42.6306L188.831 42.5405C188.169 42.51 187.537 42.4505 186.874 42.3893C186.483 42.7801 186.09 43.142 185.7 43.5346C185.158 44.0443 184.585 44.5541 184.012 45.0638C184.464 45.1233 184.916 45.1845 185.399 45.215C186.272 45.3051 187.117 45.3951 187.99 45.4563L188.352 45.4869C189.256 45.5464 190.16 45.577 191.071 45.6075C191.733 45.6381 192.43 45.6381 193.089 45.6381H194.083C195.018 45.6381 195.92 45.6075 196.855 45.5481C197.874 45.4886 198.904 45.4274 199.898 45.3374L201.495 45.1573C202.61 45.0366 203.725 44.8565 204.839 44.6747C205.206 43.6372 205.518 42.5811 205.774 41.5108C204.778 41.7249 203.718 41.9051 202.634 42.0257L202.63 42.0274ZM174.703 40.1889C173.829 39.9476 172.985 39.7063 172.111 39.4056C171.87 39.3155 171.602 39.2543 171.359 39.1643C170.635 38.923 169.943 38.6817 169.25 38.4116C168.377 38.0717 167.532 37.7489 166.659 37.3921L166.418 37.302C165.514 36.9112 164.64 36.5187 163.767 36.1279C162.893 35.7065 162.02 35.2783 161.147 34.8331C160.153 34.3233 159.189 33.7779 158.224 33.207C157.32 32.665 156.416 32.1229 155.543 31.5503L154.729 31.0083C153.976 30.4985 153.252 29.9888 152.53 29.479C151.597 28.7858 150.663 28.0625 149.728 27.3092C148.644 26.4052 147.558 25.4707 146.5 24.5378L144.971 23.0918C144.828 22.9434 144.677 22.8027 144.519 22.6704C143.887 22.0384 143.283 21.4046 142.68 20.7725C142.251 21.785 141.879 22.8209 141.565 23.8752C142.349 24.6891 143.163 25.4724 143.975 26.254C144.909 27.1274 145.844 27.9719 146.807 28.7841C147.801 29.6336 148.795 30.4407 149.851 31.2241C150.724 31.8867 151.628 32.5494 152.532 33.1526C153.495 33.8153 154.46 34.4474 155.454 35.0506C156.304 35.5926 157.172 36.1058 158.046 36.5798C158.98 37.1219 159.944 37.5994 160.907 38.0853C161.757 38.5067 162.594 38.9349 163.468 39.3206C164.402 39.742 165.366 40.1702 166.3 40.5253C166.903 40.7666 167.536 41.0079 168.137 41.2492C168.363 41.343 168.595 41.4235 168.83 41.4904C169.765 41.8303 170.728 42.1531 171.663 42.4539C171.685 42.4573 171.706 42.4681 171.722 42.4845C172.686 41.8524 173.651 41.2186 174.584 40.527L174.884 40.3163L174.703 40.1889ZM183.198 41.9968C182.235 41.8456 181.241 41.6961 180.276 41.5142C180.004 41.4548 179.734 41.4242 179.493 41.363C178.769 41.9662 178.016 42.5371 177.294 43.1098C177.022 43.3205 176.752 43.5312 176.48 43.713C176.708 43.7777 176.939 43.8282 177.173 43.8642C178.047 44.0749 178.951 44.255 179.824 44.4062L180.306 44.4963C181.301 43.713 182.264 42.8991 183.195 42.0869L183.285 41.9968H183.198ZM183.198 41.9968C182.235 41.8456 181.241 41.6961 180.276 41.5142C180.004 41.4548 179.734 41.4242 179.493 41.363C178.769 41.9662 178.016 42.5371 177.294 43.1098C177.022 43.3205 176.752 43.5312 176.48 43.713C176.708 43.7777 176.939 43.8282 177.173 43.8642C178.047 44.0749 178.951 44.255 179.824 44.4062L180.306 44.4963C181.301 43.713 182.264 42.8991 183.195 42.0869L183.285 41.9968H183.198ZM183.198 41.9968C182.235 41.8456 181.241 41.6961 180.276 41.5142C180.004 41.4548 179.734 41.4242 179.493 41.363C178.769 41.9662 178.016 42.5371 177.294 43.1098C177.022 43.3205 176.752 43.5312 176.48 43.713C176.708 43.7777 176.939 43.8282 177.173 43.8642C178.047 44.0749 178.951 44.255 179.824 44.4062L180.306 44.4963C181.301 43.713 182.264 42.8991 183.195 42.0869L183.285 41.9968H183.198ZM183.198 41.9968C182.235 41.8456 181.241 41.6961 180.276 41.5142C180.004 41.4548 179.734 41.4242 179.493 41.363C178.769 41.9662 178.016 42.5371 177.294 43.1098C177.022 43.3205 176.752 43.5312 176.48 43.713C176.708 43.7777 176.939 43.8282 177.173 43.8642C178.047 44.0749 178.951 44.255 179.824 44.4062L180.306 44.4963C181.301 43.713 182.264 42.8991 183.195 42.0869L183.285 41.9968H183.198ZM183.198 41.9968C182.235 41.8456 181.241 41.6961 180.276 41.5142C180.004 41.4548 179.734 41.4242 179.493 41.363C178.769 41.9662 178.016 42.5371 177.294 43.1098C177.022 43.3205 176.752 43.5312 176.48 43.713C176.708 43.7777 176.939 43.8282 177.173 43.8642C178.047 44.0749 178.951 44.255 179.824 44.4062L180.306 44.4963C181.301 43.713 182.264 42.8991 183.195 42.0869L183.285 41.9968H183.198ZM174.703 40.1889C173.829 39.9476 172.985 39.7063 172.111 39.4056C171.87 39.3155 171.602 39.2543 171.359 39.1643C170.635 38.923 169.943 38.6817 169.25 38.4116C168.377 38.0717 167.532 37.7489 166.659 37.3921L166.418 37.302C165.514 36.9112 164.64 36.5187 163.767 36.1279C162.893 35.7065 162.02 35.2783 161.147 34.8331C160.153 34.3233 159.189 33.7779 158.224 33.207C157.32 32.665 156.416 32.1229 155.543 31.5503L154.729 31.0083C153.976 30.4985 153.252 29.9888 152.53 29.479C151.597 28.7858 150.663 28.0625 149.728 27.3092C148.644 26.4052 147.558 25.4707 146.5 24.5378L144.971 23.0918C144.577 24.1229 144.255 25.1801 144.007 26.2557C144.942 27.1291 145.876 27.9736 146.84 28.7858C147.834 29.6353 148.828 30.4424 149.883 31.2258C150.756 31.8884 151.66 32.5511 152.564 33.1543C153.528 33.817 154.493 34.4491 155.487 35.0523C156.336 35.5943 157.205 36.1075 158.078 36.5815C159.012 37.1236 159.976 37.6011 160.939 38.087C161.789 38.5084 162.627 38.9366 163.5 39.3223C164.435 39.7437 165.398 40.1719 166.333 40.527C166.936 40.7683 167.568 41.0096 168.169 41.2509C168.396 41.3447 168.627 41.4252 168.863 41.4921C169.797 41.832 170.761 42.1548 171.724 42.4556C171.747 42.459 171.767 42.4698 171.783 42.4862C172.747 41.8541 173.712 41.2203 174.645 40.5287L174.946 40.318L174.703 40.1889ZM183.198 41.9968C182.235 41.8456 181.241 41.6961 180.276 41.5142C180.004 41.4548 179.734 41.4242 179.493 41.363C178.769 41.9662 178.016 42.5371 177.294 43.1098C177.022 43.3205 176.752 43.5312 176.48 43.713C176.708 43.7777 176.939 43.8282 177.173 43.8642C178.047 44.0749 178.951 44.255 179.824 44.4062L180.306 44.4963C181.301 43.713 182.264 42.8991 183.195 42.0869L183.285 41.9968H183.198ZM174.703 40.1889C173.829 39.9476 172.985 39.7063 172.111 39.4056C171.87 39.3155 171.602 39.2543 171.359 39.1643C170.635 38.923 169.943 38.6817 169.25 38.4116C168.377 38.0717 167.532 37.7489 166.659 37.3921L166.418 37.302C165.514 36.9112 164.64 36.5187 163.767 36.1279C162.893 35.7065 162.02 35.2783 161.147 34.8331C160.153 34.3233 159.189 33.7779 158.224 33.207C157.32 32.665 156.416 32.1229 155.543 31.5503L154.729 31.0083C153.976 30.4985 153.252 29.9888 152.53 29.479C151.597 28.7858 150.663 28.0625 149.728 27.3092C148.644 26.4052 147.558 25.4707 146.5 24.5378L144.971 23.0918C144.577 24.1229 144.255 25.1801 144.007 26.2557C144.942 27.1291 145.876 27.9736 146.84 28.7858C147.834 29.6353 148.828 30.4424 149.883 31.2258C150.756 31.8884 151.66 32.5511 152.564 33.1543C153.528 33.817 154.493 34.4491 155.487 35.0523C156.336 35.5943 157.205 36.1075 158.078 36.5815C159.012 37.1236 159.976 37.6011 160.939 38.087C161.789 38.5084 162.627 38.9366 163.5 39.3223C164.435 39.7437 165.398 40.1719 166.333 40.527C166.936 40.7683 167.568 41.0096 168.169 41.2509C168.396 41.3447 168.627 41.4252 168.863 41.4921C169.797 41.832 170.761 42.1548 171.724 42.4556C171.747 42.459 171.767 42.4698 171.783 42.4862C172.747 41.8541 173.712 41.2203 174.645 40.5287L174.946 40.318L174.703 40.1889ZM183.198 41.9968C182.235 41.8456 181.241 41.6961 180.276 41.5142C180.004 41.4548 179.734 41.4242 179.493 41.363C178.769 41.9662 178.016 42.5371 177.294 43.1098C177.022 43.3205 176.752 43.5312 176.48 43.713C176.708 43.7777 176.939 43.8282 177.173 43.8642C178.047 44.0749 178.951 44.255 179.824 44.4062L180.306 44.4963C181.301 43.713 182.264 42.8991 183.195 42.0869L183.285 41.9968H183.198Z" fill="#232323"/>
<path d="M186.576 36.0618C186.185 36.0024 185.793 35.9412 185.371 35.8817C185.071 36.2215 184.739 36.5444 184.437 36.8451C184.196 37.0864 183.927 37.3277 183.684 37.5979C183.383 37.8986 183.081 38.1705 182.78 38.4475C183.052 38.5069 183.322 38.5375 183.594 38.5987C184.498 38.7499 185.433 38.8994 186.335 39.0201H186.455C187.329 38.1467 188.173 37.2428 189.016 36.3388L186.576 36.0618ZM186.576 36.0618C186.185 36.0024 185.793 35.9412 185.371 35.8817C185.071 36.2215 184.739 36.5444 184.437 36.8451C184.196 37.0864 183.927 37.3277 183.684 37.5979C183.383 37.8986 183.081 38.1705 182.78 38.4475C183.052 38.5069 183.322 38.5375 183.594 38.5987C184.498 38.7499 185.433 38.8994 186.335 39.0201H186.455C187.329 38.1467 188.173 37.2428 189.016 36.3388L186.576 36.0618ZM186.576 36.0618C186.185 36.0024 185.793 35.9412 185.371 35.8817C185.071 36.2215 184.739 36.5444 184.437 36.8451C184.196 37.0864 183.927 37.3277 183.684 37.5979C183.383 37.8986 183.081 38.1705 182.78 38.4475C183.052 38.5069 183.322 38.5375 183.594 38.5987C184.498 38.7499 185.433 38.8994 186.335 39.0201H186.455C187.329 38.1467 188.173 37.2428 189.016 36.3388L186.576 36.0618ZM186.576 36.0618C186.185 36.0024 185.793 35.9412 185.371 35.8817C185.071 36.2215 184.739 36.5444 184.437 36.8451C184.196 37.0864 183.927 37.3277 183.684 37.5979C183.383 37.8986 183.081 38.1705 182.78 38.4475C183.052 38.5069 183.322 38.5375 183.594 38.5987C184.498 38.7499 185.433 38.8994 186.335 39.0201H186.455C187.329 38.1467 188.173 37.2428 189.016 36.3388L186.576 36.0618ZM186.576 36.0618C186.185 36.0024 185.793 35.9412 185.371 35.8817C185.071 36.2215 184.739 36.5444 184.437 36.8451C184.196 37.0864 183.927 37.3277 183.684 37.5979C183.383 37.8986 183.081 38.1705 182.78 38.4475C183.052 38.5069 183.322 38.5375 183.594 38.5987C184.498 38.7499 185.433 38.8994 186.335 39.0201H186.455C187.329 38.1467 188.173 37.2428 189.016 36.3388L186.576 36.0618ZM186.576 36.0618C186.185 36.0024 185.793 35.9412 185.371 35.8817C185.071 36.2215 184.739 36.5444 184.437 36.8451C184.196 37.0864 183.927 37.3277 183.684 37.5979C183.383 37.8986 183.081 38.1705 182.78 38.4475C183.052 38.5069 183.322 38.5375 183.594 38.5987C184.498 38.7499 185.433 38.8994 186.335 39.0201H186.455C187.329 38.1467 188.173 37.2428 189.016 36.3388L186.576 36.0618ZM203.748 36.1825L201.067 36.4543C200.073 36.5138 199.079 36.575 198.085 36.6056C197.361 36.6362 196.669 36.6361 195.945 36.6361H195.283C194.289 36.6361 193.295 36.6056 192.33 36.5461H192.24C191.456 37.5095 190.673 38.4441 189.83 39.348C190.554 39.4075 191.307 39.4687 192.059 39.4992C192.569 39.5298 193.079 39.5587 193.589 39.5587C194.071 39.5587 194.552 39.5893 195.035 39.5893H195.758C196.452 39.5893 197.145 39.5893 197.837 39.5587C198.831 39.5281 199.825 39.4687 200.819 39.4075C201.668 39.348 202.506 39.2869 203.349 39.1968C204.368 39.0762 205.398 38.9555 206.421 38.806C206.572 37.812 206.693 36.7874 206.761 35.7628C205.736 35.9412 204.742 36.0924 203.748 36.1825ZM186.576 36.0618C186.185 36.0024 185.793 35.9412 185.371 35.8817C185.071 36.2215 184.739 36.5444 184.437 36.8451C184.196 37.0864 183.927 37.3277 183.684 37.5979C183.383 37.8986 183.081 38.1705 182.78 38.4475C183.052 38.5069 183.322 38.5375 183.594 38.5987C184.498 38.7499 185.433 38.8994 186.335 39.0201H186.455C187.329 38.1467 188.173 37.2428 189.016 36.3388L186.576 36.0669V36.0618ZM186.576 36.0618C186.185 36.0024 185.793 35.9412 185.371 35.8817C185.071 36.2215 184.739 36.5444 184.437 36.8451C184.196 37.0864 183.927 37.3277 183.684 37.5979C183.383 37.8986 183.081 38.1705 182.78 38.4475C183.052 38.5069 183.322 38.5375 183.594 38.5987C184.498 38.7499 185.433 38.8994 186.335 39.0201H186.455C187.329 38.1467 188.173 37.2428 189.016 36.3388L186.576 36.0669V36.0618ZM186.576 36.0618C186.185 36.0024 185.793 35.9412 185.371 35.8817C185.071 36.2215 184.739 36.5444 184.437 36.8451C184.196 37.0864 183.927 37.3277 183.684 37.5979C183.383 37.8986 183.081 38.1705 182.78 38.4475C183.052 38.5069 183.322 38.5375 183.594 38.5987C184.498 38.7499 185.433 38.8994 186.335 39.0201H186.455C187.329 38.1467 188.173 37.2428 189.016 36.3388L186.576 36.0669V36.0618ZM186.576 36.0618C186.185 36.0024 185.793 35.9412 185.371 35.8817C185.071 36.2215 184.739 36.5444 184.437 36.8451C184.196 37.0864 183.927 37.3277 183.684 37.5979C183.383 37.8986 183.081 38.1705 182.78 38.4475C183.052 38.5069 183.322 38.5375 183.594 38.5987C184.498 38.7499 185.433 38.8994 186.335 39.0201H186.455C187.329 38.1467 188.173 37.2428 189.016 36.3388L186.576 36.0669V36.0618ZM186.576 36.0618C186.185 36.0024 185.793 35.9412 185.371 35.8817C185.071 36.2215 184.739 36.5444 184.437 36.8451C184.196 37.0864 183.927 37.3277 183.684 37.5979C183.383 37.8986 183.081 38.1705 182.78 38.4475C183.052 38.5069 183.322 38.5375 183.594 38.5987C184.498 38.7499 185.433 38.8994 186.335 39.0201H186.455C187.329 38.1467 188.173 37.2428 189.016 36.3388L186.576 36.0669V36.0618ZM186.576 36.0618C186.185 36.0024 185.793 35.9412 185.371 35.8817C185.071 36.2215 184.739 36.5444 184.437 36.8451C184.196 37.0864 183.927 37.3277 183.684 37.5979C183.383 37.8986 183.081 38.1705 182.78 38.4475C183.052 38.5069 183.322 38.5375 183.594 38.5987C184.498 38.7499 185.433 38.8994 186.335 39.0201H186.455C187.329 38.1467 188.173 37.2428 189.016 36.3388L186.576 36.0669V36.0618ZM186.576 36.0618C186.185 36.0024 185.793 35.9412 185.371 35.8817C185.071 36.2215 184.739 36.5444 184.437 36.8451C184.196 37.0864 183.927 37.3277 183.684 37.5979C183.383 37.8986 183.081 38.1705 182.78 38.4475C183.052 38.5069 183.322 38.5375 183.594 38.5987C184.498 38.7499 185.433 38.8994 186.335 39.0201H186.455C187.329 38.1467 188.173 37.2428 189.016 36.3388L186.576 36.0669V36.0618ZM186.576 36.0618C186.185 36.0024 185.793 35.9412 185.371 35.8817C185.071 36.2215 184.739 36.5444 184.437 36.8451C184.196 37.0864 183.927 37.3277 183.684 37.5979C183.383 37.8986 183.081 38.1705 182.78 38.4475C183.052 38.5069 183.322 38.5375 183.594 38.5987C184.498 38.7499 185.433 38.8994 186.335 39.0201H186.455C187.329 38.1467 188.173 37.2428 189.016 36.3388L186.576 36.0669V36.0618ZM192.24 36.5716C191.456 37.535 190.673 38.4696 189.83 39.3735C190.554 39.433 191.307 39.4942 192.059 39.5247C192.18 38.5307 192.239 37.5673 192.331 36.5733L192.24 36.5716ZM180.882 35.0423C179.948 34.8316 179.013 34.6209 178.111 34.3797L177.749 34.2896C176.876 34.0483 176.031 33.807 175.158 33.5369C174.254 33.265 173.38 32.9642 172.476 32.6329C171.482 32.271 170.488 31.8802 169.525 31.4877L169.015 31.277C168.291 30.9762 167.539 30.6449 166.817 30.3135C165.797 29.831 164.798 29.3501 163.804 28.837C162.869 28.3544 161.935 27.8429 161.032 27.3077C159.977 26.6756 158.924 26.0418 157.899 25.3503C157.701 25.2303 157.51 25.0999 157.327 24.9594C156.543 24.4174 155.76 23.8754 155.007 23.3333C153.862 22.4838 152.747 21.6155 151.633 20.6826C150.549 19.7764 149.494 18.8424 148.469 17.8807C148.258 17.67 148.047 17.4899 147.837 17.2775C147.595 17.0362 147.354 16.8255 147.144 16.5842C146.661 16.1017 146.18 15.6208 145.728 15.1077L145.065 16.1272C145.307 17.2112 145.548 18.297 145.759 19.3811C145.939 19.5612 146.149 19.743 146.331 19.9231C147.266 20.8271 148.26 21.7004 149.254 22.5432C150.217 23.3571 151.182 24.1404 152.207 24.9221C153.232 25.7037 154.285 26.4513 155.371 27.2108C156.275 27.8429 157.208 28.4461 158.142 29.0188C159.136 29.622 160.13 30.2235 161.155 30.7655C162.028 31.2481 162.932 31.7289 163.836 32.1809C164.8 32.6635 165.794 33.1155 166.789 33.5674C167.663 33.9583 168.536 34.3202 169.44 34.6821C170.403 35.0729 171.369 35.4059 172.363 35.7662C173.212 36.0669 174.08 36.3388 174.923 36.6158L174.983 36.6463C175.946 36.9471 176.911 37.219 177.905 37.4602L178.447 37.6115C179.261 36.9488 180.045 36.2861 180.797 35.5623L181.188 35.2004L180.882 35.0423ZM180.882 35.0423C179.948 34.8316 179.013 34.6209 178.111 34.3797L177.749 34.2896C176.876 34.0483 176.031 33.807 175.158 33.5369C174.254 33.265 173.38 32.9642 172.476 32.6329C171.482 32.271 170.488 31.8802 169.525 31.4877L169.015 31.277C168.291 30.9762 167.539 30.6449 166.817 30.3135C165.797 29.831 164.798 29.3501 163.804 28.837C162.869 28.3544 161.935 27.8429 161.032 27.3077C159.977 26.6756 158.924 26.0418 157.899 25.3503C157.701 25.2303 157.51 25.0999 157.327 24.9594C156.543 24.4174 155.76 23.8754 155.007 23.3333C153.862 22.4838 152.747 21.6155 151.633 20.6826C150.549 19.7764 149.494 18.8424 148.469 17.8807C148.258 17.67 148.047 17.4899 147.837 17.2775C147.595 17.0362 147.354 16.8255 147.144 16.5842C146.661 16.1017 146.18 15.6208 145.728 15.1077L145.065 16.1272C144.726 16.6692 144.433 17.2112 144.131 17.7533L145.757 19.3794C145.937 19.5595 146.148 19.7413 146.33 19.9214C147.264 20.8254 148.258 21.6987 149.252 22.5415C150.216 23.3554 151.181 24.1387 152.205 24.9204C153.23 25.702 154.283 26.4496 155.369 27.2091C156.273 27.8412 157.206 28.4444 158.141 29.0171C159.135 29.6203 160.129 30.2218 161.153 30.7638C162.027 31.2464 162.93 31.7272 163.834 32.1792C164.798 32.6618 165.792 33.1138 166.788 33.5657C167.661 33.9566 168.534 34.3185 169.438 34.6804C170.402 35.0712 171.367 35.4042 172.361 35.7645C173.21 36.0652 174.079 36.3371 174.922 36.6141L174.981 36.6446C175.944 36.9454 176.91 37.2173 177.904 37.4585L178.446 37.6098C179.26 36.9471 180.043 36.2844 180.796 35.5606L181.186 35.1986L180.882 35.0423ZM180.882 35.0423C179.948 34.8316 179.013 34.6209 178.111 34.3797L177.749 34.2896C176.876 34.0483 176.031 33.807 175.158 33.5369C174.254 33.265 173.38 32.9642 172.476 32.6329C171.482 32.271 170.488 31.8802 169.525 31.4877L169.015 31.277C168.291 30.9762 167.539 30.6449 166.817 30.3135C165.797 29.831 164.798 29.3501 163.804 28.837C162.869 28.3544 161.935 27.8429 161.032 27.3077C159.977 26.6756 158.924 26.0418 157.899 25.3503C157.701 25.2303 157.51 25.0999 157.327 24.9594C156.543 24.4174 155.76 23.8754 155.007 23.3333C153.862 22.4838 152.747 21.6155 151.633 20.6826C150.549 19.7764 149.494 18.8424 148.469 17.8807C148.258 17.67 148.047 17.4899 147.837 17.2775C147.595 17.0362 147.354 16.8255 147.144 16.5842C146.661 16.1017 146.18 15.6208 145.728 15.1077L145.065 16.1272C145.307 17.2112 145.548 18.297 145.759 19.3811C145.939 19.5612 146.149 19.743 146.331 19.9231C147.266 20.8271 148.26 21.7004 149.254 22.5432C150.217 23.3571 151.182 24.1404 152.207 24.9221C153.232 25.7037 154.285 26.4513 155.371 27.2108C156.275 27.8429 157.208 28.4461 158.142 29.0188C159.136 29.622 160.13 30.2235 161.155 30.7655C162.028 31.2481 162.932 31.7289 163.836 32.1809C164.8 32.6635 165.794 33.1155 166.789 33.5674C167.663 33.9583 168.536 34.3202 169.44 34.6821C170.403 35.0729 171.369 35.4059 172.363 35.7662C173.212 36.0669 174.08 36.3388 174.923 36.6158L174.983 36.6463C175.946 36.9471 176.911 37.219 177.905 37.4602L178.447 37.6115C179.261 36.9488 180.045 36.2861 180.797 35.5623L181.188 35.2004L180.882 35.0423ZM145.123 16.083L145.786 15.0635C145.545 15.4033 145.334 15.7567 145.123 16.083Z" fill="#232323"/>
<path d="M176.455 43.6823C175.731 44.1921 175.009 44.7375 174.285 45.2116C174.133 45.2944 173.991 45.3954 173.863 45.5123C173.804 45.8742 173.712 46.2362 173.622 46.5964C173.411 47.5598 173.17 48.5249 172.929 49.485C172.929 49.5444 172.898 49.575 172.898 49.6362L173.078 49.5156C174.224 48.8223 175.338 48.099 176.422 47.3457H176.484V47.2862C176.725 46.141 176.966 44.9975 177.146 43.8216C177.177 43.5498 177.236 43.3119 177.267 43.0383C177.011 43.2716 176.74 43.4868 176.455 43.6823ZM171.665 53.7074C171.213 55.0939 170.701 56.4788 170.135 57.8347C170.015 58.1066 169.925 58.3767 169.796 58.6486C169.133 60.2152 168.409 61.7513 167.627 63.2873C167.145 64.1913 166.664 65.0953 166.151 66.006C167.174 66.2475 168.21 66.4285 169.254 66.548C169.763 65.6135 170.247 64.679 170.73 63.7461C172.021 61.1576 173.149 58.4902 174.105 55.76C174.587 54.3446 175.039 52.9275 175.464 51.4815C174.198 52.2648 172.934 53.0107 171.668 53.7108L171.665 53.7074ZM172.145 3.18937C171.724 2.22594 171.272 1.26081 170.82 0.300781C169.765 0.390837 168.742 0.511478 167.718 0.691591C168.2 1.59555 168.621 2.53009 169.077 3.46294C169.349 4.03556 169.587 4.60818 169.83 5.1808C173.415 13.6328 175.249 22.7243 175.219 31.9054C175.219 32.4474 175.219 32.9605 175.189 33.5026C175.158 34.4966 175.129 35.4906 175.068 36.4846V36.5441C174.978 37.7488 174.888 38.9535 174.737 40.1599C174.737 40.25 174.706 40.34 174.706 40.4607L175.007 40.25C176.001 39.5261 176.995 38.7734 177.929 37.9901C177.96 37.7794 177.96 37.5687 177.991 37.358C178.05 36.364 178.111 35.3394 178.142 34.3454V33.924C178.172 33.2613 178.172 32.5646 178.172 31.9054C178.155 22.0213 176.103 12.2466 172.145 3.18937Z" fill="#232323"/>
<path d="M169.255 48.3214C168.623 48.6834 167.96 49.0147 167.326 49.3409C166.995 50.6357 166.604 51.9322 166.181 53.1964C167.417 52.6237 168.621 51.9916 169.826 51.3579C170.067 50.4845 170.309 49.6111 170.519 48.7071C170.64 48.2552 170.73 47.8338 170.82 47.3818C170.309 47.7182 169.766 48.0207 169.255 48.3214ZM171.364 39.1629C170.64 38.9216 169.948 38.6803 169.255 38.4102C169.196 39.1629 169.104 39.9394 169.014 40.699C168.983 40.9402 168.954 41.1815 168.924 41.4517C168.772 42.4712 168.623 43.5009 168.441 44.4949C169.586 43.8628 170.67 43.1696 171.785 42.4763V42.4168C171.936 41.4222 172.056 40.4282 172.147 39.4348L172.237 38.6209C171.897 38.801 171.634 38.9828 171.364 39.1629ZM165.587 56.6644C165.345 56.7544 165.104 56.8751 164.834 56.9651C164.623 57.5377 164.382 58.1104 164.14 58.6524C163.84 59.3762 163.537 60.0678 163.206 60.7611C163.026 61.123 162.866 61.4849 162.696 61.8757C162.275 62.7797 161.823 63.6531 161.337 64.5264C162.271 64.8884 163.206 65.2197 164.169 65.4899C164.652 64.6165 165.104 63.7125 165.529 62.8086C166.101 61.6344 166.613 60.4297 167.126 59.2233C167.668 57.9286 168.145 56.6321 168.603 55.3152C167.598 55.7621 166.599 56.2141 165.58 56.6661L165.587 56.6644ZM166.822 3.91361C166.431 2.97907 166.008 2.07511 165.587 1.17285C164.623 1.41413 163.658 1.6826 162.698 2.02244C163.119 2.9264 163.548 3.83035 163.933 4.74111C163.993 4.92122 164.084 5.08094 164.144 5.25086C167.671 13.5612 169.505 22.492 169.537 31.52V31.972C169.537 32.876 169.506 33.7799 169.478 34.6907C170.441 35.0815 171.406 35.4145 172.4 35.7748C172.46 34.7553 172.49 33.7256 172.49 32.6721V31.9635C172.521 22.3259 170.59 12.7828 166.815 3.91531L166.822 3.91361Z" fill="#232323"/>
<path d="M166.846 30.276C166.669 21.7791 164.965 13.3833 161.814 5.49016C161.452 4.55561 161.062 3.65165 160.669 2.77148C159.765 3.16229 158.861 3.58539 157.988 4.03737C158.168 4.42818 158.328 4.82068 158.498 5.21149C158.708 5.72124 158.919 6.26668 159.13 6.77813C161.912 13.8041 163.491 21.2488 163.799 28.7994C163.858 29.8546 163.858 30.8775 163.858 31.9326V32.1433C164.822 32.6259 165.816 33.0779 166.812 33.5299C166.812 32.9878 166.842 32.4747 166.842 31.9326L166.846 30.276ZM164.467 43.2593C163.984 43.0486 163.532 42.8379 163.051 42.6272C162.961 43.1098 162.9 43.6212 162.81 44.1038C162.72 44.6136 162.63 45.1233 162.509 45.6331L162.057 47.7111C162.907 47.3203 163.745 46.9584 164.558 46.537C164.859 46.3858 165.131 46.2363 165.432 46.085C165.583 45.3612 165.733 44.6085 165.853 43.8557C165.943 43.3732 166.004 42.8923 166.095 42.3791C165.549 42.6884 165.007 42.9892 164.465 43.261L164.467 43.2593ZM166.424 37.2952C165.551 36.9044 164.647 36.5119 163.774 36.1211C163.714 37.1763 163.622 38.2298 163.502 39.2544C164.436 39.6758 165.4 40.104 166.334 40.4591C166.455 39.4396 166.545 38.4099 166.635 37.387L166.424 37.2952ZM162.628 51.5683C162.025 51.8095 161.424 52.0508 160.851 52.2921C160.489 53.4968 160.068 54.7015 159.616 55.9079C160.851 55.4866 162.056 55.0346 163.231 54.5214C163.622 53.2861 164.015 52.0508 164.346 50.8155C163.765 51.0636 163.199 51.3338 162.627 51.5751L162.628 51.5683Z" fill="#232323"/>
<path d="M157.806 39.7967C157.685 40.8519 157.534 41.9054 157.384 42.9606C157.174 44.2265 156.932 45.4618 156.661 46.6988C156.419 47.844 156.118 48.9875 155.811 50.1328C156.956 49.742 158.071 49.3495 159.185 48.8975C159.457 47.7234 159.728 46.5781 159.938 45.3734C159.998 45.0727 160.059 44.7413 160.118 44.41C160.298 43.3905 160.458 42.3608 160.601 41.3073C159.644 40.8515 158.711 40.3474 157.806 39.7967ZM158.227 33.17C158.197 34.2846 158.168 35.3993 158.076 36.5139C159.01 37.056 159.974 37.5334 160.937 38.0194C161.027 36.9642 161.089 35.8801 161.148 34.791C160.156 34.2846 159.191 33.7409 158.227 33.17ZM161.06 27.2654C160.639 20.6873 159.31 14.1991 157.112 7.98486C156.773 7.02143 156.419 6.08689 156.057 5.15234C155.184 5.69438 154.37 6.267 153.556 6.8702C153.947 7.83363 154.28 8.79876 154.611 9.79278C156.326 14.8267 157.448 20.0432 157.955 25.3368C158.076 26.5415 158.166 27.7768 158.197 29.0121C159.191 29.6153 160.185 30.2168 161.209 30.7588C161.18 29.5847 161.119 28.4089 161.06 27.2654Z" fill="#232323"/>
<path d="M154.221 37.5388C153.618 37.148 153.047 36.7249 152.474 36.3035C152.415 37.4487 152.294 38.5923 152.173 39.7018C151.839 42.7063 151.305 45.6853 150.576 48.6191C150.304 49.7337 150.003 50.8178 149.672 51.9036C150.787 51.6317 151.901 51.331 153.016 51.0302C153.317 49.9155 153.589 48.8009 153.866 47.6862C154.318 45.6676 154.68 43.6184 154.98 41.5097C155.132 40.4257 155.252 39.3399 155.342 38.2253C154.954 38.0213 154.579 37.7919 154.221 37.5388ZM155.546 31.5135L154.732 30.9715C153.98 30.4617 153.256 29.952 152.534 29.4422C152.564 30.2918 152.593 31.1295 152.593 31.9434V33.0887C153.556 33.7513 154.522 34.3834 155.516 34.9866C155.546 33.9926 155.575 32.968 155.575 31.9434C155.551 31.8021 155.541 31.6585 155.548 31.5152L155.546 31.5135ZM155.036 23.2895C154.554 19.3019 153.738 15.3619 152.596 11.5109C152.296 10.4557 151.964 9.4328 151.602 8.4082C150.789 9.13092 150.006 9.88422 149.252 10.6681C149.614 11.7828 149.945 12.8974 150.246 14.0121C150.849 16.1929 151.332 18.4051 151.692 20.6388C151.934 22.0542 152.114 23.4714 152.265 24.8868C153.285 25.6701 154.343 26.416 155.429 27.1755C155.307 25.8791 155.186 24.5843 155.028 23.2878L155.036 23.2895Z" fill="#232323"/>
<path d="M147.201 16.5396C146.719 16.057 146.238 15.5761 145.786 15.063L145.123 16.0825C145.365 17.1666 145.606 18.2523 145.817 19.3364C145.907 19.7578 145.968 20.186 146.058 20.6312L146.42 19.9073C146.875 18.9976 147.378 18.1128 147.927 17.2566C147.653 16.9915 147.414 16.7723 147.201 16.5396ZM147.201 16.5396C146.719 16.057 146.238 15.5761 145.786 15.063L145.123 16.0825C145.365 17.1666 145.606 18.2523 145.817 19.3364C145.907 19.7578 145.968 20.186 146.058 20.6312L146.42 19.9073C146.875 18.9976 147.378 18.1128 147.927 17.2566C147.653 16.9915 147.414 16.7723 147.201 16.5396ZM147.201 16.5396C146.719 16.057 146.238 15.5761 145.786 15.063L145.123 16.0825C145.365 17.1666 145.606 18.2523 145.817 19.3364C145.907 19.7578 145.968 20.186 146.058 20.6312L146.42 19.9073C146.875 18.9976 147.378 18.1128 147.927 17.2566C147.653 16.9915 147.414 16.7723 147.201 16.5396ZM148.527 17.8343C148.437 17.4435 148.376 17.0204 148.285 16.6296C148.014 15.3637 147.713 14.1284 147.351 12.8643C146.778 13.5575 146.267 14.3103 145.754 15.063L145.091 16.0825C145.332 17.1666 145.574 18.2523 145.784 19.3364C145.874 19.7578 145.935 20.186 146.026 20.6312L146.387 19.9073C147.322 20.8113 148.316 21.6847 149.31 22.5274C149.099 20.9302 148.828 19.3636 148.527 17.8275V17.8343ZM147.201 16.5396C146.719 16.057 146.238 15.5761 145.786 15.063L145.123 16.0825C145.365 17.1666 145.606 18.2523 145.817 19.3364C145.907 19.7578 145.968 20.186 146.058 20.6312L146.42 19.9073C146.875 18.9976 147.378 18.1128 147.927 17.2566C147.653 16.9915 147.414 16.7723 147.201 16.5396ZM147.201 16.5396C146.719 16.057 146.238 15.5761 145.786 15.063L145.123 16.0825C145.365 17.1666 145.606 18.2523 145.817 19.3364C145.907 19.7578 145.968 20.186 146.058 20.6312L146.42 19.9073C146.875 18.9976 147.378 18.1128 147.927 17.2566C147.653 16.9915 147.414 16.7723 147.201 16.5396ZM145.815 19.3415C145.905 19.7629 145.966 20.1911 146.056 20.6363L146.418 19.9124C146.179 19.7034 145.997 19.5216 145.817 19.3415H145.815ZM145.815 19.3415C145.905 19.7629 145.966 20.1911 146.056 20.6363L146.418 19.9124C146.179 19.7034 145.997 19.5216 145.817 19.3415H145.815ZM147.201 16.5396C146.719 16.057 146.238 15.5761 145.786 15.063C145.575 15.4028 145.334 15.7257 145.123 16.0825C145.365 17.1666 145.606 18.2523 145.817 19.3364C145.907 19.7578 145.968 20.186 146.058 20.6312L146.42 19.9073C146.875 18.9976 147.378 18.1128 147.927 17.2566C147.653 16.9915 147.414 16.7723 147.201 16.5396ZM149.762 27.2647C148.678 26.3608 147.592 25.4262 146.534 24.4934C146.685 25.9088 146.805 27.3259 146.873 28.7413C147.867 29.5909 148.861 30.398 149.917 31.1813C149.883 29.8254 149.849 28.5289 149.762 27.2647ZM146.96 31.9035V31.9341C146.96 33.1999 146.93 34.4641 146.87 35.6994C146.7 38.9889 146.287 42.2614 145.635 45.49C145.334 46.9955 145.003 48.4721 144.58 49.9487V50.0081C145.096 50.9203 145.659 51.805 146.267 52.6588C146.418 52.8695 146.568 53.0802 146.719 53.262C146.809 53.0208 146.87 52.7795 146.96 52.5093C147.261 51.5147 147.533 50.5207 147.774 49.5273C147.805 49.4372 147.805 49.376 147.833 49.286C148.773 45.5499 149.398 41.7418 149.703 37.9015C149.793 36.7274 149.883 35.5227 149.913 34.3163C148.889 33.5602 147.895 32.7446 146.96 31.9035ZM147.201 16.5396C146.719 16.057 146.238 15.5761 145.786 15.063C145.575 15.4028 145.334 15.7257 145.123 16.0825C145.365 17.1666 145.606 18.2523 145.817 19.3364C145.907 19.7578 145.968 20.186 146.058 20.6312L146.42 19.9073C146.875 18.9976 147.378 18.1128 147.927 17.2566C147.655 16.9847 147.417 16.7741 147.203 16.5328L147.201 16.5396ZM145.815 19.3415C145.905 19.7629 145.966 20.1911 146.056 20.6363L146.418 19.9124C146.179 19.7034 145.997 19.5216 145.817 19.3415H145.815Z" fill="#232323"/>
<path d="M182.777 38.4406C181.994 39.1645 181.21 39.8866 180.398 40.5799C180.368 40.8806 180.308 41.212 180.278 41.5144C180.126 42.4779 179.977 43.4719 179.795 44.437L179.705 44.979C179.885 44.8278 180.097 44.6783 180.278 44.5271C181.272 43.7437 182.235 42.9298 183.166 42.1176V42.0276C183.317 40.9129 183.467 39.7677 183.557 38.6292L183.647 37.6352C183.382 37.868 183.081 38.1688 182.777 38.4406ZM180.247 48.1718C179.737 48.5626 179.228 48.9245 178.718 49.2864C178.597 49.7962 178.446 50.3059 178.296 50.7919C178.024 51.7859 177.693 52.7799 177.362 53.7451C176.82 55.4018 176.188 57.0296 175.493 58.6557C174.74 60.4024 173.926 62.1509 173.022 63.8364C172.51 64.831 171.968 65.7939 171.396 66.725C172.059 66.7556 172.755 66.7845 173.445 66.7845C173.897 66.7845 174.349 66.7845 174.805 66.7539C175.377 65.7344 175.919 64.7104 176.431 63.6818C178.392 59.7087 179.984 55.564 181.188 51.3C181.222 51.2131 181.242 51.1213 181.248 51.0281C181.489 50.1547 181.7 49.2813 181.91 48.408C182.062 47.7453 182.211 47.0826 182.362 46.3894C181.699 47.0297 180.994 47.6247 180.25 48.1701L180.247 48.1718ZM183.796 28.3476C183.377 19.7835 181.42 11.3647 178.019 3.49379C177.566 2.43917 177.084 1.38456 176.573 0.329937C175.554 0.239881 174.524 0.178711 173.501 0.178711H173.161C173.671 1.17273 174.155 2.16674 174.638 3.16076C174.939 3.82343 175.241 4.48611 175.542 5.17937C179.038 13.4472 180.871 22.3227 180.935 31.299V31.9022C180.935 32.9574 180.905 33.9803 180.876 35.0049C180.88 35.1562 180.87 35.3076 180.845 35.4569L181.236 35.095C182.14 34.2811 183.013 33.4077 183.887 32.5343V31.9022C183.895 30.7281 183.864 29.5523 183.796 28.3476ZM182.777 38.4389C181.994 39.1628 181.21 39.8866 180.398 40.5799C180.368 40.8806 180.308 41.212 180.278 41.5144C180.126 42.4779 179.977 43.4719 179.795 44.437L179.705 44.979C179.885 44.8278 180.097 44.6783 180.278 44.5271C181.272 43.7437 182.235 42.9298 183.166 42.1176V42.0259C183.317 40.9112 183.467 39.766 183.557 38.6275L183.647 37.6352C183.375 37.8765 183.074 38.1756 182.774 38.4474L182.777 38.4389Z" fill="#232323"/>
<path d="M188.986 21.9316C188.179 16.1989 186.682 10.5849 184.527 5.21177C184.017 3.97647 183.508 2.74117 182.93 1.53646C181.703 1.17075 180.454 0.879105 179.192 0.663086C179.764 1.77774 180.306 2.8924 180.789 4.00705C180.969 4.39786 181.129 4.79037 181.299 5.1523C184.012 11.5617 185.731 18.3476 186.396 25.2756C186.517 26.691 186.607 28.1081 186.668 29.5541C187.632 28.47 188.566 27.3554 189.44 26.2101C189.317 24.7913 189.168 23.347 188.986 21.9316ZM184.617 48.804C184.376 49.7674 184.107 50.7325 183.834 51.6926C183.127 54.0583 182.292 56.384 181.333 58.6592C180.67 60.2564 179.917 61.823 179.134 63.3591C178.562 64.4737 177.959 65.5584 177.326 66.613C178.593 66.4679 179.851 66.2466 181.092 65.9503C181.724 64.7762 182.327 63.6004 182.899 62.3651C184.472 59.0082 185.779 55.5329 186.807 51.9712C187.079 51.0078 187.35 50.0427 187.591 49.0487C186.607 49.0147 185.613 48.9195 184.619 48.804H184.617ZM187.389 41.9359L186.906 42.4185C186.515 42.8093 186.123 43.1712 185.732 43.5637C185.642 44.1364 185.521 44.709 185.392 45.251C185.181 46.3062 184.94 47.3597 184.699 48.4149C185.814 47.4803 186.928 46.5169 187.983 45.4923L188.345 45.5229L188.435 45.0709C188.587 44.257 188.736 43.4142 188.857 42.6003C188.977 41.7507 189.098 40.9436 189.197 40.0991C188.624 40.7023 188.022 41.3327 187.389 41.9359ZM189.648 31.0001C188.685 32.2048 187.691 33.3789 186.636 34.5242C186.605 35.0339 186.605 35.5437 186.576 36.0534C186.517 37.0474 186.425 38.0109 186.335 39.0066V39.1578L186.456 39.0372C187.329 38.1638 188.174 37.2598 189.016 36.3559C189.197 36.1452 189.378 35.9345 189.558 35.7527C189.618 34.4868 189.648 33.2515 189.648 31.9873V30.9933V31.0001Z" fill="#232323"/>
<path d="M195.343 28.2595C195.252 26.6028 195.132 24.975 194.921 23.3794C194.258 24.4941 193.562 25.6088 192.812 26.6928C192.661 26.9341 192.481 27.1754 192.303 27.4167C192.393 28.9221 192.454 30.4293 192.454 31.9348V32.2066C193.475 30.9408 194.41 29.6086 195.343 28.2595ZM192.33 36.4529V36.5752C192.27 37.5692 192.179 38.5326 192.058 39.5284C191.968 40.2216 191.878 40.9438 191.786 41.637C192.389 40.9744 192.991 40.2777 193.594 39.5878C194.077 39.5878 194.558 39.6184 195.04 39.6184C195.1 38.9557 195.161 38.2591 195.22 37.5998C195.251 37.2991 195.28 36.9677 195.28 36.6653C195.37 35.2193 195.431 33.7767 195.431 32.3273C194.439 33.7121 193.411 35.0969 192.33 36.4529ZM193.385 14.853C192.933 12.955 192.391 11.1148 191.788 9.27973C191.246 7.68251 190.673 6.11588 190.041 4.57983C188.711 3.82684 187.332 3.16271 185.914 2.5918C186.335 3.46517 186.727 4.33854 187.088 5.21192C187.299 5.69448 187.479 6.17535 187.69 6.65791C189.227 10.5287 190.407 14.5323 191.214 18.6184C191.485 20.0338 191.723 21.4798 191.907 22.9258C192.756 21.7211 193.563 20.4552 194.316 19.1876C194.044 17.7416 193.713 16.265 193.382 14.8496L193.385 14.853ZM192.602 49.2561C191.818 49.2561 191.035 49.2561 190.282 49.2255C190.041 50.2195 189.74 51.183 189.433 52.1481C188.74 54.3468 187.956 56.5167 187.054 58.6559C186.692 59.5055 186.301 60.3738 185.909 61.2166C185.277 62.5759 184.614 63.8673 183.89 65.1637C185.34 64.6798 186.759 64.1061 188.138 63.4459C188.862 61.9404 189.553 60.4333 190.187 58.8666C191.073 56.6882 191.847 54.4662 192.507 52.2093C192.807 51.2458 193.049 50.2518 193.321 49.2561H192.602ZM193.144 42.6888C192.634 42.6888 192.15 42.6888 191.638 42.6582C191.487 43.6523 191.299 44.6157 191.096 45.6114C191.759 45.642 192.456 45.642 193.115 45.642H194.109C194.289 44.648 194.471 43.6845 194.619 42.6599C194.138 42.6922 193.626 42.6922 193.144 42.6922V42.6888Z" fill="#232323"/>
<path d="M201.126 28.7997C201.036 26.9306 200.885 25.1244 200.674 23.2859C199.891 24.912 199.048 26.5143 198.114 28.0436C198.173 29.3384 198.234 30.6348 198.234 31.9296C198.234 32.4394 198.234 32.9491 198.204 33.4589C198.173 34.514 198.144 35.5675 198.052 36.5921C197.992 37.5867 197.902 38.5807 197.781 39.5742C198.775 39.5436 199.769 39.4841 200.763 39.4229C200.853 38.4289 200.943 37.4349 201.004 36.4409C201.094 34.9354 201.155 33.4283 201.155 31.9228C201.186 30.8795 201.157 29.8243 201.126 28.7997ZM196.029 49.1643C195.757 50.1583 195.487 51.1829 195.179 52.1769C194.788 53.4717 194.33 54.7376 193.884 55.9729C193.545 56.8768 193.191 57.7502 192.831 58.6542C192.44 59.6176 191.981 60.5521 191.536 61.5156C193.278 60.3946 194.912 59.1135 196.416 57.689C197.14 55.8199 197.776 53.9237 198.345 51.9951C198.525 51.4225 198.685 50.821 198.827 50.2484C198.948 49.827 199.038 49.375 199.167 48.9536C198.112 49.0437 197.089 49.1337 196.034 49.1643H196.029ZM197.415 42.5664C197.265 43.561 197.084 44.555 196.873 45.5485C197.893 45.489 198.922 45.4278 199.916 45.3378C200.097 44.3437 200.278 43.3191 200.426 42.3251C199.439 42.4118 198.445 42.5069 197.42 42.5681L197.415 42.5664ZM199.945 18.6081C199.704 17.3728 199.463 16.1681 199.162 14.9634C198.891 13.8181 198.59 12.7035 198.258 11.6194C198.199 11.4393 198.137 11.2286 198.078 11.0468L196.121 9.08935C195.271 8.30603 194.403 7.58389 193.5 6.89062C194.073 8.3672 194.615 9.87267 195.098 11.4087L195.46 12.5828C195.76 13.6023 196.032 14.632 196.309 15.6855C196.55 15.2336 196.792 14.7816 197.002 14.3262C197.544 14.9889 198.087 15.6855 198.569 16.4043C198.117 17.4238 197.634 18.4535 197.123 19.4475C197.424 21.0736 197.665 22.6759 197.845 24.3275C198.695 22.8815 199.471 21.4049 200.224 19.8995C200.102 19.4611 200.042 19.0397 199.952 18.6234L199.945 18.6081Z" fill="#232323"/>
</g>
<defs>
<clipPath id="clip0_335_128">
<rect width="206.21" height="67" fill="white" transform="translate(0.790527)"/>
</clipPath>
</defs>
</svg>
