<svg width="118" height="72" viewBox="0 0 118 72" fill="none" xmlns="http://www.w3.org/2000/svg">
<path fill-rule="evenodd" clip-rule="evenodd" d="M112.302 2.80307C112.302 4.3494 113.58 5.60613 115.151 5.60613C116.723 5.60613 118 4.3494 118 2.80307C118 1.25674 116.723 0 115.151 0C113.58 0 112.302 1.25674 112.302 2.80307ZM112.608 2.80307C112.608 1.42066 113.746 0.300524 115.151 0.300524C116.556 0.300524 117.695 1.42066 117.695 2.80307C117.695 4.18547 116.556 5.30561 115.151 5.30561C113.746 5.30561 112.608 4.18547 112.608 2.80307ZM109.748 0.00565011H91.4612H54.8768V17.9988H91.4613L91.4612 36.0028V36.0029L91.4613 53.9962H54.8768V71.9894H91.4613L91.4612 72.0001H109.748V36.0029V36.0028V0.00565011ZM54.8711 17.9989H18.2867V35.9921H54.8711V53.9962H73.1578V17.9989H54.8712H54.8711ZM0 36.0028H18.2867V72.0001H0V36.0028ZM54.8712 53.9962H18.2867V71.9894H54.8712V53.9962ZM18.2867 0.00565011H54.8712V17.9988H18.2867V0.00565011ZM115.329 3.01087H114.451V4.27307H114.146V1.38804H115.357C115.729 1.38804 116.317 1.59568 116.317 2.20219C116.317 2.80146 115.894 2.97398 115.675 3.01491L116.39 4.27307H116.384H116.034L115.329 3.01087ZM116.023 2.19673C116.023 1.88527 115.734 1.6831 115.418 1.6831H114.451V2.71581H115.418C115.818 2.71581 116.023 2.56282 116.023 2.19673Z" fill="url(#paint0_linear_335_97)"/>
<defs>
<linearGradient id="paint0_linear_335_97" x1="-35" y1="3.48408e-06" x2="135.5" y2="58" gradientUnits="userSpaceOnUse">
<stop stop-color="#A1A1AA"/>
<stop offset="1" stop-color="#E4E4E7"/>
</linearGradient>
</defs>
</svg>
