<svg width="80" height="80" viewBox="0 0 80 80" fill="none" xmlns="http://www.w3.org/2000/svg">
<path d="M40.0006 78.0566C31.1759 78.0785 22.616 75.0431 15.7767 69.4664C8.93732 63.8898 4.24073 56.1163 2.48556 47.4679C0.730395 38.8195 2.02503 29.8301 6.14931 22.0285C10.2736 14.2268 16.9729 8.09456 25.108 4.67453C33.243 1.2545 42.3116 0.757848 50.7714 3.26904C59.2313 5.78023 66.5602 11.1442 71.5118 18.4488C76.4634 25.7534 78.7319 34.5477 77.9317 43.336C77.1315 52.1244 73.3119 60.3643 67.1224 66.6544L66.9073 66.8695C63.3907 70.4285 59.2001 73.2509 54.5802 75.1717C49.9603 77.0926 45.0039 78.0733 40.0006 78.0566Z" fill="black"/>
<path d="M40.001 3.95628C48.9275 3.97972 57.527 7.31836 64.1308 13.3243C70.7347 19.3303 74.872 27.5754 75.7399 36.4596C76.6079 45.3438 74.1446 54.2337 68.828 61.4043C63.5113 68.5748 55.7206 73.5147 46.9674 75.2653C38.2142 77.0159 29.1228 75.4525 21.4573 70.8784C13.7917 66.3043 8.09869 59.0457 5.48284 50.511C2.867 41.9764 3.51487 32.7743 7.30075 24.6904C11.0866 16.6064 17.7405 10.2171 25.9714 6.76219C30.4134 4.89882 35.1839 3.94473 40.001 3.95628ZM40.001 0C32.0899 0 24.3565 2.3459 17.7787 6.74104C11.2009 11.1362 6.07413 17.3832 3.0467 24.692C0.0192697 32.0009 -0.772824 40.0434 0.770545 47.8024C2.31392 55.5614 6.12344 62.6886 11.7174 68.2825C17.3114 73.8765 24.4385 77.686 32.1975 79.2294C39.9566 80.7728 47.999 79.9807 55.3079 76.9532C62.6167 73.9258 68.8638 68.799 73.2589 62.2212C77.6541 55.6434 79.9999 47.91 79.9999 39.999C79.9978 29.3913 75.7829 19.2186 68.2821 11.7178C60.7813 4.21701 50.6087 0.00215156 40.001 0Z" fill="white"/>
<path d="M75.659 45.5761C74.7731 51.2776 72.5275 56.682 69.1119 61.3323L61.0187 60.6485L49.292 59.2466L56.1273 52.4479L63.1775 44.7139L72.2425 45.4341L75.659 45.5761Z" fill="black"/>
<path d="M45.3975 43.3441L29.8219 53.667L21.4407 49.5666L7.77224 40.031L4.10205 36.7605C4.54556 31.6738 6.07896 26.7421 8.59801 22.3008L16.1514 29.0265L45.3975 43.3441Z" fill="black"/>
<path d="M74.1735 28.4177L73.922 29.209L63.9948 44.7846L51.0811 57.7693L32.0524 68.2727L24.5699 72.5901C18.7171 69.7877 13.7143 65.4802 10.0737 60.1086L20.7212 57.4832L36.2967 49.3536L51.0811 37.6633L59.8214 26.3016L66.6911 15.7617C69.4295 18.7766 71.6426 22.2297 73.2382 25.977C73.5628 26.7987 73.8854 27.59 74.1735 28.4177Z" fill="black"/>
<path d="M40.0006 78.0566C31.1759 78.0785 22.616 75.0431 15.7767 69.4664C8.93732 63.8898 4.24073 56.1163 2.48556 47.4679C0.730395 38.8195 2.02503 29.8301 6.14931 22.0285C10.2736 14.2268 16.9729 8.09456 25.108 4.67453C33.243 1.2545 42.3116 0.757848 50.7714 3.26904C59.2313 5.78023 66.5602 11.1442 71.5118 18.4488C76.4634 25.7534 78.7319 34.5477 77.9317 43.336C77.1315 52.1244 73.3119 60.3643 67.1224 66.6544L66.9073 66.8695C63.3907 70.4285 59.2001 73.2509 54.5802 75.1717C49.9603 77.0926 45.0039 78.0733 40.0006 78.0566Z" fill="black"/>
<path d="M40.001 3.95628C48.9275 3.97972 57.527 7.31836 64.1308 13.3243C70.7347 19.3303 74.872 27.5754 75.7399 36.4596C76.6079 45.3438 74.1446 54.2337 68.828 61.4043C63.5113 68.5748 55.7206 73.5147 46.9674 75.2653C38.2142 77.0159 29.1228 75.4525 21.4573 70.8784C13.7917 66.3043 8.09869 59.0457 5.48284 50.511C2.867 41.9764 3.51487 32.7743 7.30075 24.6904C11.0866 16.6064 17.7405 10.2171 25.9714 6.76219C30.4134 4.89882 35.1839 3.94473 40.001 3.95628ZM40.001 0C32.0899 0 24.3565 2.3459 17.7787 6.74104C11.2009 11.1362 6.07413 17.3832 3.0467 24.692C0.0192697 32.0009 -0.772824 40.0434 0.770545 47.8024C2.31392 55.5614 6.12344 62.6886 11.7174 68.2825C17.3114 73.8765 24.4385 77.686 32.1975 79.2294C39.9566 80.7728 47.999 79.9807 55.3079 76.9532C62.6167 73.9258 68.8638 68.799 73.2589 62.2212C77.6541 55.6434 79.9999 47.91 79.9999 39.999C79.9978 29.3913 75.7829 19.2186 68.2821 11.7178C60.7813 4.21701 50.6087 0.00215156 40.001 0Z" fill="white"/>
<path d="M75.659 45.5761C74.7731 51.2776 72.5275 56.682 69.1119 61.3323L61.0187 60.6485L49.292 59.2466L56.1273 52.4479L63.1775 44.7139L72.2425 45.4341L75.659 45.5761Z" fill="black"/>
<path d="M45.3975 43.3441L29.8219 53.667L21.4407 49.5666L7.77224 40.031L4.10205 36.7605C4.54556 31.6738 6.07896 26.7421 8.59801 22.3008L16.1514 29.0265L45.3975 43.3441Z" fill="black"/>
<path d="M74.1735 28.4177L73.922 29.209L63.9948 44.7846L51.0811 57.7693L32.0524 68.2727L24.5699 72.5901C18.7171 69.7877 13.7143 65.4802 10.0737 60.1086L20.7212 57.4832L36.2967 49.3536L51.0811 37.6633L59.8214 26.3016L66.6911 15.7617C69.4295 18.7766 71.6426 22.2297 73.2382 25.977C73.5628 26.7987 73.8854 27.59 74.1735 28.4177Z" fill="black"/>
<path d="M62.374 43.6693C61.4387 44.8197 60.5034 45.9355 59.4971 47.0149C59.2455 47.303 58.9939 47.5546 58.7423 47.8427L56.5837 50.1089L56.0075 50.6851C56.7987 50.7561 57.5534 50.8291 58.3447 50.8656L60.682 50.9732C61.0878 50.5674 61.4366 50.1454 61.8323 49.7559C61.9398 48.9281 62.0474 48.1003 62.157 47.2381C62.301 46.0512 62.372 44.9008 62.4815 43.7119V43.5678L62.374 43.6693ZM62.374 43.6693C61.4387 44.8197 60.5034 45.9355 59.4971 47.0149C59.2455 47.303 58.9939 47.5546 58.7423 47.8427L56.5837 50.1089L56.0075 50.6851C56.7987 50.7561 57.5534 50.8291 58.3447 50.8656L60.682 50.9732C61.0878 50.5674 61.4366 50.1454 61.8323 49.7559C61.9398 48.9281 62.0474 48.1003 62.157 47.2381C62.301 46.0512 62.372 44.9008 62.4815 43.7119V43.5678L62.374 43.6693ZM62.374 43.6693C61.4387 44.8197 60.5034 45.9355 59.4971 47.0149C59.2455 47.303 58.9939 47.5546 58.7423 47.8427L56.5837 50.1089L56.0075 50.6851C56.7987 50.7561 57.5534 50.8291 58.3447 50.8656L60.682 50.9732C61.0878 50.5674 61.4366 50.1454 61.8323 49.7559C61.9398 48.9281 62.0474 48.1003 62.157 47.2381C62.301 46.0512 62.372 44.9008 62.4815 43.7119V43.5678L62.374 43.6693ZM52.5908 53.8136C51.9436 54.3533 51.3309 54.9295 50.6837 55.4367L48.0949 57.4879C48.7786 57.5954 49.4623 57.7394 50.146 57.847C51.0448 57.991 51.9437 58.0985 52.879 58.2061L53.4186 57.7739C53.7433 56.514 53.9949 55.2561 54.2465 53.9962C54.3905 53.3125 54.4979 52.6653 54.6054 51.9815C53.9217 52.6267 53.2766 53.2374 52.5908 53.8136ZM44.4611 60.1031L44.1366 60.3181L42.3106 61.505C40.8356 62.4403 39.3242 63.331 37.8147 64.1669C36.6278 64.8141 35.4044 65.4613 34.181 66.0375C32.9941 66.6137 31.7707 67.1533 30.5838 67.6606C30.2957 67.7681 30.0076 67.9121 29.685 68.0197C28.5347 68.4863 27.3823 68.9184 26.2359 69.3506C24.761 69.8903 23.286 70.365 21.811 70.7891L21.2024 70.9696C20.3036 71.2212 19.4393 71.4728 18.5405 71.6899C17.8933 71.8339 17.2461 72.0145 16.5989 72.1565C17.031 72.4811 17.4632 72.8037 17.9298 73.0918C18.65 73.5585 19.3683 74.0271 20.125 74.4593C20.3056 74.5668 20.5308 74.6743 20.7012 74.7839C21.9185 74.4593 23.1825 74.1002 24.3694 73.7045L25.6638 73.2724C26.3476 73.0573 27.0657 72.8058 27.7494 72.5521C29.3319 71.9759 30.878 71.3653 32.4159 70.7262C33.6332 70.1865 34.8262 69.6468 36.0131 69.0706C37.6362 68.2794 39.1781 67.4475 40.7261 66.5893C42.0571 65.8346 43.3879 65.0433 44.6823 64.2156C45.0881 63.0287 45.4371 61.8783 45.7983 60.6894C45.9788 60.0807 46.1229 59.4721 46.3014 58.8918C45.6481 59.2814 45.082 59.677 44.4611 60.1091V60.1031ZM62.374 43.6693C61.4387 44.8197 60.5034 45.9355 59.4971 47.0149C59.2455 47.303 58.9939 47.5546 58.7423 47.8427L56.5837 50.1089L56.0075 50.6851C56.7987 50.7561 57.5534 50.8291 58.3447 50.8656L60.682 50.9732C61.0878 50.5674 61.4366 50.1454 61.8323 49.7559C61.9398 48.9281 62.0474 48.1003 62.157 47.2381C62.301 46.0512 62.372 44.9008 62.4815 43.7119V43.5678L62.374 43.6693ZM52.5908 53.8136C51.9436 54.3533 51.3309 54.9295 50.6837 55.4367L48.0949 57.4879C48.7786 57.5954 49.4623 57.7394 50.146 57.847C51.0448 57.991 51.9437 58.0985 52.879 58.2061L53.4186 57.7739C53.7433 56.514 53.9949 55.2561 54.2465 53.9962C54.3905 53.3125 54.4979 52.6653 54.6054 51.9815C53.9217 52.6267 53.2766 53.2374 52.5908 53.8136ZM44.4611 60.1031L44.1366 60.3181L42.3106 61.505C40.8356 62.4403 39.3242 63.331 37.8147 64.1669C36.6278 64.8141 35.4044 65.4613 34.181 66.0375C32.9941 66.6137 31.7707 67.1533 30.5838 67.6606C30.2957 67.7681 30.0076 67.9121 29.685 68.0197C28.5347 68.4863 27.3823 68.9184 26.2359 69.3506C24.761 69.8903 23.286 70.365 21.811 70.7891L21.2024 70.9696C20.3036 71.2212 19.4393 71.4728 18.5405 71.6899C17.8933 71.8339 17.2461 72.0145 16.5989 72.1565C17.031 72.4811 17.4632 72.8037 17.9298 73.0918C18.65 73.5585 19.3683 74.0271 20.125 74.4593C20.3056 74.5668 20.5308 74.6743 20.7012 74.7839C21.9185 74.4593 23.1825 74.1002 24.3694 73.7045L25.6638 73.2724C26.3476 73.0573 27.0657 72.8058 27.7494 72.5521C29.3319 71.9759 30.878 71.3653 32.4159 70.7262C33.6332 70.1865 34.8262 69.6468 36.0131 69.0706C37.6362 68.2794 39.1781 67.4475 40.7261 66.5893C42.0571 65.8346 43.3879 65.0433 44.6823 64.2156C45.0881 63.0287 45.4371 61.8783 45.7983 60.6894C45.9788 60.0807 46.1229 59.4721 46.3014 58.8918C45.6481 59.2814 45.082 59.677 44.4611 60.1091V60.1031ZM62.374 43.6693H62.4815V43.5252L62.374 43.6693ZM52.5908 53.8136C51.9436 54.3533 51.3309 54.9295 50.6837 55.4367L48.0949 57.4879C48.7786 57.5954 49.4623 57.7394 50.146 57.847C51.0448 57.991 51.9437 58.0985 52.879 58.2061L53.4186 57.7739C53.7433 56.514 53.9949 55.2561 54.2465 53.9962C54.3905 53.3125 54.4979 52.6653 54.6054 51.9815C53.9217 52.6267 53.2766 53.2374 52.5908 53.8136ZM44.4611 60.1031L44.1366 60.3181L42.3106 61.505C40.8356 62.4403 39.3242 63.331 37.8147 64.1669C36.6278 64.8141 35.4044 65.4613 34.181 66.0375C32.9941 66.6137 31.7707 67.1533 30.5838 67.6606C30.2957 67.7681 30.0076 67.9121 29.685 68.0197C28.5347 68.4863 27.3823 68.9184 26.2359 69.3506C24.761 69.8903 23.286 70.365 21.811 70.7891L21.2024 70.9696C20.3036 71.2212 19.4393 71.4728 18.5405 71.6899C17.8933 71.8339 17.2461 72.0145 16.5989 72.1565C17.031 72.4811 17.4632 72.8037 17.9298 73.0918C18.65 73.5585 19.3683 74.0271 20.125 74.4593C20.3056 74.5668 20.5308 74.6743 20.7012 74.7839C21.9185 74.4593 23.1825 74.1002 24.3694 73.7045L25.6638 73.2724C26.3476 73.0573 27.0657 72.8058 27.7494 72.5521C29.3319 71.9759 30.878 71.3653 32.4159 70.7262C33.6332 70.1865 34.8262 69.6468 36.0131 69.0706C37.6362 68.2794 39.1781 67.4475 40.7261 66.5893C42.0571 65.8346 43.3879 65.0433 44.6823 64.2156C45.0881 63.0287 45.4371 61.8783 45.7983 60.6894C45.9788 60.0807 46.1229 59.4721 46.3014 58.8918C45.6481 59.2814 45.082 59.677 44.4611 60.1091V60.1031ZM62.374 43.6693H62.4815V43.5252L62.374 43.6693ZM34.1363 66.007C32.9494 66.5832 31.726 67.1229 30.5391 67.6301C30.251 67.7377 29.9629 67.8817 29.6403 67.9892C28.49 68.4559 27.3377 68.888 26.1914 69.3202C24.7164 69.8598 23.2413 70.3346 21.7664 70.7586L21.1577 70.9392C20.2589 71.1908 19.3946 71.4424 18.4958 71.6594C17.8486 71.8035 17.2014 71.9841 16.5542 72.1261C16.9864 72.4507 17.4185 72.7733 17.8852 73.0614C18.6054 73.528 19.3236 73.9967 20.0804 74.4288C20.261 74.5364 20.4862 74.6439 20.6566 74.7535C21.8739 74.4288 23.1379 74.0697 24.3248 73.6741L25.6191 73.2419C26.3029 73.0269 27.0211 72.7753 27.7048 72.5217C29.2874 71.9455 30.8353 71.3348 32.3712 70.6957C33.5885 70.1561 34.7815 69.6164 35.9684 69.0402C36.6156 67.4171 37.2284 65.7676 37.7944 64.1121C36.5832 64.7836 35.3597 65.4329 34.1363 66.007ZM62.374 43.6693H62.4815V43.5252L62.374 43.6693ZM34.1363 66.007C32.9494 66.5832 31.726 67.1229 30.5391 67.6301C30.251 67.7377 29.9629 67.8817 29.6403 67.9892C28.49 68.4559 27.3377 68.888 26.1914 69.3202C24.7164 69.8598 23.2413 70.3346 21.7664 70.7586L21.1577 70.9392C20.2589 71.1908 19.3946 71.4424 18.4958 71.6594C17.8486 71.8035 17.2014 71.9841 16.5542 72.1261C16.9864 72.4507 17.4185 72.7733 17.8852 73.0614C18.6054 73.528 19.3236 73.9967 20.0804 74.4288C20.261 74.5364 20.4862 74.6439 20.6566 74.7535C21.8739 74.4288 23.1379 74.0697 24.3248 73.6741L25.6191 73.2419C26.3029 73.0269 27.0211 72.7753 27.7048 72.5217C29.2874 71.9455 30.8353 71.3348 32.3712 70.6957C33.5885 70.1561 34.7815 69.6164 35.9684 69.0402C36.6156 67.4171 37.2284 65.7676 37.7944 64.1121C36.5832 64.7836 35.3597 65.4329 34.1363 66.007ZM75.1802 21.4756C74.8556 22.3399 74.4964 23.1656 74.1373 24.0299C73.8857 24.6386 73.5977 25.2472 73.3462 25.8559C73.0581 26.5031 72.7374 27.1868 72.4107 27.834C71.4754 29.7757 70.4692 31.6889 69.3533 33.5148C68.4545 35.0263 67.5558 36.5013 66.5474 37.9783C66.4034 38.1934 66.2593 38.3841 66.1152 38.587C64.9649 40.277 63.705 41.9326 62.4106 43.5516L62.303 43.6591C61.3676 44.8095 60.4324 45.9254 59.4261 47.0047C59.1745 47.2928 58.9229 47.5444 58.6713 47.8325L56.5126 50.0987L55.9364 50.6749C55.4698 51.1416 55.0011 51.5737 54.5345 52.0424C53.8873 52.6511 53.2036 53.2597 52.5199 53.8684C51.8727 54.408 51.2599 54.9842 50.6127 55.4915L48.0239 57.5426C47.4152 58.0093 46.8065 58.4414 46.1979 58.8736C45.6217 59.3057 45.011 59.7013 44.4003 60.1335L44.0758 60.3485L42.2498 61.5354C40.7748 62.4707 39.2633 63.3614 37.7538 64.1973C36.5669 64.8445 35.3435 65.4917 34.1201 66.0679C32.9332 66.6441 31.7099 67.1838 30.4865 67.691C30.1984 67.7985 29.9102 67.9426 29.5876 68.0501C28.4372 68.5167 27.2849 68.9489 26.1386 69.381C24.6636 69.9207 23.1886 70.3955 21.7136 70.8195L21.105 71.0001C20.2062 71.2516 19.3419 71.5032 18.4431 71.7203C17.7959 71.8644 17.1487 72.0449 16.5015 72.1869C16.9336 72.5116 17.3637 72.8342 17.8324 73.1222C18.5527 73.5889 19.2709 74.0576 20.0276 74.4897C20.2082 74.5972 20.4334 74.7048 20.6038 74.8143C21.8211 74.4897 23.0852 74.1306 24.272 73.735L25.5664 73.3028C26.2501 73.0878 26.9684 72.8362 27.6521 72.5826C29.2346 72.0064 30.7826 71.3957 32.3184 70.7566C33.5358 70.2169 34.7287 69.6773 35.9156 69.1011C37.5387 68.3098 39.0807 67.478 40.6287 66.6197C41.9596 65.865 43.2906 65.0738 44.585 64.246C46.06 63.3107 47.4984 62.3044 48.9024 61.296L49.2615 61.0445C50.4484 60.1457 51.6353 59.2469 52.7856 58.3116L53.3253 57.8794C54.6562 56.7635 55.9871 55.5767 57.247 54.3898C57.4178 54.2126 57.5981 54.0446 57.7868 53.8866C58.7586 52.9513 59.6939 52.016 60.6271 51.0462C61.0329 50.6405 61.3819 50.2185 61.7775 49.8289C62.4978 49.0377 63.2161 48.2058 63.9363 47.3821L65.8779 45.0083C66.166 44.6492 66.4541 44.2536 66.7422 43.8925C67.6775 42.6751 68.5681 41.3747 69.475 40.0802C70.6924 38.2827 71.8488 36.4121 72.9646 34.5049C73.6849 33.2876 74.3322 32.0236 74.9794 30.7272C75.7706 29.1812 76.4909 27.6332 77.1726 26.0608C76.6409 24.4782 75.9744 22.9441 75.1802 21.4756ZM62.374 43.6693H62.4815V43.5252L62.374 43.6693ZM69.3877 33.525C68.489 35.0365 67.5902 36.5115 66.5818 37.9885C66.4378 38.2035 66.2937 38.3943 66.1497 38.5971C64.9993 40.2872 63.7394 41.9427 62.445 43.5618L62.3375 43.6693H62.445C63.6319 43.7403 64.7822 43.7768 65.9691 43.7768H66.7604C67.6957 42.5595 68.5863 41.259 69.4932 39.9646C69.4932 39.3559 69.5298 38.7473 69.5298 38.1386C69.5298 36.5926 69.4933 35.0446 69.3858 33.5351L69.3877 33.525ZM34.1363 66.0436C32.9494 66.6198 31.726 67.1594 30.5391 67.6667C30.251 67.7742 29.9629 67.9182 29.6403 68.0257C28.49 68.4924 27.3377 68.9245 26.1914 69.3567C24.7164 69.8964 23.2413 70.3711 21.7664 70.7952L21.1577 70.9757C20.2589 71.2273 19.3946 71.4789 18.4958 71.696C17.8486 71.84 17.2014 72.0206 16.5542 72.1626C16.9864 72.4872 17.4185 72.8098 17.8852 73.0979C18.6054 73.5645 19.3236 74.0332 20.0804 74.4654C20.261 74.5729 20.4862 74.6804 20.6566 74.79C21.8739 74.4654 23.1379 74.1062 24.3248 73.7106L25.6191 73.2785C26.3029 73.0634 27.0211 72.8118 27.7048 72.5582C29.2874 71.982 30.8353 71.3713 32.3712 70.7323C33.5885 70.1926 34.7815 69.6529 35.9684 69.0767C36.6156 67.4536 37.2284 65.8042 37.7944 64.1486C36.5771 64.7958 35.3475 65.443 34.1261 66.0557L34.1363 66.0436ZM62.374 43.6693H62.4815V43.5252L62.374 43.6693ZM44.4611 60.1031L44.1366 60.3181L42.3106 61.505C40.8356 62.4403 39.3242 63.331 37.8147 64.1669C36.6278 64.8141 35.4044 65.4613 34.181 66.0375C32.9941 66.6137 31.7707 67.1533 30.5838 67.6606C30.2957 67.7681 30.0076 67.9121 29.685 68.0197C28.5347 68.4863 27.3823 68.9184 26.2359 69.3506C24.761 69.8903 23.286 70.365 21.811 70.7891L21.2024 70.9696C20.3036 71.2212 19.4393 71.4728 18.5405 71.6899C17.8933 71.8339 17.2461 72.0145 16.5989 72.1565C17.031 72.4811 17.4632 72.8037 17.9298 73.0918C18.65 73.5585 19.3683 74.0271 20.125 74.4593C20.3056 74.5668 20.5308 74.6743 20.7012 74.7839C21.9185 74.4593 23.1825 74.1002 24.3694 73.7045L25.6638 73.2724C26.3476 73.0573 27.0657 72.8058 27.7494 72.5521C29.3319 71.9759 30.878 71.3653 32.4159 70.7262C33.6332 70.1865 34.8262 69.6468 36.0131 69.0706C37.6362 68.2794 39.1781 67.4475 40.7261 66.5893C42.0571 65.8346 43.3879 65.0433 44.6823 64.2156C45.0881 63.0287 45.4371 61.8783 45.7983 60.6894C45.9788 60.0807 46.1229 59.4721 46.3014 58.8918C45.6481 59.2814 45.082 59.677 44.4611 60.1091V60.1031ZM52.5908 53.8136C51.9436 54.3533 51.3309 54.9295 50.6837 55.4367L48.0949 57.4879C48.7786 57.5954 49.4623 57.7394 50.146 57.847C51.0448 57.991 51.9437 58.0985 52.879 58.2061L53.4186 57.7739C53.7433 56.514 53.9949 55.2561 54.2465 53.9962C54.3905 53.3125 54.4979 52.6653 54.6054 51.9815C53.9217 52.6287 53.2746 53.2415 52.5908 53.8075V53.8136ZM62.374 43.6693C61.4387 44.8197 60.5034 45.9355 59.4971 47.0149C59.2455 47.303 58.9939 47.5546 58.7423 47.8427L56.5837 50.1089L56.0075 50.6851C56.7987 50.7561 57.5534 50.8291 58.3447 50.8656L60.682 50.9732C61.0878 50.5674 61.4366 50.1454 61.8323 49.7559C61.9398 48.9281 62.0474 48.1003 62.157 47.2381C62.301 46.0512 62.372 44.9008 62.4815 43.7119V43.5678L62.374 43.6693ZM44.4611 60.1031L44.1366 60.3181L42.3106 61.505C40.8356 62.4403 39.3242 63.331 37.8147 64.1669C36.6278 64.8141 35.4044 65.4613 34.181 66.0375C32.9941 66.6137 31.7707 67.1533 30.5838 67.6606C30.2957 67.7681 30.0076 67.9121 29.685 68.0197C28.5347 68.4863 27.3823 68.9184 26.2359 69.3506C24.761 69.8903 23.286 70.365 21.811 70.7891L21.2024 70.9696C20.3036 71.2212 19.4393 71.4728 18.5405 71.6899C17.8933 71.8339 17.2461 72.0145 16.5989 72.1565C17.031 72.4811 17.4632 72.8037 17.9298 73.0918C18.65 73.5585 19.3683 74.0271 20.125 74.4593C20.3056 74.5668 20.5308 74.6743 20.7012 74.7839C21.9185 74.4593 23.1825 74.1002 24.3694 73.7045L25.6638 73.2724C26.3476 73.0573 27.0657 72.8058 27.7494 72.5521C29.3319 71.9759 30.878 71.3653 32.4159 70.7262C33.6332 70.1865 34.8262 69.6468 36.0131 69.0706C37.6362 68.2794 39.1781 67.4475 40.7261 66.5893C42.0571 65.8346 43.3879 65.0433 44.6823 64.2156C45.0881 63.0287 45.4371 61.8783 45.7983 60.6894C45.9788 60.0807 46.1229 59.4721 46.3014 58.8918C45.6481 59.2814 45.082 59.677 44.4611 60.1091V60.1031ZM52.5908 53.8136C51.9436 54.3533 51.3309 54.9295 50.6837 55.4367L48.0949 57.4879C48.7786 57.5954 49.4623 57.7394 50.146 57.847C51.0448 57.991 51.9437 58.0985 52.879 58.2061L53.4186 57.7739C53.7433 56.514 53.9949 55.2561 54.2465 53.9962C54.3905 53.3125 54.4979 52.6653 54.6054 51.9815C53.9217 52.6287 53.2746 53.2415 52.5908 53.8075V53.8136ZM62.374 43.6693C61.4387 44.8197 60.5034 45.9355 59.4971 47.0149C59.2455 47.303 58.9939 47.5546 58.7423 47.8427L56.5837 50.1089L56.0075 50.6851C56.7987 50.7561 57.5534 50.8291 58.3447 50.8656L60.682 50.9732C61.0878 50.5674 61.4366 50.1454 61.8323 49.7559C61.9398 48.9281 62.0474 48.1003 62.157 47.2381C62.301 46.0512 62.372 44.9008 62.4815 43.7119V43.5678L62.374 43.6693ZM44.4611 60.1031L44.1366 60.3181L42.3106 61.505C40.8356 62.4403 39.3242 63.331 37.8147 64.1669C36.6278 64.8141 35.4044 65.4613 34.181 66.0375C32.9941 66.6137 31.7707 67.1533 30.5838 67.6606C30.2957 67.7681 30.0076 67.9121 29.685 68.0197C28.5347 68.4863 27.3823 68.9184 26.2359 69.3506C24.761 69.8903 23.286 70.365 21.811 70.7891L21.2024 70.9696C20.3036 71.2212 19.4393 71.4728 18.5405 71.6899C17.8933 71.8339 17.2461 72.0145 16.5989 72.1565C17.031 72.4811 17.4632 72.8037 17.9298 73.0918C18.65 73.5585 19.3683 74.0271 20.125 74.4593C20.3056 74.5668 20.5308 74.6743 20.7012 74.7839C21.9185 74.4593 23.1825 74.1002 24.3694 73.7045L25.6638 73.2724C26.3476 73.0573 27.0657 72.8058 27.7494 72.5521C29.3319 71.9759 30.878 71.3653 32.4159 70.7262C33.6332 70.1865 34.8262 69.6468 36.0131 69.0706C37.6362 68.2794 39.1781 67.4475 40.7261 66.5893C42.0571 65.8346 43.3879 65.0433 44.6823 64.2156C45.0881 63.0287 45.4371 61.8783 45.7983 60.6894C45.9788 60.0807 46.1229 59.4721 46.3014 58.8918C45.6481 59.2814 45.082 59.677 44.4611 60.1091V60.1031ZM52.5908 53.8136C51.9436 54.3533 51.3309 54.9295 50.6837 55.4367L48.0949 57.4879C48.7786 57.5954 49.4623 57.7394 50.146 57.847C51.0448 57.991 51.9437 58.0985 52.879 58.2061L53.4186 57.7739C53.7433 56.514 53.9949 55.2561 54.2465 53.9962C54.3905 53.3125 54.4979 52.6653 54.6054 51.9815C53.9217 52.6287 53.2746 53.2415 52.5908 53.8075V53.8136ZM62.374 43.6693C61.4387 44.8197 60.5034 45.9355 59.4971 47.0149C59.2455 47.303 58.9939 47.5546 58.7423 47.8427L56.5837 50.1089L56.0075 50.6851C56.7987 50.7561 57.5534 50.8291 58.3447 50.8656L60.682 50.9732C61.0878 50.5674 61.4366 50.1454 61.8323 49.7559C61.9398 48.9281 62.0474 48.1003 62.157 47.2381C62.301 46.0512 62.372 44.9008 62.4815 43.7119V43.5678L62.374 43.6693ZM62.374 43.6693C61.4387 44.8197 60.5034 45.9355 59.4971 47.0149C59.2455 47.303 58.9939 47.5546 58.7423 47.8427L56.5837 50.1089L56.0075 50.6851C56.7987 50.7561 57.5534 50.8291 58.3447 50.8656L60.682 50.9732C61.0878 50.5674 61.4366 50.1454 61.8323 49.7559C61.9398 48.9281 62.0474 48.1003 62.157 47.2381C62.301 46.0512 62.372 44.9008 62.4815 43.7119V43.5678L62.374 43.6693ZM62.374 43.6693C61.4387 44.8197 60.5034 45.9355 59.4971 47.0149C60.3593 47.0859 61.2602 47.1589 62.1589 47.1954C62.303 46.0086 62.3741 44.8582 62.4836 43.6693V43.5252L62.374 43.6693Z" fill="white"/>
<path d="M54.2101 42.8412C54.6768 42.9122 55.1454 42.9852 55.6486 43.0562C55.6851 42.4476 55.7196 41.8389 55.7196 41.2302L54.2101 42.8412ZM47.1558 49.3518C47.4804 49.4228 47.803 49.4593 48.0911 49.5323C48.1276 49.1732 48.1986 48.8121 48.2351 48.4165C47.8801 48.7411 47.519 49.0657 47.1558 49.3518ZM38.9551 55.2862C39.3609 55.3937 39.7464 55.5378 40.142 55.6453C40.2495 55.2131 40.3226 54.781 40.4301 54.3509C39.927 54.6755 39.4156 54.9981 38.9551 55.2862ZM54.206 42.8412C54.6727 42.9122 55.1413 42.9852 55.6445 43.0562C55.681 42.4476 55.7155 41.8389 55.7155 41.2302L54.206 42.8412ZM47.1558 49.3518C47.4804 49.4228 47.803 49.4593 48.0911 49.5323C48.1276 49.1732 48.1986 48.8121 48.2351 48.4165C47.8801 48.7411 47.519 49.0657 47.1558 49.3518ZM38.9551 55.2862C39.3609 55.3937 39.7464 55.5378 40.142 55.6453C40.2495 55.2131 40.3226 54.781 40.4301 54.3509C39.927 54.6755 39.4156 54.9981 38.9551 55.2862ZM54.206 42.8412C54.6727 42.9122 55.1413 42.9852 55.6445 43.0562C55.681 42.4476 55.7155 41.8389 55.7155 41.2302L54.206 42.8412ZM47.1558 49.3518C47.4804 49.4228 47.803 49.4593 48.0911 49.5323C48.1276 49.1732 48.1986 48.8121 48.2351 48.4165C47.8801 48.7411 47.519 49.0657 47.1558 49.3518ZM38.9551 55.2862C39.3609 55.3937 39.7464 55.5378 40.142 55.6453C40.2495 55.2131 40.3226 54.781 40.4301 54.3509C39.927 54.6755 39.4156 54.9981 38.9551 55.2862ZM54.206 42.8412C54.6727 42.9122 55.1413 42.9852 55.6445 43.0562C55.681 42.4476 55.7155 41.8389 55.7155 41.2302L54.206 42.8412ZM47.1558 49.3518C47.4804 49.4228 47.803 49.4593 48.0911 49.5323C48.1276 49.1732 48.1986 48.8121 48.2351 48.4165C47.8801 48.7411 47.519 49.0657 47.1558 49.3518ZM38.9551 55.2862C39.3609 55.3937 39.7464 55.5378 40.142 55.6453C40.2495 55.2131 40.3226 54.781 40.4301 54.3509C39.927 54.6755 39.4156 54.9981 38.9551 55.2862ZM71.5021 15.7559C71.214 16.4761 70.9259 17.1943 70.6378 17.8781C70.6378 17.9146 70.6378 17.9146 70.6012 17.9491C70.3862 18.4887 70.1346 19.0284 69.881 19.5721C69.3414 20.7895 68.7651 22.019 68.1544 23.2058C67.3267 24.8289 66.4644 26.3709 65.5656 27.9189C64.7744 29.2498 63.9426 30.5807 63.0479 31.8752C62.8673 32.1633 62.642 32.4514 62.4391 32.7395C61.4247 34.1779 60.3879 35.6164 59.2741 37.0203C58.1237 38.4588 56.937 39.8608 55.677 41.2282L54.1655 42.8513C53.8064 43.2571 53.4107 43.6425 53.0496 44.0017C52.7615 44.2898 52.4409 44.5779 52.1508 44.9004C51.7917 45.2596 51.4306 45.5842 51.0715 45.9149C50.1362 46.7792 49.2009 47.6414 48.2311 48.4692C47.872 48.7938 47.5108 49.0779 47.1517 49.4045C46.2874 50.1248 45.3886 50.8065 44.5263 51.4902C44.2017 51.7418 43.8791 51.9933 43.5545 52.2104C42.6902 52.8191 41.828 53.4703 40.9637 54.0364C40.7821 54.1353 40.6131 54.2559 40.4605 54.3955C39.9939 54.7201 39.4887 55.0427 39.0221 55.3308C38.3018 55.7975 37.5836 56.2296 36.8634 56.6618C36.2547 57.0209 35.6034 57.382 34.9927 57.7411C34.238 58.1733 33.4468 58.5689 32.69 58.9584C31.539 59.5698 30.3521 60.1453 29.1293 60.685C28.4456 61.0096 27.7619 61.2936 27.0781 61.5838C26.3579 61.8719 25.6762 62.16 24.956 62.4481C23.8056 62.8802 22.6897 63.3123 21.5394 63.708C20.1719 64.1746 18.8065 64.6068 17.4025 65.0024C16.4672 65.254 15.5319 65.5056 14.5621 65.7571L13.986 65.8281C12.7984 66.1162 11.6115 66.3678 10.4253 66.5829C11.1827 67.4426 11.9874 68.2594 12.8356 69.0297C13.0161 69.2102 13.2413 69.3888 13.4117 69.5694C14.203 69.3888 14.9943 69.2102 15.749 69.0297C16.3962 68.8856 17.0089 68.7051 17.6561 68.5265C18.4474 68.3115 19.2387 68.0944 19.9934 67.8428C21.1438 67.4837 22.2596 67.1225 23.3755 66.7269C24.8505 66.2238 26.2889 65.6476 27.6929 65.0714C28.8798 64.5682 30.0667 64.0569 31.2191 63.5254C32.6941 62.8417 34.1325 62.0869 35.571 61.3302C36.7883 60.6829 38.0178 59.9627 39.2047 59.2445L39.4197 59.1004C40.7872 58.2727 42.1181 57.409 43.4125 56.5096L43.4836 56.4731C44.8145 55.5743 46.0744 54.6471 47.3384 53.6671C47.5534 53.4866 47.805 53.308 48.0221 53.1275C49.209 52.1922 50.3593 51.2203 51.4711 50.2505L51.5787 50.143C52.8386 49.0271 54.0255 47.9113 55.2124 46.7264L55.3564 46.5824C56.3993 45.5395 57.4076 44.4602 58.414 43.3808C58.629 43.1292 58.8461 42.8777 59.0611 42.6606C60.248 41.2931 61.3984 39.9277 62.5102 38.4872C63.6971 36.9412 64.8475 35.3587 65.9268 33.7742C66.9697 32.2282 67.9415 30.6457 68.8768 29.0611C69.8912 27.3346 70.8184 25.5715 71.7172 23.7739C71.7903 23.5933 71.8977 23.4148 71.9687 23.2342C72.6159 21.9398 73.186 20.6089 73.7663 19.2414C73.1263 18.009 72.368 16.8416 71.5021 15.7559ZM38.9592 55.2882C39.365 55.3957 39.7504 55.5398 40.146 55.6473C40.2536 55.2152 40.3266 54.783 40.4341 54.3529C39.931 54.6775 39.4197 55.0001 38.9592 55.2882ZM47.1598 49.3538C47.4844 49.4248 47.807 49.4613 48.0951 49.5344C48.1316 49.1753 48.2027 48.8141 48.2392 48.4185C47.8801 48.7411 47.519 49.0657 47.1558 49.3518L47.1598 49.3538ZM54.2101 42.8412C54.6768 42.9122 55.1454 42.9852 55.6486 43.0562C55.6851 42.4476 55.7196 41.8389 55.7196 41.2302L54.2101 42.8412ZM47.1558 49.3518C47.4804 49.4228 47.803 49.4593 48.0911 49.5323C48.1276 49.1732 48.1986 48.8121 48.2351 48.4165C47.8801 48.7411 47.519 49.0657 47.1558 49.3518ZM54.206 42.8412C54.6727 42.9122 55.1413 42.9852 55.6445 43.0562C55.681 42.4476 55.7155 41.8389 55.7155 41.2302L54.206 42.8412ZM38.9551 55.2862C39.3609 55.3937 39.7464 55.5378 40.142 55.6453C40.2495 55.2131 40.3226 54.781 40.4301 54.3509C39.929 54.6755 39.4258 55.0001 38.9592 55.2882L38.9551 55.2862ZM47.1558 49.3518C47.4804 49.4228 47.803 49.4593 48.0911 49.5323C48.1276 49.1732 48.1986 48.8121 48.2351 48.4165C47.876 48.7411 47.5149 49.0637 47.1558 49.3518ZM54.206 42.8412C54.6727 42.9122 55.1413 42.9852 55.6445 43.0562C55.681 42.4476 55.7155 41.8389 55.7155 41.2302L54.206 42.8412ZM38.9551 55.2862C39.3609 55.3937 39.7464 55.5378 40.142 55.6453C40.2495 55.2131 40.3226 54.781 40.4301 54.3509C39.929 54.6755 39.4258 55.0001 38.9592 55.2882L38.9551 55.2862ZM47.1558 49.3518C47.4804 49.4228 47.803 49.4593 48.0911 49.5323C48.1276 49.1732 48.1986 48.8121 48.2351 48.4165C47.876 48.7411 47.5149 49.0637 47.1558 49.3518ZM54.206 42.8412C54.6727 42.9122 55.1413 42.9852 55.6445 43.0562C55.681 42.4476 55.7155 41.8389 55.7155 41.2302L54.206 42.8412Z" fill="white"/>
<path d="M69.3519 13.1995L67.0188 10.8623C66.613 11.7976 66.2274 12.6883 65.8014 13.6317L65.4788 14.2789C64.9026 15.4293 64.3285 16.6162 63.7158 17.728C62.888 19.2395 62.0257 20.7489 61.0904 22.2239C60.5873 23.0517 60.0476 23.847 59.5079 24.6342C59.1488 25.1374 58.7877 25.677 58.4286 26.1802C57.4567 27.5821 56.4139 28.9131 55.3346 30.2379C54.3201 31.4552 53.3198 32.6482 52.2405 33.8351C51.3417 34.8495 50.4145 35.8132 49.4346 36.7851L48.7874 37.4323C47.708 38.5116 46.5556 39.5545 45.4053 40.5608C45.2612 40.7048 45.1172 40.8123 44.9732 40.9665C43.9303 41.8653 42.8145 42.7641 41.727 43.6284L41.656 43.6994C40.5766 44.5272 39.4627 45.355 38.3469 46.1462C38.0223 46.3613 37.6997 46.6129 37.3324 46.8299L37.2959 46.8665C36.3971 47.4751 35.47 48.0838 34.5265 48.664C34.2019 48.8446 33.8793 49.0698 33.5912 49.2402C32.7635 49.7434 31.9357 50.2121 31.0734 50.6787C30.4262 51.0378 29.779 51.3624 29.1318 51.7215C28.4846 52.0461 27.8374 52.3687 27.1537 52.736C26.4699 53.0606 25.7517 53.4197 25.0315 53.7504C24.5993 53.9654 24.1672 54.1562 23.7005 54.3266C23.5834 54.3808 23.4635 54.4289 23.3414 54.4706C22.1539 54.9738 20.967 55.4411 19.7808 55.8726C18.6649 56.3047 17.549 56.6638 16.3987 57.0229C15.1043 57.4287 13.8098 57.8142 12.5134 58.1733C11.434 58.4614 10.3202 58.7495 9.20435 58.9646L8.98926 59.0011C9.02578 59.0721 9.09682 59.1451 9.13334 59.2161C9.78054 60.2306 10.4277 61.1943 11.148 62.1296L11.4361 62.0586C12.767 61.7339 14.0979 61.3748 15.3924 61.0157C16.5082 60.6911 17.6586 60.332 18.7744 59.9729C20.1419 59.5063 21.4729 59.0376 22.8038 58.4979C23.9542 58.0313 25.1065 57.5626 26.2528 57.0595C27.2673 56.6273 28.2675 56.1607 29.2373 55.6575C29.5964 55.4769 29.9576 55.2984 30.2802 55.1178C31.323 54.5768 32.33 54.0358 33.3011 53.4948L33.7678 53.2432C35.1352 52.4884 36.4296 51.6607 37.7605 50.8329L37.8681 50.7619C39.0184 50.0071 40.1708 49.2504 41.2847 48.4246L41.6438 48.173C42.8307 47.3088 44.0175 46.41 45.1334 45.4747C45.385 45.2941 45.6001 45.0689 45.8537 44.8985C46.8255 44.1072 47.7608 43.316 48.6596 42.4517L49.1282 42.0195C50.2076 41.0477 51.2504 40.0049 52.2932 38.962C53.4091 37.8117 54.525 36.6248 55.6023 35.4014C56.7527 34.107 57.8686 32.776 58.9114 31.4086C59.9259 30.1142 60.8896 28.7832 61.8249 27.4523C62.8393 26.0138 63.803 24.5023 64.7018 22.9888C65.5295 21.6213 66.3249 20.1829 67.0756 18.7809C67.3637 18.2413 67.6517 17.7016 67.9033 17.1579C68.443 16.115 68.9461 15.0357 69.4148 13.9563C69.4553 13.8567 69.5036 13.7604 69.5589 13.6682C69.5744 13.5784 69.5631 13.486 69.5262 13.4026C69.4894 13.3192 69.4287 13.2486 69.3519 13.1995Z" fill="white"/>
<path d="M40.1468 55.6477C39.741 55.5401 39.3556 55.4326 38.9599 55.2886C38.2397 55.7552 37.5215 56.1873 36.8012 56.6195C36.1926 56.9786 35.5413 57.3397 34.9306 57.6988C35.4338 57.8794 35.9451 58.058 36.4421 58.202C37.3774 58.5266 38.3493 58.8107 39.319 59.0663L39.4996 59.1028C40.867 58.275 42.198 57.4114 43.4924 56.512C42.3766 56.2563 41.2613 55.9682 40.1468 55.6477ZM40.1468 55.6477C39.741 55.5401 39.3556 55.4326 38.9599 55.2886C38.2397 55.7552 37.5215 56.1873 36.8012 56.6195C36.1926 56.9786 35.5413 57.3397 34.9306 57.6988C35.4338 57.8794 35.9451 58.058 36.4421 58.202C37.3774 58.5266 38.3493 58.8107 39.319 59.0663L39.4996 59.1028C40.867 58.275 42.198 57.4114 43.4924 56.512C42.3766 56.2563 41.2613 55.9682 40.1468 55.6477ZM40.1468 55.6477C39.741 55.5401 39.3556 55.4326 38.9599 55.2886C38.2397 55.7552 37.5215 56.1873 36.8012 56.6195C36.1926 56.9786 35.5413 57.3397 34.9306 57.6988C35.4338 57.8794 35.9451 58.058 36.4421 58.202C37.3774 58.5266 38.3493 58.8107 39.319 59.0663L39.4996 59.1028C40.867 58.275 42.198 57.4114 43.4924 56.512C42.3766 56.2563 41.2613 55.9682 40.1468 55.6477ZM40.1468 55.6477C39.741 55.5401 39.3556 55.4326 38.9599 55.2886C38.2397 55.7552 37.5215 56.1873 36.8012 56.6195C36.1926 56.9786 35.5413 57.3397 34.9306 57.6988C35.4338 57.8794 35.9451 58.058 36.4421 58.202C37.3774 58.5266 38.3493 58.8107 39.319 59.0663L39.4996 59.1028C40.867 58.275 42.198 57.4114 43.4924 56.512C42.3766 56.2563 41.2613 55.9682 40.1468 55.6477ZM40.1468 55.6477C39.741 55.5401 39.3556 55.4326 38.9599 55.2886C38.2397 55.7552 37.5215 56.1873 36.8012 56.6195C36.1926 56.9786 35.5413 57.3397 34.9306 57.6988C35.4338 57.8794 35.9451 58.058 36.4421 58.202C37.3774 58.5266 38.3493 58.8107 39.319 59.0663L39.4996 59.1028C40.867 58.275 42.198 57.4114 43.4924 56.512C42.3766 56.2563 41.2613 55.9682 40.1468 55.6477ZM40.1468 55.6477C39.741 55.5401 39.3556 55.4326 38.9599 55.2886C38.2397 55.7552 37.5215 56.1873 36.8012 56.6195C36.1926 56.9786 35.5413 57.3397 34.9306 57.6988C35.4338 57.8794 35.9451 58.058 36.4421 58.202C37.3774 58.5266 38.3493 58.8107 39.319 59.0663L39.4996 59.1028C40.867 58.275 42.198 57.4114 43.4924 56.512C42.3766 56.2563 41.2613 55.9682 40.1468 55.6477ZM71.2249 58.3805C71.0098 58.4171 70.8191 58.4171 70.6162 58.4515C69.3989 58.5591 68.135 58.6666 66.9116 58.7031L63.639 58.8107H62.7747C61.8394 58.8107 60.9041 58.8107 60.0053 58.7741C58.9259 58.7376 57.8831 58.6666 56.8037 58.5936C55.6162 58.5219 54.4293 58.4137 53.2431 58.269L52.811 58.2324C51.9122 58.1249 50.985 57.9809 50.0781 57.8733C49.3944 57.7658 48.7106 57.6583 48.0269 57.5142C47.4182 57.9809 46.8096 58.413 46.2009 58.8451C45.6247 59.2773 45.014 59.6729 44.4033 60.1051L44.0788 60.3201C44.6185 60.4277 45.1581 60.5717 45.7018 60.6792C46.7812 60.8943 47.824 61.085 48.9034 61.2554L49.1915 61.2919C50.2059 61.4725 51.2426 61.6166 52.2855 61.7241C53.4724 61.8682 54.6593 61.9757 55.8461 62.0832C56.889 62.1542 57.9318 62.2273 58.9746 62.2638C60.1919 62.3003 61.4215 62.3348 62.6428 62.3348H62.7503C63.7932 62.3348 64.836 62.2983 65.8444 62.2638C66.7797 62.2273 67.715 62.1928 68.6138 62.1197C68.9384 62.0832 69.261 62.0832 69.5856 62.0487C70.8029 61.9412 72.0324 61.8337 73.2537 61.6896C74.0668 60.4355 74.8118 59.1385 75.4855 57.8043C74.1546 58.0559 72.7161 58.2365 71.2412 58.3805H71.2249ZM30.9033 52.3731C30.3271 52.1215 29.7874 51.9064 29.2133 51.6528C28.6391 51.3992 28.0974 51.1497 27.5233 50.8616C26.5088 50.3949 25.5451 49.8898 24.5733 49.3866C23.4574 48.8104 22.3416 48.1693 21.2277 47.516C20.2133 46.9073 19.213 46.2987 18.2067 45.6454C17.7746 45.3573 17.3424 45.1057 16.9468 44.8176C16.2265 44.351 15.5449 43.8458 14.8611 43.3426C13.8183 42.5879 12.7754 41.7966 11.7671 41.0054C10.5802 40.0701 9.42984 39.0983 8.27744 38.0554C7.09056 37.0126 5.94023 35.8967 4.82842 34.7829L4.21972 34.1742C3.20529 33.1314 2.20509 32.0885 1.23327 30.9727C0.905961 32.4337 0.654031 33.9107 0.478516 35.3976C1.55787 36.5135 2.63725 37.6294 3.78761 38.7067C5.18955 40.0741 6.66452 41.3685 8.17603 42.592C9.2919 43.4907 10.4077 44.3895 11.5216 45.2538C12.4934 45.9741 13.4998 46.6923 14.5081 47.376C15.5875 48.1307 16.7013 48.851 17.8172 49.5347C18.7883 50.1461 19.7594 50.7216 20.7306 51.2613C21.8099 51.8699 22.8893 52.4482 24.0032 53.0243C24.3623 53.2049 24.7579 53.3834 25.1191 53.6005C25.6953 53.8886 26.3059 54.1767 26.8821 54.4648C27.6734 54.8239 28.5052 55.2196 29.3289 55.5442C29.688 55.3636 30.0492 55.1851 30.3718 55.0045C31.4146 54.4635 32.4216 53.9225 33.3928 53.3814C32.5934 53.0852 31.7291 52.7322 30.9033 52.3731ZM40.1488 55.6456C39.7431 55.5381 39.3576 55.4306 38.962 55.2865C38.2417 55.7532 37.5235 56.1853 36.8033 56.6175C36.1946 56.9766 35.5433 57.3377 34.9326 57.6968C35.4358 57.8774 35.9471 58.0559 36.4442 58.2C37.3795 58.5246 38.3513 58.8086 39.3211 59.0643L39.5016 59.1008C40.8691 58.273 42.2 57.4094 43.4944 56.5099C42.3772 56.2557 41.2613 55.9682 40.1468 55.6477L40.1488 55.6456ZM40.1488 55.6456C39.7431 55.5381 39.3576 55.4306 38.962 55.2865C38.2417 55.7532 37.5235 56.1853 36.8033 56.6175C36.1946 56.9766 35.5433 57.3377 34.9326 57.6968C35.4358 57.8774 35.9471 58.0559 36.4442 58.2C37.3795 58.5246 38.3513 58.8086 39.3211 59.0643L39.5016 59.1008C40.8691 58.273 42.2 57.4094 43.4944 56.5099C42.3772 56.2557 41.2613 55.9682 40.1468 55.6477L40.1488 55.6456ZM40.1488 55.6456C39.7431 55.5381 39.3576 55.4306 38.962 55.2865C38.2417 55.7532 37.5235 56.1853 36.8033 56.6175C36.1946 56.9766 35.5433 57.3377 34.9326 57.6968C35.4358 57.8774 35.9471 58.0559 36.4442 58.2C37.3795 58.5246 38.3513 58.8086 39.3211 59.0643L39.5016 59.1008C40.8691 58.273 42.2 57.4094 43.4944 56.5099C42.3772 56.2557 41.2613 55.9682 40.1468 55.6477L40.1488 55.6456ZM40.1488 55.6456C39.7431 55.5381 39.3576 55.4306 38.962 55.2865C38.2417 55.7532 37.5235 56.1853 36.8033 56.6175C36.1946 56.9766 35.5433 57.3377 34.9326 57.6968C35.4358 57.8774 35.9471 58.0559 36.4442 58.2C37.3795 58.5246 38.3513 58.8086 39.3211 59.0643L39.5016 59.1008C40.8691 58.273 42.2 57.4094 43.4944 56.5099C42.3772 56.2557 41.2613 55.9682 40.1468 55.6477L40.1488 55.6456ZM40.1488 55.6456C39.7431 55.5381 39.3576 55.4306 38.962 55.2865C38.2417 55.7532 37.5235 56.1853 36.8033 56.6175C36.1946 56.9766 35.5433 57.3377 34.9326 57.6968C35.4358 57.8774 35.9471 58.0559 36.4442 58.2C37.3795 58.5246 38.3513 58.8086 39.3211 59.0643L39.5016 59.1008C40.8691 58.273 42.2 57.4094 43.4944 56.5099C42.3772 56.2557 41.2613 55.9682 40.1468 55.6477L40.1488 55.6456Z" fill="white"/>
<path d="M41.435 47.9865C40.3921 47.6984 39.3838 47.4103 38.341 47.0512C38.0529 46.9437 37.7323 46.8707 37.4422 46.7631C36.5779 46.475 35.7522 46.1869 34.9244 45.8643C33.8816 45.4586 32.8732 45.0731 31.8304 44.647L31.5423 44.5395C30.4629 44.0729 29.4201 43.6042 28.3773 43.1376C27.3344 42.6344 26.2916 42.1231 25.2487 41.5916C24.0618 40.9829 22.9115 40.3316 21.7591 39.6499C20.6797 39.0027 19.6004 38.3555 18.5575 37.6718L17.5858 37.0246C16.687 36.4159 15.8227 35.8073 14.9604 35.1986C13.8459 34.3708 12.7307 33.5072 11.6148 32.6078C10.3204 31.5284 9.02394 30.4125 7.75996 29.2987L5.934 27.5721C5.46369 28.8033 5.07928 30.0656 4.7836 31.3499C5.89947 32.3927 7.01539 33.4011 8.16576 34.3708C9.35264 35.3853 10.5395 36.349 11.7994 37.2843C12.8422 38.0755 13.9216 38.8668 15.001 39.587C16.1513 40.3783 17.3037 41.133 18.4906 41.8533C19.505 42.5005 20.5418 43.1132 21.5846 43.6793C22.7005 44.3265 23.8509 44.8966 25.0012 45.4768C26.0157 45.98 27.0159 46.4913 28.0587 46.9518C29.1746 47.455 30.3249 47.9662 31.4408 48.3903C32.1611 48.6784 32.9158 48.9665 33.634 49.2546C33.9041 49.3666 34.1805 49.4628 34.4618 49.5427C35.5777 49.9484 36.728 50.3339 37.8784 50.693C37.9054 50.6972 37.9303 50.71 37.9494 50.7296C39.0998 49.9748 40.2522 49.2181 41.366 48.3923L41.7251 48.1407L41.435 47.9865ZM51.5793 50.1452C50.4289 49.9647 49.242 49.7861 48.0896 49.569C47.765 49.498 47.4424 49.4615 47.1543 49.3885C46.29 50.1087 45.3913 50.7904 44.529 51.4741C44.2044 51.7257 43.8818 51.9773 43.5572 52.1944C43.8291 52.2717 44.1055 52.332 44.385 52.375C45.4278 52.6265 46.5071 52.8416 47.55 53.0222L48.1262 53.1297C49.313 52.1944 50.4634 51.2226 51.5752 50.2528L51.6828 50.1452H51.5793ZM51.5793 50.1452C50.4289 49.9647 49.242 49.7861 48.0896 49.569C47.765 49.498 47.4424 49.4615 47.1543 49.3885C46.29 50.1087 45.3913 50.7904 44.529 51.4741C44.2044 51.7257 43.8818 51.9773 43.5572 52.1944C43.8291 52.2717 44.1055 52.332 44.385 52.375C45.4278 52.6265 46.5071 52.8416 47.55 53.0222L48.1262 53.1297C49.313 52.1944 50.4634 51.2226 51.5752 50.2528L51.6828 50.1452H51.5793ZM51.5793 50.1452C50.4289 49.9647 49.242 49.7861 48.0896 49.569C47.765 49.498 47.4424 49.4615 47.1543 49.3885C46.29 50.1087 45.3913 50.7904 44.529 51.4741C44.2044 51.7257 43.8818 51.9773 43.5572 52.1944C43.8291 52.2717 44.1055 52.332 44.385 52.375C45.4278 52.6265 46.5071 52.8416 47.55 53.0222L48.1262 53.1297C49.313 52.1944 50.4634 51.2226 51.5752 50.2528L51.6828 50.1452H51.5793ZM51.5793 50.1452C50.4289 49.9647 49.242 49.7861 48.0896 49.569C47.765 49.498 47.4424 49.4615 47.1543 49.3885C46.29 50.1087 45.3913 50.7904 44.529 51.4741C44.2044 51.7257 43.8818 51.9773 43.5572 52.1944C43.8291 52.2717 44.1055 52.332 44.385 52.375C45.4278 52.6265 46.5071 52.8416 47.55 53.0222L48.1262 53.1297C49.313 52.1944 50.4634 51.2226 51.5752 50.2528L51.6828 50.1452H51.5793ZM51.5793 50.1452C50.4289 49.9647 49.242 49.7861 48.0896 49.569C47.765 49.498 47.4424 49.4615 47.1543 49.3885C46.29 50.1087 45.3913 50.7904 44.529 51.4741C44.2044 51.7257 43.8818 51.9773 43.5572 52.1944C43.8291 52.2717 44.1055 52.332 44.385 52.375C45.4278 52.6265 46.5071 52.8416 47.55 53.0222L48.1262 53.1297C49.313 52.1944 50.4634 51.2226 51.5752 50.2528L51.6828 50.1452H51.5793ZM51.5793 50.1452C50.4289 49.9647 49.242 49.7861 48.0896 49.569C47.765 49.498 47.4424 49.4615 47.1543 49.3885C46.29 50.1087 45.3913 50.7904 44.529 51.4741C44.2044 51.7257 43.8818 51.9773 43.5572 52.1944C43.8291 52.2717 44.1055 52.332 44.385 52.375C45.4278 52.6265 46.5071 52.8416 47.55 53.0222L48.1262 53.1297C49.313 52.1944 50.4634 51.2226 51.5752 50.2528L51.6828 50.1452H51.5793ZM51.5793 50.1452C50.4289 49.9647 49.242 49.7861 48.0896 49.569C47.765 49.498 47.4424 49.4615 47.1543 49.3885C46.29 50.1087 45.3913 50.7904 44.529 51.4741C44.2044 51.7257 43.8818 51.9773 43.5572 52.1944C43.8291 52.2717 44.1055 52.332 44.385 52.375C45.4278 52.6265 46.5071 52.8416 47.55 53.0222L48.1262 53.1297C49.313 52.1944 50.4634 51.2226 51.5752 50.2528L51.6828 50.1452H51.5793ZM51.5793 50.1452C50.4289 49.9647 49.242 49.7861 48.0896 49.569C47.765 49.498 47.4424 49.4615 47.1543 49.3885C46.29 50.1087 45.3913 50.7904 44.529 51.4741C44.2044 51.7257 43.8818 51.9773 43.5572 52.1944C43.8291 52.2717 44.1055 52.332 44.385 52.375C45.4278 52.6265 46.5071 52.8416 47.55 53.0222L48.1262 53.1297C49.313 52.1944 50.4634 51.2226 51.5752 50.2528L51.6828 50.1452H51.5793ZM74.7813 50.1818L72.156 50.5064C70.9691 50.6504 69.7457 50.7214 68.5223 50.7945C67.4064 50.8655 66.2906 50.902 65.1768 50.9385C64.6006 50.9385 63.9898 50.975 63.4136 50.975C62.805 50.975 62.2268 50.975 61.614 50.9385C61.2897 50.9443 60.9652 50.9322 60.6422 50.902L58.305 50.7945C57.5137 50.758 56.759 50.6869 55.9677 50.6139C55.5011 51.0805 55.0324 51.5127 54.5658 51.9814C53.9186 52.59 53.2348 53.1987 52.5511 53.8073C53.0908 53.8783 53.6305 53.9514 54.2067 53.9879C55.2495 54.0954 56.2578 54.203 57.3007 54.276L57.7328 54.3125C58.8122 54.3835 59.8916 54.4201 60.979 54.4566C61.7703 54.4931 62.6021 54.4931 63.3893 54.4931H64.5762C65.692 54.4931 66.7694 54.4566 67.8853 54.3856C69.1026 54.3145 70.332 54.2415 71.5189 54.134L73.4261 53.9189C74.757 53.7749 76.088 53.5598 77.4189 53.3427C77.8568 52.1039 78.2292 50.8429 78.5347 49.565C77.3458 49.8206 76.0798 50.0357 74.7854 50.1797L74.7813 50.1818ZM41.435 47.9865C40.3921 47.6984 39.3838 47.4103 38.341 47.0512C38.0529 46.9437 37.7323 46.8707 37.4422 46.7631C36.5779 46.475 35.7522 46.1869 34.9244 45.8643C33.8816 45.4586 32.8732 45.0731 31.8304 44.647L31.5423 44.5395C30.4629 44.0729 29.4201 43.6042 28.3773 43.1376C27.3344 42.6344 26.2916 42.1231 25.2487 41.5916C24.0618 40.9829 22.9115 40.3316 21.7591 39.6499C20.6797 39.0027 19.6004 38.3555 18.5575 37.6718L17.5858 37.0246C16.687 36.4159 15.8227 35.8073 14.9604 35.1986C13.8459 34.3708 12.7307 33.5072 11.6148 32.6078C10.3204 31.5284 9.02394 30.4125 7.75996 29.2987L5.934 27.5721C5.76321 27.3949 5.58308 27.227 5.39434 27.069C4.6396 26.3142 3.91935 25.5575 3.19911 24.8027C2.68638 26.0117 2.24202 27.2486 1.86816 28.5074C2.80347 29.4793 3.77529 30.4146 4.74509 31.3478C5.86096 32.3907 6.97682 33.399 8.12718 34.3688C9.31406 35.3833 10.501 36.347 11.7609 37.2823C12.8037 38.0735 13.8831 38.8648 14.9625 39.585C16.1128 40.3763 17.2651 41.131 18.452 41.8512C19.4665 42.4985 20.5033 43.1112 21.5461 43.6772C22.662 44.3244 23.8123 44.8945 24.9627 45.4748C25.9771 45.978 26.9773 46.4892 28.0201 46.9498C29.136 47.4529 30.2864 47.9642 31.4023 48.3882C32.1225 48.6763 32.8773 48.9644 33.5955 49.2525C33.8656 49.3645 34.142 49.4607 34.4232 49.5406C35.5391 49.9464 36.6895 50.3319 37.8053 50.691C37.8323 50.6951 37.8573 50.708 37.8764 50.7275C39.0267 49.9728 40.1792 49.216 41.293 48.3903L41.6521 48.1387L41.435 47.9865ZM51.5793 50.1452C50.4289 49.9647 49.242 49.7861 48.0896 49.569C47.765 49.498 47.4424 49.4615 47.1543 49.3885C46.29 50.1087 45.3913 50.7904 44.529 51.4741C44.2044 51.7257 43.8818 51.9773 43.5572 52.1944C43.8291 52.2717 44.1055 52.332 44.385 52.375C45.4278 52.6265 46.5071 52.8416 47.55 53.0222L48.1262 53.1297C49.313 52.1944 50.4634 51.2226 51.5752 50.2528L51.6828 50.1452H51.5793ZM51.5793 50.1452C50.4289 49.9647 49.242 49.7861 48.0896 49.569C47.765 49.498 47.4424 49.4615 47.1543 49.3885C46.29 50.1087 45.3913 50.7904 44.529 51.4741C44.2044 51.7257 43.8818 51.9773 43.5572 52.1944C43.8291 52.2717 44.1055 52.332 44.385 52.375C45.4278 52.6265 46.5071 52.8416 47.55 53.0222L48.1262 53.1297C49.313 52.1944 50.4634 51.2226 51.5752 50.2528L51.6828 50.1452H51.5793ZM51.5793 50.1452C50.4289 49.9647 49.242 49.7861 48.0896 49.569C47.765 49.498 47.4424 49.4615 47.1543 49.3885C46.29 50.1087 45.3913 50.7904 44.529 51.4741C44.2044 51.7257 43.8818 51.9773 43.5572 52.1944C43.8291 52.2717 44.1055 52.332 44.385 52.375C45.4278 52.6265 46.5071 52.8416 47.55 53.0222L48.1262 53.1297C49.313 52.1944 50.4634 51.2226 51.5752 50.2528L51.6828 50.1452H51.5793ZM51.5793 50.1452C50.4289 49.9647 49.242 49.7861 48.0896 49.569C47.765 49.498 47.4424 49.4615 47.1543 49.3885C46.29 50.1087 45.3913 50.7904 44.529 51.4741C44.2044 51.7257 43.8818 51.9773 43.5572 52.1944C43.8291 52.2717 44.1055 52.332 44.385 52.375C45.4278 52.6265 46.5071 52.8416 47.55 53.0222L48.1262 53.1297C49.313 52.1944 50.4634 51.2226 51.5752 50.2528L51.6828 50.1452H51.5793ZM51.5793 50.1452C50.4289 49.9647 49.242 49.7861 48.0896 49.569C47.765 49.498 47.4424 49.4615 47.1543 49.3885C46.29 50.1087 45.3913 50.7904 44.529 51.4741C44.2044 51.7257 43.8818 51.9773 43.5572 52.1944C43.8291 52.2717 44.1055 52.332 44.385 52.375C45.4278 52.6265 46.5071 52.8416 47.55 53.0222L48.1262 53.1297C49.313 52.1944 50.4634 51.2226 51.5752 50.2528L51.6828 50.1452H51.5793ZM41.435 47.9865C40.3921 47.6984 39.3838 47.4103 38.341 47.0512C38.0529 46.9437 37.7323 46.8707 37.4422 46.7631C36.5779 46.475 35.7522 46.1869 34.9244 45.8643C33.8816 45.4586 32.8732 45.0731 31.8304 44.647L31.5423 44.5395C30.4629 44.0729 29.4201 43.6042 28.3773 43.1376C27.3344 42.6344 26.2916 42.1231 25.2487 41.5916C24.0618 40.9829 22.9115 40.3316 21.7591 39.6499C20.6797 39.0027 19.6004 38.3555 18.5575 37.6718L17.5858 37.0246C16.687 36.4159 15.8227 35.8073 14.9604 35.1986C13.8459 34.3708 12.7307 33.5072 11.6148 32.6078C10.3204 31.5284 9.02394 30.4125 7.75996 29.2987L5.934 27.5721C5.46369 28.8033 5.07928 30.0656 4.7836 31.3499C5.89947 32.3927 7.01539 33.4011 8.16576 34.3708C9.35264 35.3853 10.5395 36.349 11.7994 37.2843C12.8422 38.0755 13.9216 38.8668 15.001 39.587C16.1513 40.3783 17.3037 41.133 18.4906 41.8533C19.505 42.5005 20.5418 43.1132 21.5846 43.6793C22.7005 44.3265 23.8509 44.8966 25.0012 45.4768C26.0157 45.98 27.0159 46.4913 28.0587 46.9518C29.1746 47.455 30.3249 47.9662 31.4408 48.3903C32.1611 48.6784 32.9158 48.9665 33.634 49.2546C33.9041 49.3666 34.1805 49.4628 34.4618 49.5427C35.5777 49.9484 36.728 50.3339 37.8784 50.693C37.9054 50.6972 37.9303 50.71 37.9494 50.7296C39.0998 49.9748 40.2522 49.2181 41.366 48.3923L41.7251 48.1407L41.435 47.9865ZM51.5793 50.1452C50.4289 49.9647 49.242 49.7861 48.0896 49.569C47.765 49.498 47.4424 49.4615 47.1543 49.3885C46.29 50.1087 45.3913 50.7904 44.529 51.4741C44.2044 51.7257 43.8818 51.9773 43.5572 52.1944C43.8291 52.2717 44.1055 52.332 44.385 52.375C45.4278 52.6265 46.5071 52.8416 47.55 53.0222L48.1262 53.1297C49.313 52.1944 50.4634 51.2226 51.5752 50.2528L51.6828 50.1452H51.5793ZM41.435 47.9865C40.3921 47.6984 39.3838 47.4103 38.341 47.0512C38.0529 46.9437 37.7323 46.8707 37.4422 46.7631C36.5779 46.475 35.7522 46.1869 34.9244 45.8643C33.8816 45.4586 32.8732 45.0731 31.8304 44.647L31.5423 44.5395C30.4629 44.0729 29.4201 43.6042 28.3773 43.1376C27.3344 42.6344 26.2916 42.1231 25.2487 41.5916C24.0618 40.9829 22.9115 40.3316 21.7591 39.6499C20.6797 39.0027 19.6004 38.3555 18.5575 37.6718L17.5858 37.0246C16.687 36.4159 15.8227 35.8073 14.9604 35.1986C13.8459 34.3708 12.7307 33.5072 11.6148 32.6078C10.3204 31.5284 9.02394 30.4125 7.75996 29.2987L5.934 27.5721C5.46369 28.8033 5.07928 30.0656 4.7836 31.3499C5.89947 32.3927 7.01539 33.4011 8.16576 34.3708C9.35264 35.3853 10.5395 36.349 11.7994 37.2843C12.8422 38.0755 13.9216 38.8668 15.001 39.587C16.1513 40.3783 17.3037 41.133 18.4906 41.8533C19.505 42.5005 20.5418 43.1132 21.5846 43.6793C22.7005 44.3265 23.8509 44.8966 25.0012 45.4768C26.0157 45.98 27.0159 46.4913 28.0587 46.9518C29.1746 47.455 30.3249 47.9662 31.4408 48.3903C32.1611 48.6784 32.9158 48.9665 33.634 49.2546C33.9041 49.3666 34.1805 49.4628 34.4618 49.5427C35.5777 49.9484 36.728 50.3339 37.8784 50.693C37.9054 50.6972 37.9303 50.71 37.9494 50.7296C39.0998 49.9748 40.2522 49.2181 41.366 48.3923L41.7251 48.1407L41.435 47.9865ZM51.5793 50.1452C50.4289 49.9647 49.242 49.7861 48.0896 49.569C47.765 49.498 47.4424 49.4615 47.1543 49.3885C46.29 50.1087 45.3913 50.7904 44.529 51.4741C44.2044 51.7257 43.8818 51.9773 43.5572 52.1944C43.8291 52.2717 44.1055 52.332 44.385 52.375C45.4278 52.6265 46.5071 52.8416 47.55 53.0222L48.1262 53.1297C49.313 52.1944 50.4634 51.2226 51.5752 50.2528L51.6828 50.1452H51.5793Z" fill="white"/>
<path d="M55.6121 43.058C55.1455 42.987 54.6768 42.914 54.1736 42.8429C53.8145 43.2487 53.4189 43.6342 53.0578 43.9933C52.7697 44.2814 52.4491 44.5695 52.159 44.8921C51.7999 45.2512 51.4387 45.5758 51.0796 45.9065C51.4042 45.9775 51.7268 46.0141 52.0515 46.0871C53.1308 46.2677 54.2467 46.4462 55.324 46.5903H55.468C56.5109 45.5474 57.5192 44.4681 58.5256 43.3887L55.6121 43.058ZM55.6121 43.058C55.1455 42.987 54.6768 42.914 54.1736 42.8429C53.8145 43.2487 53.4189 43.6342 53.0578 43.9933C52.7697 44.2814 52.4491 44.5695 52.159 44.8921C51.7999 45.2512 51.4387 45.5758 51.0796 45.9065C51.4042 45.9775 51.7268 46.0141 52.0515 46.0871C53.1308 46.2677 54.2467 46.4462 55.324 46.5903H55.468C56.5109 45.5474 57.5192 44.4681 58.5256 43.3887L55.6121 43.058ZM55.6121 43.058C55.1455 42.987 54.6768 42.914 54.1736 42.8429C53.8145 43.2487 53.4189 43.6342 53.0578 43.9933C52.7697 44.2814 52.4491 44.5695 52.159 44.8921C51.7999 45.2512 51.4387 45.5758 51.0796 45.9065C51.4042 45.9775 51.7268 46.0141 52.0515 46.0871C53.1308 46.2677 54.2467 46.4462 55.324 46.5903H55.468C56.5109 45.5474 57.5192 44.4681 58.5256 43.3887L55.6121 43.058ZM55.6121 43.058C55.1455 42.987 54.6768 42.914 54.1736 42.8429C53.8145 43.2487 53.4189 43.6342 53.0578 43.9933C52.7697 44.2814 52.4491 44.5695 52.159 44.8921C51.7999 45.2512 51.4387 45.5758 51.0796 45.9065C51.4042 45.9775 51.7268 46.0141 52.0515 46.0871C53.1308 46.2677 54.2467 46.4462 55.324 46.5903H55.468C56.5109 45.5474 57.5192 44.4681 58.5256 43.3887L55.6121 43.058ZM55.6121 43.058C55.1455 42.987 54.6768 42.914 54.1736 42.8429C53.8145 43.2487 53.4189 43.6342 53.0578 43.9933C52.7697 44.2814 52.4491 44.5695 52.159 44.8921C51.7999 45.2512 51.4387 45.5758 51.0796 45.9065C51.4042 45.9775 51.7268 46.0141 52.0515 46.0871C53.1308 46.2677 54.2467 46.4462 55.324 46.5903H55.468C56.5109 45.5474 57.5192 44.4681 58.5256 43.3887L55.6121 43.058ZM55.6121 43.058C55.1455 42.987 54.6768 42.914 54.1736 42.8429C53.8145 43.2487 53.4189 43.6342 53.0578 43.9933C52.7697 44.2814 52.4491 44.5695 52.159 44.8921C51.7999 45.2512 51.4387 45.5758 51.0796 45.9065C51.4042 45.9775 51.7268 46.0141 52.0515 46.0871C53.1308 46.2677 54.2467 46.4462 55.324 46.5903H55.468C56.5109 45.5474 57.5192 44.4681 58.5256 43.3887L55.6121 43.058ZM76.1158 43.2021L72.9142 43.5267C71.7273 43.5977 70.5404 43.6707 69.3535 43.7072C68.4893 43.7438 67.6636 43.7438 66.7993 43.7438H66.008C64.8211 43.7438 63.6342 43.7072 62.4818 43.6362H62.3743C61.439 44.7866 60.5037 45.9025 59.4974 46.9818C60.3617 47.0528 61.2604 47.1259 62.1592 47.1624C62.7679 47.1989 63.3765 47.2334 63.9852 47.2334C64.5614 47.2334 65.1356 47.2699 65.7118 47.2699H66.5761C67.4038 47.2699 68.2316 47.2699 69.0573 47.2334C70.2442 47.1969 71.4311 47.1259 72.618 47.0528C73.6324 46.9818 74.6327 46.9088 75.639 46.8013C76.8563 46.6572 78.0858 46.5132 79.3072 46.3346C79.4878 45.1477 79.6317 43.9243 79.7129 42.7009C78.4895 42.914 77.3026 43.0945 76.1158 43.2021ZM55.6121 43.058C55.1455 42.987 54.6768 42.914 54.1736 42.8429C53.8145 43.2487 53.4189 43.6342 53.0578 43.9933C52.7697 44.2814 52.4491 44.5695 52.159 44.8921C51.7999 45.2512 51.4387 45.5758 51.0796 45.9065C51.4042 45.9775 51.7268 46.0141 52.0515 46.0871C53.1308 46.2677 54.2467 46.4462 55.324 46.5903H55.468C56.5109 45.5474 57.5192 44.4681 58.5256 43.3887L55.6121 43.0641V43.058ZM55.6121 43.058C55.1455 42.987 54.6768 42.914 54.1736 42.8429C53.8145 43.2487 53.4189 43.6342 53.0578 43.9933C52.7697 44.2814 52.4491 44.5695 52.159 44.8921C51.7999 45.2512 51.4387 45.5758 51.0796 45.9065C51.4042 45.9775 51.7268 46.0141 52.0515 46.0871C53.1308 46.2677 54.2467 46.4462 55.324 46.5903H55.468C56.5109 45.5474 57.5192 44.4681 58.5256 43.3887L55.6121 43.0641V43.058ZM55.6121 43.058C55.1455 42.987 54.6768 42.914 54.1736 42.8429C53.8145 43.2487 53.4189 43.6342 53.0578 43.9933C52.7697 44.2814 52.4491 44.5695 52.159 44.8921C51.7999 45.2512 51.4387 45.5758 51.0796 45.9065C51.4042 45.9775 51.7268 46.0141 52.0515 46.0871C53.1308 46.2677 54.2467 46.4462 55.324 46.5903H55.468C56.5109 45.5474 57.5192 44.4681 58.5256 43.3887L55.6121 43.0641V43.058ZM55.6121 43.058C55.1455 42.987 54.6768 42.914 54.1736 42.8429C53.8145 43.2487 53.4189 43.6342 53.0578 43.9933C52.7697 44.2814 52.4491 44.5695 52.159 44.8921C51.7999 45.2512 51.4387 45.5758 51.0796 45.9065C51.4042 45.9775 51.7268 46.0141 52.0515 46.0871C53.1308 46.2677 54.2467 46.4462 55.324 46.5903H55.468C56.5109 45.5474 57.5192 44.4681 58.5256 43.3887L55.6121 43.0641V43.058ZM55.6121 43.058C55.1455 42.987 54.6768 42.914 54.1736 42.8429C53.8145 43.2487 53.4189 43.6342 53.0578 43.9933C52.7697 44.2814 52.4491 44.5695 52.159 44.8921C51.7999 45.2512 51.4387 45.5758 51.0796 45.9065C51.4042 45.9775 51.7268 46.0141 52.0515 46.0871C53.1308 46.2677 54.2467 46.4462 55.324 46.5903H55.468C56.5109 45.5474 57.5192 44.4681 58.5256 43.3887L55.6121 43.0641V43.058ZM55.6121 43.058C55.1455 42.987 54.6768 42.914 54.1736 42.8429C53.8145 43.2487 53.4189 43.6342 53.0578 43.9933C52.7697 44.2814 52.4491 44.5695 52.159 44.8921C51.7999 45.2512 51.4387 45.5758 51.0796 45.9065C51.4042 45.9775 51.7268 46.0141 52.0515 46.0871C53.1308 46.2677 54.2467 46.4462 55.324 46.5903H55.468C56.5109 45.5474 57.5192 44.4681 58.5256 43.3887L55.6121 43.0641V43.058ZM55.6121 43.058C55.1455 42.987 54.6768 42.914 54.1736 42.8429C53.8145 43.2487 53.4189 43.6342 53.0578 43.9933C52.7697 44.2814 52.4491 44.5695 52.159 44.8921C51.7999 45.2512 51.4387 45.5758 51.0796 45.9065C51.4042 45.9775 51.7268 46.0141 52.0515 46.0871C53.1308 46.2677 54.2467 46.4462 55.324 46.5903H55.468C56.5109 45.5474 57.5192 44.4681 58.5256 43.3887L55.6121 43.0641V43.058ZM55.6121 43.058C55.1455 42.987 54.6768 42.914 54.1736 42.8429C53.8145 43.2487 53.4189 43.6342 53.0578 43.9933C52.7697 44.2814 52.4491 44.5695 52.159 44.8921C51.7999 45.2512 51.4387 45.5758 51.0796 45.9065C51.4042 45.9775 51.7268 46.0141 52.0515 46.0871C53.1308 46.2677 54.2467 46.4462 55.324 46.5903H55.468C56.5109 45.5474 57.5192 44.4681 58.5256 43.3887L55.6121 43.0641V43.058ZM62.3743 43.6667C61.439 44.817 60.5037 45.9329 59.4974 47.0123C60.3617 47.0833 61.2604 47.1563 62.1592 47.1928C62.3033 46.006 62.3743 44.8556 62.4838 43.6687L62.3743 43.6667ZM48.8134 41.8407C47.6975 41.5891 46.5817 41.3375 45.5043 41.0494L45.0722 40.9419C44.0293 40.6538 43.021 40.3657 41.9782 40.0431C40.8988 39.7185 39.856 39.3594 38.7766 38.9638C37.5897 38.5316 36.4029 38.065 35.2525 37.5963L34.6439 37.3447C33.7796 36.9856 32.8808 36.59 32.0185 36.1944C30.8012 35.6182 29.6082 35.044 28.4213 34.4313C27.3054 33.8551 26.1895 33.2444 25.1122 32.6053C23.8523 31.8506 22.5944 31.0938 21.371 30.2681C21.1349 30.1249 20.9067 29.9691 20.6873 29.8014C19.752 29.1542 18.8167 28.507 17.9179 27.8598C16.5504 26.8454 15.2195 25.8086 13.8886 24.6948C12.5942 23.6127 11.3349 22.4975 10.1109 21.3492C9.85927 21.0976 9.60768 20.8826 9.3561 20.629C9.068 20.3409 8.77992 20.0893 8.52834 19.8012C7.95215 19.225 7.37796 18.6508 6.83829 18.0381L6.04706 19.2554C6.33516 20.5498 6.62324 21.8463 6.87482 23.1407C7.08988 23.3557 7.34147 23.5728 7.55855 23.7879C8.67443 24.8672 9.86131 25.9101 11.0482 26.9164C12.1986 27.8882 13.3509 28.8235 14.5743 29.7568C15.7977 30.6901 17.0556 31.5828 18.352 32.4897C19.4314 33.2444 20.5453 33.9647 21.6611 34.6484C22.848 35.3686 24.0349 36.0868 25.2583 36.7341C26.3012 37.3103 27.3805 37.8844 28.4599 38.4241C29.6102 39.0003 30.7971 39.54 31.986 40.0796C33.0288 40.5463 34.0717 40.9784 35.1511 41.4106C36.3014 41.8772 37.4538 42.2749 38.6407 42.705C39.6551 43.0641 40.6919 43.3887 41.6982 43.7194L41.7692 43.7559C42.9196 44.115 44.072 44.4397 45.2588 44.7278L45.906 44.9083C46.8779 44.1171 47.8132 43.3258 48.712 42.4615L49.1786 42.0294L48.8134 41.8407ZM48.8134 41.8407C47.6975 41.5891 46.5817 41.3375 45.5043 41.0494L45.0722 40.9419C44.0293 40.6538 43.021 40.3657 41.9782 40.0431C40.8988 39.7185 39.856 39.3594 38.7766 38.9638C37.5897 38.5316 36.4029 38.065 35.2525 37.5963L34.6439 37.3447C33.7796 36.9856 32.8808 36.59 32.0185 36.1944C30.8012 35.6182 29.6082 35.044 28.4213 34.4313C27.3054 33.8551 26.1895 33.2444 25.1122 32.6053C23.8523 31.8506 22.5944 31.0938 21.371 30.2681C21.1349 30.1249 20.9067 29.9691 20.6873 29.8014C19.752 29.1542 18.8167 28.507 17.9179 27.8598C16.5504 26.8454 15.2195 25.8086 13.8886 24.6948C12.5942 23.6127 11.3349 22.4975 10.1109 21.3492C9.85927 21.0976 9.60768 20.8826 9.3561 20.629C9.068 20.3409 8.77992 20.0893 8.52834 19.8012C7.95215 19.225 7.37796 18.6508 6.83829 18.0381L6.04706 19.2554C5.64129 19.9026 5.29229 20.5498 4.93115 21.197L6.87277 23.1387C7.08783 23.3537 7.33942 23.5708 7.55651 23.7859C8.67238 24.8652 9.85927 25.9081 11.0462 26.9144C12.1965 27.8862 13.3489 28.8215 14.5723 29.7548C15.7957 30.688 17.0536 31.5807 18.3501 32.4876C19.4294 33.2424 20.5432 33.9626 21.6591 34.6464C22.846 35.3666 24.0329 36.0848 25.2563 36.732C26.2991 37.3082 27.3785 37.8824 28.4578 38.4221C29.6082 38.9983 30.7951 39.5379 31.984 40.0776C33.0268 40.5443 34.0697 40.9764 35.149 41.4085C36.2994 41.8752 37.4518 42.2728 38.6387 42.703C39.6531 43.0621 40.6898 43.3867 41.6961 43.7174L41.7672 43.7539C42.9175 44.113 44.0699 44.4376 45.2568 44.7257L45.904 44.9063C46.8758 44.115 47.8111 43.3238 48.7099 42.4595L49.1766 42.0273L48.8134 41.8407ZM48.8134 41.8407C47.6975 41.5891 46.5817 41.3375 45.5043 41.0494L45.0722 40.9419C44.0293 40.6538 43.021 40.3657 41.9782 40.0431C40.8988 39.7185 39.856 39.3594 38.7766 38.9638C37.5897 38.5316 36.4029 38.065 35.2525 37.5963L34.6439 37.3447C33.7796 36.9856 32.8808 36.59 32.0185 36.1944C30.8012 35.6182 29.6082 35.044 28.4213 34.4313C27.3054 33.8551 26.1895 33.2444 25.1122 32.6053C23.8523 31.8506 22.5944 31.0938 21.371 30.2681C21.1349 30.1249 20.9067 29.9691 20.6873 29.8014C19.752 29.1542 18.8167 28.507 17.9179 27.8598C16.5504 26.8454 15.2195 25.8086 13.8886 24.6948C12.5942 23.6127 11.3349 22.4975 10.1109 21.3492C9.85927 21.0976 9.60768 20.8826 9.3561 20.629C9.068 20.3409 8.77992 20.0893 8.52834 19.8012C7.95215 19.225 7.37796 18.6508 6.83829 18.0381L6.04706 19.2554C6.33516 20.5498 6.62324 21.8463 6.87482 23.1407C7.08988 23.3557 7.34147 23.5728 7.55855 23.7879C8.67443 24.8672 9.86131 25.9101 11.0482 26.9164C12.1986 27.8882 13.3509 28.8235 14.5743 29.7568C15.7977 30.6901 17.0556 31.5828 18.352 32.4897C19.4314 33.2444 20.5453 33.9647 21.6611 34.6484C22.848 35.3686 24.0349 36.0868 25.2583 36.7341C26.3012 37.3103 27.3805 37.8844 28.4599 38.4241C29.6102 39.0003 30.7971 39.54 31.986 40.0796C33.0288 40.5463 34.0717 40.9784 35.1511 41.4106C36.3014 41.8772 37.4538 42.2749 38.6407 42.705C39.6551 43.0641 40.6919 43.3887 41.6982 43.7194L41.7692 43.7559C42.9196 44.115 44.072 44.4397 45.2588 44.7278L45.906 44.9083C46.8779 44.1171 47.8132 43.3258 48.712 42.4615L49.1786 42.0294L48.8134 41.8407ZM6.11604 19.2027L6.90726 17.9854C6.61916 18.3911 6.36762 18.8131 6.11604 19.2027Z" fill="white"/>
<path d="M43.5271 52.1582C42.6628 52.7669 41.8005 53.4181 40.9362 53.9842C40.7546 54.0831 40.5857 54.2037 40.4331 54.3433C40.3621 54.7754 40.2525 55.2076 40.145 55.6377C39.8934 56.7881 39.6052 57.9405 39.3171 59.0868C39.3171 59.1578 39.2806 59.1943 39.2806 59.2673L39.4957 59.1233C40.8632 58.2955 42.1941 57.4319 43.4885 56.5324H43.5616V56.4614C43.8497 55.094 44.1377 53.7285 44.3528 52.3246C44.3893 52 44.4604 51.7159 44.4969 51.3893C44.1919 51.6678 43.8678 51.9247 43.5271 52.1582ZM37.8078 64.1285C37.2681 65.784 36.6573 67.4376 35.9817 69.0566C35.8377 69.3812 35.7301 69.7038 35.5759 70.0284C34.7847 71.899 33.9204 73.7331 32.9871 75.5672C32.4109 76.6466 31.8368 77.7259 31.2241 78.8134C32.4452 79.1018 33.6822 79.3179 34.9288 79.4606C35.5375 78.3447 36.1156 77.2288 36.6918 76.115C38.2337 73.0242 39.5796 69.8393 40.7212 66.5793C41.2973 64.8893 41.837 63.1972 42.3442 61.4707C40.8327 62.406 39.3232 63.2966 37.8117 64.1325L37.8078 64.1285ZM38.3818 3.80844C37.8787 2.65807 37.3391 1.50568 36.7994 0.359375C35.5395 0.466905 34.3181 0.610954 33.0947 0.826013C33.6709 1.90537 34.1741 3.02124 34.7178 4.13508C35.0424 4.81881 35.3264 5.50254 35.6166 6.18626C39.8977 16.2782 42.087 27.1338 42.0521 38.0962C42.0521 38.7434 42.0521 39.3561 42.0156 40.0033C41.979 41.1902 41.9446 42.3771 41.8716 43.564V43.635C41.764 45.0734 41.6565 46.5119 41.4759 47.9524C41.4759 48.0599 41.4394 48.1674 41.4394 48.3115L41.7985 48.0599C42.9854 47.1956 44.1722 46.2968 45.2881 45.3615C45.3246 45.1099 45.3246 44.8584 45.3611 44.6068C45.4321 43.4199 45.5052 42.1965 45.5417 41.0096V40.5065C45.5782 39.7152 45.5782 38.8834 45.5782 38.0962C45.5568 26.2943 43.1073 14.623 38.3818 3.80844Z" fill="white"/>
<path d="M34.93 57.6962C34.1753 58.1284 33.384 58.524 32.6272 58.9136C32.2316 60.4595 31.7651 62.0076 31.2599 63.517C32.7349 62.8333 34.1733 62.0786 35.6117 61.3218C35.8998 60.279 36.188 59.2361 36.4395 58.1568C36.5836 57.6171 36.6911 57.1139 36.7986 56.5743C36.188 56.976 35.5407 57.3371 34.93 57.6962ZM37.4479 46.7607C36.5836 46.4726 35.7578 46.1845 34.93 45.8619C34.859 46.7607 34.7495 47.6879 34.642 48.5948C34.6055 48.8829 34.5709 49.171 34.5344 49.4935C34.3538 50.7109 34.1753 51.9404 33.9582 53.1272C35.3256 52.3725 36.6201 51.5447 37.951 50.717V50.6459C38.1309 49.4584 38.275 48.2715 38.3832 47.0853L38.4907 46.1135C38.0849 46.3285 37.7705 46.5456 37.4479 46.7607ZM30.5497 67.6579C30.2616 67.7655 29.9735 67.9095 29.6509 68.0171C29.3994 68.7008 29.1112 69.3845 28.8231 70.0317C28.464 70.896 28.1029 71.7217 27.7073 72.5495C27.4922 72.9817 27.3015 73.4138 27.0986 73.8805C26.5955 74.9598 26.0558 76.0026 25.4756 77.0455C26.5915 77.4776 27.7073 77.8732 28.8577 78.1958C29.4339 77.153 29.9735 76.0737 30.4807 74.9943C31.1645 73.5924 31.7752 72.1539 32.3879 70.7134C33.0351 69.1674 33.6052 67.6194 34.151 66.047C32.9519 66.5806 31.759 67.1203 30.5417 67.66L30.5497 67.6579ZM32.0247 4.67197C31.558 3.55609 31.0529 2.47674 30.5497 1.39941C29.3994 1.68751 28.2469 2.00807 27.1006 2.41384C27.6038 3.4932 28.1152 4.57255 28.5757 5.66002C28.6467 5.87508 28.7562 6.06579 28.8272 6.26868C33.0393 16.1915 35.2286 26.8552 35.2668 37.6349V38.1745C35.2668 39.2539 35.2303 40.3332 35.1958 41.4207C36.3461 41.8874 37.4986 42.285 38.6855 42.7151C38.7565 41.4978 38.793 40.2683 38.793 39.0104V38.1644C38.8298 26.6568 36.5242 15.2621 32.0166 4.67399L32.0247 4.67197Z" fill="white"/>
<path d="M32.054 36.1498C31.8434 26.0042 29.8085 15.9794 26.0466 6.55477C25.6144 5.4389 25.1478 4.35954 24.6791 3.30859C23.5997 3.77523 22.5204 4.28042 21.4775 4.82009C21.6926 5.28673 21.8833 5.7554 22.0862 6.22204C22.3378 6.8307 22.5893 7.48196 22.8409 8.09265C26.1632 16.4819 28.048 25.371 28.4162 34.3867C28.4872 35.6466 28.4873 36.868 28.4873 38.1279V38.3795C29.6377 38.9557 30.8245 39.4954 32.0134 40.035C32.0134 39.3878 32.0499 38.7751 32.0499 38.1279L32.054 36.1498ZM29.2136 51.6523C28.6374 51.4007 28.0978 51.1491 27.5236 50.8975C27.4161 51.4737 27.343 52.0844 27.2355 52.6606C27.1279 53.2693 27.0204 53.8779 26.8764 54.4866L26.3367 56.9679C27.3511 56.5013 28.3513 56.0691 29.3232 55.566C29.6823 55.3854 30.007 55.2068 30.3661 55.0263C30.5466 54.162 30.7251 53.2632 30.8692 52.3644C30.9767 51.7882 31.0497 51.214 31.1572 50.6013C30.506 50.9706 29.8588 51.3297 29.2116 51.6543L29.2136 51.6523ZM31.5509 44.531C30.5081 44.0643 29.4287 43.5957 28.3859 43.129C28.3149 44.389 28.2052 45.6469 28.0612 46.8703C29.1771 47.3734 30.3274 47.8847 31.4433 48.3087C31.5873 47.0914 31.6949 45.8619 31.8024 44.6405L31.5509 44.531ZM27.0184 61.5734C26.2981 61.8615 25.5799 62.1496 24.8962 62.4377C24.464 63.8762 23.9609 65.3146 23.4212 66.7551C24.8962 66.252 26.3346 65.7123 27.7386 65.0996C28.2052 63.6246 28.6739 62.1496 29.0695 60.6746C28.3757 60.9708 27.7001 61.2934 27.0164 61.5815L27.0184 61.5734Z" fill="white"/>
<path d="M21.2602 47.5178C21.1162 48.7777 20.9356 50.0356 20.757 51.2955C20.5055 52.807 20.2174 54.282 19.8928 55.759C19.6047 57.1265 19.2455 58.4919 18.8783 59.8594C20.2458 59.3927 21.5767 58.9241 22.9076 58.3844C23.2322 56.9824 23.5549 55.615 23.8065 54.1765C23.8775 53.8174 23.9505 53.4218 24.0215 53.0262C24.2366 51.8088 24.4273 50.5794 24.5977 49.3215C23.4553 48.7773 22.3414 48.1753 21.2602 47.5178ZM21.7634 39.6053C21.7268 40.9362 21.6924 42.2671 21.5828 43.598C22.6987 44.2453 23.849 44.8154 24.9994 45.3956C25.1069 44.1357 25.1799 42.8413 25.251 41.5408C24.0661 40.9362 22.9137 40.2869 21.7634 39.6053ZM25.1455 32.555C24.6429 24.7006 23.0568 16.9534 20.4324 9.53348C20.0266 8.38311 19.6047 7.26724 19.1725 6.15137C18.1297 6.79857 17.1579 7.4823 16.186 8.20254C16.6527 9.35291 17.0503 10.5053 17.446 11.6922C19.4932 17.7028 20.8331 23.9315 21.4387 30.2522C21.5828 31.6907 21.6903 33.1656 21.7268 34.6406C22.9137 35.3609 24.1006 36.0791 25.324 36.7263C25.2895 35.3243 25.2165 33.9204 25.1455 32.555Z" fill="white"/>
<path d="M16.9778 44.8218C16.2576 44.3552 15.5758 43.85 14.8921 43.3469C14.8211 44.7143 14.6771 46.0797 14.533 47.4046C14.1339 50.9921 13.4968 54.5491 12.6259 58.052C12.3013 59.383 11.9422 60.6774 11.5466 61.9738C12.8775 61.6492 14.2084 61.2901 15.5393 60.931C15.8984 59.6001 16.2231 58.2691 16.5538 56.9382C17.0934 54.5279 17.5256 52.0811 17.8847 49.5633C18.0653 48.2689 18.2093 46.9724 18.3169 45.6415C17.853 45.3979 17.4057 45.1241 16.9778 44.8218ZM18.5603 37.6275L17.5885 36.9803C16.6897 36.3716 15.8254 35.763 14.9631 35.1543C14.9997 36.1688 15.0342 37.169 15.0342 38.1408V39.5083C16.1845 40.2995 17.3369 41.0543 18.5238 41.7745C18.5603 40.5876 18.5948 39.3642 18.5948 38.1408C18.5656 37.9721 18.5547 37.8006 18.5624 37.6295L18.5603 37.6275ZM17.9516 27.8078C17.3759 23.0465 16.4014 18.342 15.0382 13.7438C14.6791 12.4838 14.2835 11.2625 13.8513 10.0391C12.8802 10.902 11.9449 11.8015 11.0454 12.7375C11.4769 14.0684 11.8725 15.3993 12.2323 16.7302C12.9521 19.3342 13.5286 21.9757 13.9589 24.6428C14.247 26.3328 14.462 28.0249 14.6426 29.715C15.8599 30.6503 17.1239 31.5409 18.4203 32.4478C18.2743 30.8998 18.1302 29.3538 17.9415 27.8058L17.9516 27.8078Z" fill="white"/>
<path d="M8.59879 19.7488C8.0226 19.1726 7.44841 18.5984 6.90874 17.9857L6.11745 19.203C6.40555 20.4974 6.69369 21.7939 6.94527 23.0883C7.0528 23.5914 7.12583 24.1027 7.23336 24.6343L7.66547 23.77C8.20866 22.6837 8.80942 21.6272 9.46512 20.605C9.13847 20.2885 8.8524 20.0267 8.59879 19.7488ZM8.59879 19.7488C8.0226 19.1726 7.44841 18.5984 6.90874 17.9857L6.11745 19.203C6.40555 20.4974 6.69369 21.7939 6.94527 23.0883C7.0528 23.5914 7.12583 24.1027 7.23336 24.6343L7.66547 23.77C8.20866 22.6837 8.80942 21.6272 9.46512 20.605C9.13847 20.2885 8.8524 20.0267 8.59879 19.7488ZM8.59879 19.7488C8.0226 19.1726 7.44841 18.5984 6.90874 17.9857L6.11745 19.203C6.40555 20.4974 6.69369 21.7939 6.94527 23.0883C7.0528 23.5914 7.12583 24.1027 7.23336 24.6343L7.66547 23.77C8.20866 22.6837 8.80942 21.6272 9.46512 20.605C9.13847 20.2885 8.8524 20.0267 8.59879 19.7488ZM10.1813 21.2948C10.0738 20.8281 10.0007 20.3229 9.89321 19.8563C9.56859 18.3448 9.20944 16.8698 8.7773 15.3604C8.09357 16.1881 7.48288 17.0869 6.87016 17.9857L6.07894 19.203C6.36704 20.4974 6.65511 21.7939 6.90669 23.0883C7.01422 23.5914 7.08726 24.1027 7.19479 24.6343L7.62696 23.77C8.74283 24.8493 9.92972 25.8922 11.1166 26.8985C10.865 24.9914 10.5404 23.1207 10.1813 21.2866V21.2948ZM8.59879 19.7488C8.0226 19.1726 7.44841 18.5984 6.90874 17.9857L6.11745 19.203C6.40555 20.4974 6.69369 21.7939 6.94527 23.0883C7.0528 23.5914 7.12583 24.1027 7.23336 24.6343L7.66547 23.77C8.20866 22.6837 8.80942 21.6272 9.46512 20.605C9.13847 20.2885 8.8524 20.0267 8.59879 19.7488ZM8.59879 19.7488C8.0226 19.1726 7.44841 18.5984 6.90874 17.9857L6.11745 19.203C6.40555 20.4974 6.69369 21.7939 6.94527 23.0883C7.0528 23.5914 7.12583 24.1027 7.23336 24.6343L7.66547 23.77C8.20866 22.6837 8.80942 21.6272 9.46512 20.605C9.13847 20.2885 8.8524 20.0267 8.59879 19.7488ZM6.94322 23.0944C7.05075 23.5975 7.12379 24.1088 7.23132 24.6404L7.66349 23.7761C7.37742 23.5265 7.16033 23.3094 6.94527 23.0944H6.94322ZM6.94322 23.0944C7.05075 23.5975 7.12379 24.1088 7.23132 24.6404L7.66349 23.7761C7.37742 23.5265 7.16033 23.3094 6.94527 23.0944H6.94322ZM8.59879 19.7488C8.0226 19.1726 7.44841 18.5984 6.90874 17.9857C6.65716 18.3915 6.36903 18.777 6.11745 19.203C6.40555 20.4974 6.69369 21.7939 6.94527 23.0883C7.0528 23.5914 7.12583 24.1027 7.23336 24.6343L7.66547 23.77C8.20866 22.6837 8.80942 21.6272 9.46512 20.605C9.13847 20.2885 8.8524 20.0267 8.59879 19.7488ZM11.6563 32.5549C10.3618 31.4756 9.06542 30.3597 7.80144 29.2459C7.98201 30.9359 8.12602 32.628 8.20717 34.318C9.39406 35.3325 10.581 36.2962 11.8409 37.2315C11.8003 35.6124 11.7597 34.0644 11.6563 32.5549ZM8.3107 38.0937V38.1303C8.3107 39.6418 8.27416 41.1512 8.20315 42.6262C7.99992 46.554 7.50694 50.4614 6.72819 54.3165C6.36908 56.1141 5.97345 57.8772 5.46826 59.6402V59.7112C6.08465 60.8004 6.75707 61.8568 7.48288 62.8763C7.66345 63.1278 7.84203 63.3794 8.0226 63.5965C8.13013 63.3084 8.20317 63.0203 8.3107 62.6977C8.67048 61.5102 8.99437 60.3233 9.28247 59.1371C9.31899 59.0295 9.31899 58.9565 9.35349 58.849C10.4752 54.388 11.2217 49.841 11.5852 45.2556C11.6928 43.8537 11.8003 42.4152 11.8368 40.9747C10.6134 40.0719 9.42657 39.098 8.3107 38.0937ZM8.59879 19.7488C8.0226 19.1726 7.44841 18.5984 6.90874 17.9857C6.65716 18.3915 6.36903 18.777 6.11745 19.203C6.40555 20.4974 6.69369 21.7939 6.94527 23.0883C7.0528 23.5914 7.12583 24.1027 7.23336 24.6343L7.66547 23.77C8.20866 22.6837 8.80942 21.6272 9.46512 20.605C9.1405 20.2803 8.85641 20.0288 8.60077 19.7407L8.59879 19.7488ZM6.94322 23.0944C7.05075 23.5975 7.12379 24.1088 7.23132 24.6404L7.66349 23.7761C7.37742 23.5265 7.16033 23.3094 6.94527 23.0944H6.94322Z" fill="white"/>
<path d="M51.0756 45.8988C50.1403 46.7631 49.205 47.6253 48.2352 48.4531C48.1987 48.8122 48.1277 49.2078 48.0912 49.569C47.9106 50.7193 47.7321 51.9062 47.515 53.0586L47.4075 53.7058C47.6225 53.5253 47.8761 53.3467 48.0912 53.1661C49.278 52.2308 50.4284 51.259 51.5402 50.2892V50.1817C51.7208 48.8508 51.8993 47.4833 52.0068 46.124L52.1145 44.9371C51.798 45.215 51.4388 45.5742 51.0756 45.8988ZM48.0546 57.5181C47.446 57.9847 46.8374 58.4168 46.2287 58.849C46.0847 59.4576 45.904 60.0663 45.7255 60.6466C45.4009 61.8334 45.0053 63.0203 44.6096 64.1727C43.9624 66.1509 43.2077 68.0945 42.3779 70.0361C41.4791 72.1218 40.5072 74.2095 39.4279 76.2221C38.8165 77.4097 38.1694 78.5594 37.4863 79.6712C38.2776 79.7077 39.1094 79.7422 39.9331 79.7422C40.4728 79.7422 41.0125 79.7422 41.5562 79.7057C42.2392 78.4884 42.8865 77.2656 43.4979 76.0375C45.8395 71.2934 47.741 66.3446 49.1787 61.2532C49.2194 61.1494 49.2433 61.0399 49.2496 60.9286C49.5377 59.8857 49.7893 58.8429 50.0409 57.8001C50.2215 57.0088 50.4 56.2176 50.5806 55.3898C49.7887 56.1544 48.9462 56.8648 48.0587 57.516L48.0546 57.5181ZM52.2929 33.8473C51.7924 23.6216 49.4558 13.5693 45.3948 4.1712C44.8538 2.91195 44.2783 1.65271 43.6683 0.393459C42.4509 0.28593 41.2215 0.212891 40.0001 0.212891H39.5943C40.203 1.39977 40.7812 2.58666 41.3574 3.77354C41.7165 4.5648 42.0776 5.35605 42.4368 6.18383C46.611 16.0558 48.7992 26.6535 48.8764 37.3715V38.0917C48.8764 39.3516 48.8398 40.573 48.8053 41.7964C48.8111 41.9771 48.7989 42.1579 48.7688 42.3361L49.2355 41.9039C50.3148 40.9321 51.3577 39.8893 52.4005 38.8465V38.0917C52.4107 36.6898 52.3741 35.2858 52.2929 33.8473ZM51.0756 45.8967C50.1403 46.761 49.205 47.6253 48.2352 48.4531C48.1987 48.8122 48.1277 49.2078 48.0912 49.569C47.9106 50.7193 47.7321 51.9062 47.515 53.0586L47.4075 53.7058C47.6225 53.5253 47.8761 53.3467 48.0912 53.1661C49.278 52.2308 50.4284 51.259 51.5402 50.2892V50.1797C51.7208 48.8487 51.8993 47.4813 52.0068 46.1219L52.1145 44.9371C51.7898 45.2252 51.4307 45.5823 51.0715 45.9069L51.0756 45.8967Z" fill="white"/>
<path d="M58.4899 26.1863C57.5268 19.3413 55.7392 12.6379 53.1661 6.22227C52.5575 4.74729 51.9488 3.27231 51.259 1.83385C49.7934 1.39719 48.3028 1.04895 46.7955 0.791016C47.4792 2.12195 48.1264 3.45288 48.7026 4.78381C48.9177 5.25045 49.1084 5.71912 49.3112 6.15127C52.5505 13.8043 54.603 21.9068 55.3978 30.1791C55.5419 31.8691 55.6495 33.5612 55.7225 35.2877C56.8729 33.9933 57.9887 32.6624 59.0316 31.2949C58.8855 29.6008 58.707 27.8763 58.4899 26.1863ZM53.2736 58.2727C52.9855 59.4231 52.665 60.5754 52.3383 61.7218C51.4941 64.5465 50.4972 67.3234 49.3519 70.0401C48.5606 71.9472 47.6618 73.8178 46.7265 75.6519C46.0435 76.9828 45.324 78.2779 44.5679 79.5372C46.0811 79.364 47.5824 79.0997 49.0638 78.7459C49.8186 77.344 50.5387 75.94 51.2225 74.465C53.1006 70.4568 54.6608 66.3072 55.8888 62.0545C56.2134 60.9041 56.536 59.7517 56.8241 58.5648C55.6494 58.5243 54.4626 58.4107 53.2757 58.2727H53.2736ZM56.5828 50.072L56.0066 50.6482C55.5399 51.1149 55.0712 51.547 54.6046 52.0157C54.497 52.6994 54.353 53.3831 54.1988 54.0303C53.9472 55.2903 53.6592 56.5482 53.3711 57.8081C54.702 56.6922 56.0329 55.5418 57.2928 54.3184L57.725 54.355L57.8325 53.8153C58.0131 52.8435 58.1916 51.8371 58.3356 50.8653C58.4797 49.8509 58.6237 48.8872 58.7414 47.8788C58.0577 48.5991 57.3395 49.3518 56.5828 50.072ZM59.2811 37.0143C58.1307 38.4528 56.9439 39.8547 55.684 41.2221C55.6475 41.8308 55.6474 42.4395 55.6129 43.0481C55.5419 44.235 55.4324 45.3854 55.3249 46.5743V46.7548L55.4689 46.6108C56.5117 45.568 57.5201 44.4886 58.5264 43.4093C58.7415 43.1577 58.9585 42.9061 59.1736 42.689C59.2446 41.1775 59.2811 39.7025 59.2811 38.1931V37.0062V37.0143Z" fill="white"/>
<path d="M66.0793 33.7417C65.9718 31.7636 65.8277 29.8199 65.5762 27.9148C64.7849 29.2458 63.953 30.5767 63.0583 31.8711C62.8777 32.1592 62.6627 32.4473 62.4497 32.7354C62.5572 34.533 62.6302 36.3326 62.6302 38.1301V38.4548C63.8495 36.9433 64.9654 35.3526 66.0793 33.7417ZM62.4821 43.5249V43.671C62.4111 44.8578 62.3016 46.0082 62.1575 47.1971C62.05 48.0249 61.9424 48.8872 61.8328 49.7149C62.5531 48.9237 63.2714 48.0918 63.9916 47.2681C64.5678 47.2681 65.142 47.3046 65.7182 47.3046C65.7892 46.5134 65.8623 45.6816 65.9333 44.8944C65.9698 44.5352 66.0042 44.1396 66.0042 43.7785C66.1118 42.0519 66.1848 40.3294 66.1848 38.5988C64.9999 40.2523 63.7725 41.9058 62.4821 43.5249ZM63.7421 17.734C63.2024 15.4678 62.5552 13.2705 61.8349 11.0793C61.1877 9.17222 60.504 7.30161 59.7493 5.46752C58.1607 4.56843 56.5144 3.77544 54.8211 3.09375C55.3243 4.13658 55.7917 5.17942 56.2231 6.22225C56.4747 6.79845 56.6898 7.37262 56.9414 7.94881C58.7773 12.5706 60.1858 17.351 61.1492 22.23C61.4738 23.92 61.7579 25.6466 61.977 27.3731C62.9914 25.9347 63.9551 24.4232 64.8538 22.9096C64.5292 21.1831 64.1336 19.42 63.738 17.7299L63.7421 17.734ZM62.8068 58.8123C61.8715 58.8123 60.9362 58.8123 60.0374 58.7758C59.7493 59.9627 59.3902 61.1131 59.023 62.2655C58.1952 64.8908 57.2598 67.4817 56.1825 70.036C55.7504 71.0504 55.2837 72.0872 54.815 73.0935C54.0603 74.7166 53.2691 76.2585 52.4048 77.8065C54.1364 77.2287 55.8304 76.5437 57.4769 75.7554C58.3412 73.9578 59.167 72.1582 59.9237 70.2876C60.9808 67.6865 61.9051 65.0334 62.6931 62.3385C63.0522 61.1881 63.3403 60.0013 63.6649 58.8123H62.8068ZM63.4539 50.9708C62.8453 50.9708 62.2671 50.9708 61.6564 50.9343C61.4758 52.1212 61.2507 53.2715 61.0092 54.4604C61.8005 54.497 62.6323 54.497 63.4195 54.497H64.6063C64.8214 53.3101 65.0386 52.1597 65.2151 50.9363C64.6409 50.9749 64.0301 50.9749 63.4539 50.9749V50.9708Z" fill="white"/>
<path d="M72.9852 34.3867C72.8776 32.1549 72.6971 29.9983 72.4455 27.803C71.5102 29.7447 70.5038 31.6579 69.388 33.4839C69.459 35.0298 69.532 36.5779 69.532 38.1239C69.532 38.7325 69.532 39.3412 69.4955 39.9498C69.4589 41.2097 69.4245 42.4676 69.3149 43.691C69.2432 44.8786 69.1351 46.0655 68.9903 47.2517C70.1772 47.2152 71.3641 47.1442 72.551 47.0711C72.6585 45.8842 72.766 44.6974 72.839 43.5105C72.9466 41.7129 73.0196 39.9133 73.0196 38.1157C73.0561 36.87 73.0217 35.6101 72.9852 34.3867ZM66.8986 58.7026C66.574 59.8895 66.2514 61.1129 65.8841 62.2998C65.4175 63.8457 64.8697 65.3572 64.3381 66.8322C63.9323 67.9116 63.5103 68.9544 63.0802 70.0338C62.6136 71.1841 62.0657 72.3 61.5342 73.4504C63.6144 72.1119 65.5651 70.5823 67.3611 68.8814C68.2254 66.6496 68.9842 64.3854 69.6639 62.0827C69.8789 61.3989 70.0696 60.6807 70.2401 59.997C70.3841 59.4938 70.4917 58.9542 70.6458 58.451C69.3859 58.5585 68.1646 58.6661 66.9046 58.7026H66.8986ZM68.5541 50.8245C68.3742 52.0121 68.1585 53.199 67.9069 54.3852C69.1243 54.3142 70.3537 54.2411 71.5405 54.1336C71.7556 52.9467 71.9728 51.7233 72.1493 50.5364C70.9705 50.6399 69.7836 50.7535 68.5601 50.8265L68.5541 50.8245ZM71.5751 22.2176C71.287 20.7426 70.9989 19.3041 70.6398 17.8657C70.3165 16.4982 69.9568 15.1673 69.5605 13.8729C69.4895 13.6578 69.4164 13.4062 69.3454 13.1892L67.0082 10.8519C65.9937 9.9166 64.9569 9.05434 63.8796 8.22656C64.5633 9.98964 65.2105 11.7872 65.7867 13.6213L66.2189 15.0232C66.578 16.2406 66.9026 17.47 67.2333 18.7279C67.5214 18.1883 67.8095 17.6486 68.0611 17.1049C68.7083 17.8961 69.3555 18.7279 69.9317 19.5862C69.392 20.8035 68.8158 22.033 68.2051 23.2198C68.5642 25.1615 68.8523 27.0747 69.0674 29.0467C70.0818 27.3202 71.009 25.5571 71.9078 23.7595C71.7617 23.2361 71.6907 22.7329 71.5831 22.2358L71.5751 22.2176Z" fill="white"/>
</svg>
