<svg width="104" height="72" viewBox="0 0 104 72" fill="none" xmlns="http://www.w3.org/2000/svg">
<path d="M66.5366 72H37.4634C27.5275 72 17.9981 68.2044 10.9724 61.4531C3.9466 54.7018 0 45.5478 0 36C0 26.4522 3.9466 17.2951 10.9724 10.5437C17.9981 3.79244 27.5275 0 37.4634 0H66.5366C76.4725 0 86.0019 3.79244 93.0276 10.5437C100.053 17.2951 104 26.4522 104 36C104 45.5478 100.053 54.7018 93.0276 61.4531C86.0019 68.2044 76.4725 72 66.5366 72ZM35.148 59.2625V68.5656H39.7919V59.2625H35.148ZM56.2472 50.8813L52.9691 54.0312L59.8244 60.6125L63.0894 57.4656L56.2472 50.8813ZM18.6927 50.8813L11.8374 57.4656L15.1154 60.6125L21.9707 54.0312L18.6927 50.8813ZM37.4634 16.1938C36.6988 16.184 35.9328 16.225 35.174 16.3156C30.1275 16.8517 25.4685 19.1592 22.0813 22.7938C18.6941 26.4283 16.8195 31.1336 16.8195 36.0125C16.8195 40.8914 18.6941 45.5999 22.0813 49.2344C25.4685 52.8689 30.1275 55.1733 35.174 55.7094C35.935 55.7883 36.7045 55.8292 37.4699 55.8312C42.94 55.8312 48.1841 53.7449 52.052 50.0281C55.9199 46.3113 58.0943 41.2689 58.0943 36.0125C58.0943 30.7561 55.9199 25.7168 52.052 22C48.1841 18.2832 42.94 16.1938 37.4699 16.1938H37.4634ZM68.839 16.3156C72.8366 22.1669 74.9659 29.0129 74.9659 36.0125C74.9659 43.0121 72.8366 49.8581 68.839 55.7094C73.8855 55.1733 78.551 52.8689 81.9382 49.2344C85.3254 45.5999 87.2 40.8914 87.2 36.0125C87.2 31.1336 85.3254 26.4283 81.9382 22.7938C78.551 19.1592 73.8855 16.8517 68.839 16.3156ZM61.6846 33.7875V38.2375H71.3756V33.7875H61.6846ZM3.53821 33.7875V38.2375H13.2553V33.7875H3.53821ZM59.8179 11.4125L52.9626 17.9969L56.2407 21.1438L63.0829 14.5625L59.8179 11.4125ZM15.1089 11.4125L11.8309 14.5625L18.6862 21.1438L21.9642 17.9969L15.1089 11.4125ZM35.1415 3.4625V12.7406H39.7854V3.4625H35.1415Z" fill="white"/>
</svg>
