<svg width="313" height="64" viewBox="0 0 313 64" fill="none" xmlns="http://www.w3.org/2000/svg">
<path d="M83.9519 7.76349C74.939 2.60655 64.7259 -0.0719106 54.3473 -0.000564171C43.979 -0.0665229 33.7771 2.61176 24.7732 7.76349C9.65392 16.5966 1.03958 31.5382 0.429932 49.8519H13.3545C14.0373 32.595 23.4625 23.5237 31.2782 18.9362C38.3227 14.9809 46.2724 12.9285 54.3473 12.9803C62.4173 12.9216 70.3628 14.9746 77.3981 18.9362C85.2321 23.5176 94.639 32.5706 95.3218 49.8458H108.246C107.673 31.5382 99.0407 16.5966 83.9519 7.76349Z" fill="#2CC84D"/>
<path d="M70.9974 27.0966C61.0418 21.2751 47.6539 21.2751 37.6861 27.0966C29.4254 31.9285 24.4994 39.998 23.7861 49.8512H36.7656C36.9828 47.4664 37.7713 45.1693 39.064 43.155C40.3568 41.1408 42.1156 39.469 44.1911 38.2815C47.2955 36.5511 50.7893 35.6429 54.3417 35.6429C57.8942 35.6429 61.388 36.5511 64.4924 38.2815C66.5692 39.4687 68.3296 41.1402 69.6244 43.1543C70.9191 45.1684 71.7101 47.4656 71.9301 49.8512H84.9096C84.178 39.998 79.252 31.9285 70.9974 27.0966Z" fill="#2CC84D"/>
<path d="M71.9301 49.8512C71.7101 47.4656 70.9191 45.1684 69.6244 43.1543C68.3296 41.1402 66.5692 39.4687 64.4924 38.2815C61.388 36.5511 57.8942 35.6429 54.3417 35.6429C50.7893 35.6429 47.2955 36.5511 44.1911 38.2815C42.1156 39.469 40.3568 41.1408 39.064 43.155C37.7713 45.1693 36.9828 47.4664 36.7656 49.8512H23.7861C24.4994 39.998 29.4254 31.9285 37.6861 27.0966C47.6539 21.2751 61.0418 21.2751 70.9974 27.0966C79.252 31.9285 84.178 39.998 84.9096 49.8512H71.9301Z" fill="#2CC84D"/>
<path d="M203.534 38.5995L203.784 10.2494L201.535 1.69733L212.136 0.451172L213.917 1.47742V38.8744C213.919 40.6925 214.091 42.5065 214.429 44.2927L215.526 50.102H201.663L202.882 44.5554C203.3 42.5973 203.518 40.6018 203.534 38.5995Z" fill="black"/>
<path d="M143.698 14.3294C140.04 14.5615 136.991 16.5529 134.553 19.2163V15.0257L132.803 14.0117L122.171 15.2334L124.421 23.4007L124.189 53.3696C124.163 55.0299 123.958 56.6827 123.579 58.2992L122.36 63.9985H136.223L135.059 58.0915C134.767 56.6108 134.62 55.105 134.62 53.5956V46.6256C137.052 49.0538 140.332 50.4383 143.765 50.4863C152.013 50.4863 158.494 43.2537 158.695 32.2521C158.902 20.4869 152.08 13.7857 143.698 14.3294ZM147.605 33.0706C147.227 42.3985 143.618 45.5016 138.772 45.4406C137.251 45.4024 135.783 44.8756 134.583 43.9378V21.9896C136.025 20.8417 137.821 20.2326 139.662 20.2669C144.545 20.3341 147.965 24.262 147.612 33.0706H147.605Z" fill="black"/>
<path d="M197.195 45.1671C196.826 45.2678 196.439 45.2818 196.064 45.2079C195.689 45.1341 195.336 44.9745 195.033 44.7416C194.729 44.5086 194.484 44.2086 194.315 43.8649C194.147 43.5213 194.06 43.1432 194.061 42.7603C194.061 37.4397 194.122 32.1252 194.128 26.8107C194.128 24.3978 193.848 21.9238 192.647 19.8102C191.241 17.5703 189.076 15.9133 186.55 15.1433C181.344 13.4023 175.643 14.4285 170.413 15.4914C168.584 15.8641 166.706 16.2795 164.883 16.7865V26.5969C164.883 26.5969 169.974 22.5102 173.68 19.9874C175.394 18.8267 178.899 16.7987 181.027 17.4645C184.24 18.4724 183.971 26.3648 183.941 29.6329C178.673 27.5621 171.906 28.8082 171.858 28.8143C166.371 29.749 162.225 34.2632 162.225 39.6938C162.225 45.8024 167.474 50.7504 173.955 50.7504C175.987 50.7778 177.993 50.2822 179.78 49.3111C181.566 48.34 183.075 46.9258 184.16 45.2038C185.05 48.3008 188.105 51.7705 193.726 50.335C197.92 49.266 198.524 44.8372 198.524 44.8372L197.195 45.1671ZM183.813 42.8153C183.254 43.5031 182.551 44.0586 181.753 44.4419C180.955 44.8253 180.083 45.027 179.198 45.0327C175.771 45.0327 173.046 42.5037 172.991 38.3499C172.943 34.923 174.82 32.62 177.411 31.9053C179.624 31.2944 183.124 31.5266 183.916 31.6548L183.813 42.8153Z" fill="black"/>
<path d="M274.376 45.1671C274.007 45.2676 273.62 45.2815 273.244 45.2077C272.869 45.1338 272.516 44.9743 272.212 44.7415C271.909 44.5087 271.662 44.2088 271.493 43.8652C271.324 43.5216 271.236 43.1435 271.236 42.7603C271.236 37.4397 271.297 32.1252 271.303 26.8107C271.303 24.3978 271.029 21.9238 269.822 19.8102C268.419 17.5676 266.254 15.9098 263.725 15.1433C258.519 13.4023 252.813 14.4285 247.582 15.4914C245.753 15.8641 243.881 16.2795 242.058 16.7865V26.5969C242.058 26.5969 247.143 22.5102 250.85 19.9874C252.563 18.8267 256.074 16.7987 258.196 17.4645C261.409 18.4724 261.147 26.3648 261.116 29.6329C255.849 27.5621 249.082 28.8082 249.027 28.8143C243.57 29.749 239.413 34.2632 239.413 39.706C239.413 45.8146 244.668 50.7626 251.142 50.7626C253.178 50.7925 255.188 50.2969 256.977 49.3233C258.767 48.3498 260.276 46.9311 261.36 45.2038C262.25 48.3008 265.31 51.7705 270.931 50.335C275.126 49.266 275.729 44.8372 275.729 44.8372L274.376 45.1671ZM260.964 42.8153C260.406 43.5026 259.704 44.0578 258.907 44.4412C258.11 44.8246 257.239 45.0266 256.355 45.0327C252.922 45.0327 250.203 42.5037 250.142 38.3499C250.1 34.923 251.971 32.62 254.568 31.9053C256.781 31.2944 260.287 31.5266 261.073 31.6548L260.964 42.8153Z" fill="black"/>
<path d="M224.702 14.709L237.748 14.8006L223.653 27.2378L238.285 50.1451L225.818 50.0412L214.515 31.4161L222.629 24.2506C223.943 23.1086 224.855 21.5723 225.228 19.8698C225.602 18.1673 225.417 16.3896 224.702 14.8006V14.709Z" fill="black"/>
<path d="M301.231 42.8839C301.231 42.8839 299.518 49.1208 293.062 50.5868C286.965 51.9246 280.869 47.6791 280.991 41.6682V17.6553L275.748 17.527V14.3261C275.748 14.3261 285.502 12.243 290.3 3.94141L291.068 4.38123L291.117 14.3383H300.53V17.5392H291.129L291.233 39.0965C291.238 39.9554 291.453 40.7999 291.857 41.5572C292.262 42.3144 292.844 42.9615 293.555 43.4427C294.265 43.9238 295.081 44.2245 295.933 44.3187C296.785 44.4129 297.647 44.2978 298.445 43.9834L301.231 42.8839Z" fill="black"/>
<path d="M310.254 48.6067H309.297L309.151 48.1424L308.249 46.9574H307.334V48.0325L307.45 48.6067H306.603L306.7 48.0325V45.082L306.603 44.5078H308.523C309.498 44.5078 309.962 44.9415 309.962 45.7295C309.965 46.0168 309.858 46.2945 309.663 46.5049C309.468 46.7154 309.199 46.8424 308.913 46.8596L310.254 48.6067ZM308.346 46.4931C308.956 46.4931 309.334 46.2304 309.334 45.7173C309.334 45.2042 309.047 44.9415 308.431 44.9415H307.322V46.4931H308.346Z" fill="black"/>
<path d="M308.248 51.0116C307.393 51.0116 306.557 50.7575 305.846 50.2813C305.135 49.8051 304.581 49.1284 304.254 48.3366C303.927 47.5449 303.842 46.6737 304.009 45.8334C304.177 44.9931 304.589 44.2214 305.194 43.616C305.799 43.0105 306.57 42.5985 307.409 42.4321C308.248 42.2657 309.117 42.3523 309.907 42.681C310.696 43.0098 311.371 43.5659 311.845 44.2789C312.319 44.9919 312.572 45.8299 312.571 46.6867C312.569 47.8343 312.113 48.9344 311.302 49.7453C310.492 50.5562 309.394 51.0116 308.248 51.0116ZM308.248 42.9727C307.515 42.9739 306.799 43.1928 306.191 43.6016C305.582 44.0104 305.108 44.5909 304.828 45.2697C304.548 45.9484 304.476 46.695 304.62 47.415C304.763 48.1351 305.117 48.7963 305.635 49.3151C306.154 49.8339 306.815 50.187 307.533 50.3299C308.252 50.4727 308.997 50.3988 309.674 50.1175C310.351 49.8362 310.93 49.3601 311.337 48.7495C311.744 48.1389 311.961 47.421 311.961 46.6867C311.961 46.1985 311.865 45.715 311.678 45.264C311.492 44.813 311.218 44.4033 310.873 44.0583C310.528 43.7134 310.119 43.4399 309.669 43.2537C309.218 43.0674 308.735 42.9719 308.248 42.9727Z" fill="black"/>
</svg>
