<svg width="313" height="96" viewBox="0 0 313 96" fill="none" xmlns="http://www.w3.org/2000/svg">
<g clip-path="url(#clip0_450_223)">
<path d="M43.5838 36.9812L41.195 32.9837C42.7875 32.0412 44.4288 31.0987 46.1187 30.1562C47.8088 29.1812 49.6938 28.1412 51.7738 27.0362C53.8863 25.8987 56.3563 24.615 59.1838 23.185L61.4263 27.475C58.5338 28.8725 56.0313 30.1237 53.9188 31.2287C51.8388 32.3337 49.97 33.3575 48.3125 34.3C46.6875 35.21 45.1113 36.1037 43.5838 36.9812ZM42.17 66.5238L43.4375 59.6987C45.745 59.6987 47.63 59.6662 49.0925 59.6012C50.555 59.5362 51.6763 59.4225 52.4563 59.26C53.2688 59.065 53.8375 58.805 54.1625 58.48C54.4875 58.155 54.65 57.7487 54.65 57.2612C54.65 56.6762 54.39 55.9937 53.87 55.2137C53.3825 54.4337 52.7325 53.6212 51.92 52.7762C51.14 51.9312 50.3113 51.0862 49.4338 50.2412C48.5563 49.3637 47.7113 48.5512 46.8988 47.8037C46.1188 47.0562 45.4688 46.4062 44.9488 45.8537C44.4613 45.2687 44.2175 44.8462 44.2175 44.5862C44.2175 43.6762 44.2663 42.9612 44.3638 42.4412C44.4613 41.8887 44.5913 41.45 44.7538 41.125C44.9488 40.8 45.16 40.5237 45.3875 40.2962C46.135 39.5487 47.3375 38.6875 48.995 37.7125C50.685 36.7375 52.7163 35.6812 55.0888 34.5437C57.4613 33.3737 60.0613 32.1387 62.8888 30.8387L65.6675 36.7862C62.84 38.0537 60.3863 39.1912 58.3063 40.1987C56.2588 41.1737 54.4875 42.0675 52.9925 42.88C51.53 43.66 50.2625 44.4075 49.19 45.1225L49.6775 41.515C51.075 42.7175 52.3425 43.855 53.48 44.9275C54.6175 46 55.6738 47.0725 56.6488 48.145C57.6238 49.2175 58.5338 50.3225 59.3788 51.46C60.2563 52.5975 61.1013 53.8325 61.9138 55.165C62.4338 56.01 62.97 56.6925 63.5225 57.2125C64.1075 57.7 64.6763 58.0737 65.2288 58.3338C65.8138 58.5612 66.3663 58.7237 66.8863 58.8212C67.4388 58.8862 67.9263 58.9187 68.3488 58.9187C69.5838 58.9187 70.4613 59.26 70.9813 59.9425C71.5338 60.625 71.81 61.4375 71.81 62.38C71.81 63.3875 71.4688 64.2 70.7863 64.8175C70.1038 65.435 69.1288 65.7438 67.8613 65.7438C66.7888 65.7438 65.635 65.5813 64.4 65.2562C63.165 64.8987 62.0113 64.3137 60.9388 63.5012C59.8663 62.6562 59.0538 61.5025 58.5013 60.04L61.1338 60.235C60.5163 61.5675 59.7688 62.6562 58.8913 63.5012C58.0138 64.3137 56.8763 64.9475 55.4788 65.4025C54.0813 65.825 52.2938 66.1175 50.1163 66.28C47.9713 66.4425 45.3225 66.5238 42.17 66.5238ZM42.17 66.5238C38.66 66.5238 35.6863 66.2475 33.2488 65.695C30.8438 65.175 28.8775 64.4275 27.35 63.4525C25.855 62.445 24.7663 61.275 24.0838 59.9425C23.4013 58.61 23.06 57.1475 23.06 55.555C23.06 54.515 23.1413 53.475 23.3038 52.435C23.4988 51.3625 23.7263 50.3225 23.9863 49.315C24.2788 48.3075 24.5388 47.3975 24.7663 46.585L30.86 47.9987C30.73 48.5837 30.5838 49.2175 30.4213 49.9C30.2588 50.5825 30.1288 51.2487 30.0313 51.8987C29.9338 52.5162 29.885 53.085 29.885 53.605C29.885 54.8075 30.3075 55.88 31.1525 56.8225C32.03 57.7325 33.46 58.4475 35.4425 58.9675C37.425 59.455 40.09 59.6987 43.4375 59.6987L44.4125 64.9637L42.17 66.5238ZM67.9172 65.7438L68.4047 58.9187C69.6397 58.9187 70.6147 58.805 71.3297 58.5775C72.0772 58.35 72.6622 57.895 73.0847 57.2125C73.5397 56.4975 73.9135 55.4575 74.206 54.0925C74.531 52.7275 74.856 50.9075 75.181 48.6325L81.5672 49.705C81.5022 50.1925 81.4047 50.7612 81.2747 51.4112C81.1772 52.0612 81.0797 52.7275 80.9822 53.41C80.9172 54.06 80.8847 54.6775 80.8847 55.2625C80.8847 56.0425 81.0472 56.7087 81.3722 57.2612C81.7297 57.7812 82.3472 58.1875 83.2247 58.48C84.1347 58.7725 85.4347 58.9187 87.1247 58.9187C88.3597 58.9187 89.2372 59.2437 89.7572 59.8937C90.2772 60.5112 90.5372 61.2912 90.5372 62.2337C90.5372 63.2412 90.196 64.0862 89.5135 64.7687C88.8635 65.4188 87.9047 65.7438 86.6372 65.7438C84.3947 65.7438 82.5747 65.5325 81.1772 65.11C79.7797 64.6875 78.7397 63.9725 78.0572 62.965C77.3747 61.9575 76.936 60.5762 76.741 58.8212H79.081C78.496 60.3812 77.8135 61.6325 77.0335 62.575C76.2535 63.485 75.376 64.1675 74.401 64.6225C73.426 65.0775 72.386 65.37 71.281 65.5C70.2085 65.6625 69.0872 65.7438 67.9172 65.7438ZM77.8622 43.66C76.8547 43.66 75.9935 43.3187 75.2785 42.6362C74.596 41.9537 74.2547 41.1087 74.2547 40.1012C74.2547 39.0937 74.596 38.2325 75.2785 37.5175C75.9935 36.8025 76.8547 36.445 77.8622 36.445C78.8372 36.445 79.666 36.8025 80.3485 37.5175C81.0635 38.2325 81.421 39.0937 81.421 40.1012C81.421 41.1087 81.0635 41.9537 80.3485 42.6362C79.666 43.3187 78.8372 43.66 77.8622 43.66ZM106.468 65.89C105.006 65.89 103.494 65.7113 101.934 65.3537C100.407 64.9962 98.9282 64.46 97.4982 63.745C96.0682 63.03 94.7845 62.1362 93.647 61.0637C92.5095 59.9912 91.5995 58.7562 90.917 57.3587C90.267 55.9287 89.942 54.32 89.942 52.5325C89.942 51.07 90.2507 49.7212 90.8682 48.4862C91.4857 47.2512 92.3957 46.26 93.5982 45.5125C94.8332 44.7325 96.3282 44.3425 98.0832 44.3425C99.7407 44.3425 101.171 44.7487 102.373 45.5612C103.608 46.3412 104.567 47.365 105.249 48.6325C105.932 49.8675 106.273 51.1675 106.273 52.5325C106.273 54.71 105.737 56.6275 104.664 58.285C103.592 59.91 102.113 61.275 100.228 62.38C98.3757 63.485 96.2795 64.33 93.9395 64.915C91.5995 65.4675 89.162 65.7438 86.627 65.7438L87.1145 58.9187C88.967 58.9187 90.5757 58.87 91.9407 58.7725C93.3382 58.675 94.5407 58.4637 95.5482 58.1387C96.5557 57.8137 97.4332 57.3262 98.1807 56.6762C98.9282 56.0262 99.497 55.3112 99.887 54.5312C100.309 53.7187 100.521 52.9225 100.521 52.1425C100.521 51.6225 100.439 51.135 100.277 50.68C100.147 50.225 99.9195 49.8512 99.5945 49.5587C99.302 49.2337 98.912 49.0712 98.4245 49.0712C97.9045 49.0712 97.4657 49.2337 97.1082 49.5587C96.7832 49.8512 96.5232 50.2412 96.3282 50.7287C96.1657 51.2162 96.0845 51.7362 96.0845 52.2887C96.0845 53.4262 96.377 54.45 96.962 55.36C97.5795 56.27 98.392 57.0337 99.3995 57.6512C100.407 58.2687 101.512 58.74 102.714 59.065C103.949 59.39 105.201 59.5525 106.468 59.5525C107.476 59.5525 108.191 59.39 108.613 59.065C109.036 58.74 109.247 58.3012 109.247 57.7487C109.247 57.3587 109.149 56.9525 108.954 56.53C108.792 56.075 108.418 55.5225 107.833 54.8725C107.248 54.2225 106.354 53.4262 105.152 52.4837C103.949 51.5087 102.341 50.3062 100.326 48.8762C98.3107 47.4462 95.7757 45.7075 92.7207 43.66L96.4745 38.3462C99.9195 40.7837 102.796 42.9125 105.103 44.7325C107.443 46.5525 109.328 48.145 110.758 49.51C112.188 50.875 113.277 52.0775 114.024 53.1175C114.804 54.125 115.324 55.0512 115.584 55.8962C115.844 56.7412 115.974 57.5862 115.974 58.4312C115.974 59.9912 115.601 61.3237 114.853 62.4287C114.106 63.5337 113.017 64.395 111.587 65.0125C110.189 65.5975 108.483 65.89 106.468 65.89ZM133.311 65.7438C130.289 65.7438 127.949 65.435 126.291 64.8175C124.666 64.2 123.529 63.2412 122.879 61.9412C122.229 60.6087 121.855 58.935 121.757 56.92L120.734 29.815H127.559L128.582 53.6537C128.647 55.1487 128.81 56.27 129.07 57.0175C129.33 57.765 129.817 58.2687 130.532 58.5287C131.28 58.7887 132.369 58.9187 133.799 58.9187C135.034 58.9187 135.911 59.2437 136.431 59.8937C136.984 60.5112 137.26 61.2912 137.26 62.2337C137.26 63.2412 136.919 64.0862 136.236 64.7687C135.554 65.4188 134.579 65.7438 133.311 65.7438ZM133.377 65.7438L133.865 58.9187C134.677 58.9187 135.295 58.7562 135.717 58.4312C136.14 58.1062 136.562 57.5375 136.985 56.725C137.407 55.9125 137.992 54.8075 138.74 53.41C139.552 51.85 140.397 50.55 141.275 49.51C142.152 48.4375 143.03 47.5925 143.907 46.975C144.817 46.325 145.711 45.87 146.589 45.61C147.499 45.3175 148.392 45.1712 149.27 45.1712C150.472 45.1712 151.594 45.4312 152.634 45.9512C153.706 46.4387 154.73 47.3 155.705 48.535C156.68 49.7375 157.606 51.395 158.484 53.5075C159.101 54.97 159.719 56.0912 160.336 56.8712C160.954 57.6512 161.587 58.1875 162.237 58.48C162.92 58.7725 163.602 58.9187 164.285 58.9187C165.52 58.9187 166.397 59.2437 166.917 59.8937C167.437 60.5112 167.697 61.2912 167.697 62.2337C167.697 63.2412 167.356 64.0862 166.674 64.7687C165.991 65.4188 165.032 65.7438 163.797 65.7438C162.205 65.7438 160.759 65.4837 159.459 64.9637C158.159 64.4437 157.135 63.6637 156.387 62.6237L157.801 61.5512C157.509 62.2337 157.07 62.9487 156.485 63.6962C155.932 64.4437 155.201 65.0775 154.291 65.5975C153.414 66.1175 152.357 66.3775 151.122 66.3775C150.31 66.3775 149.351 66.215 148.246 65.89C147.174 65.5975 146.052 65.0937 144.882 64.3787C143.745 63.6312 142.689 62.6237 141.714 61.3562C141.096 62.4937 140.414 63.3875 139.666 64.0375C138.919 64.655 138.041 65.0937 137.034 65.3537C136.026 65.6138 134.807 65.7438 133.377 65.7438ZM144.541 55.6037C144.866 56.0912 145.256 56.5787 145.711 57.0662C146.166 57.5537 146.67 57.9925 147.222 58.3825C147.775 58.74 148.36 59.0325 148.977 59.26C149.627 59.4875 150.261 59.6012 150.879 59.6012C151.529 59.6012 152.065 59.3575 152.487 58.87C152.91 58.35 152.926 57.5862 152.536 56.5787C152.374 56.1562 152.146 55.685 151.854 55.165C151.594 54.6125 151.285 54.0925 150.927 53.605C150.602 53.1175 150.229 52.7112 149.806 52.3862C149.416 52.0612 149.01 51.8987 148.587 51.8987C148.165 51.8987 147.726 52.0287 147.271 52.2887C146.816 52.5487 146.361 52.955 145.906 53.5075C145.451 54.0275 144.996 54.7262 144.541 55.6037ZM183.64 65.89C182.177 65.89 180.666 65.7113 179.106 65.3537C177.579 64.9962 176.1 64.46 174.67 63.745C173.24 63.03 171.956 62.1362 170.819 61.0637C169.681 59.9912 168.771 58.7562 168.089 57.3587C167.439 55.9287 167.114 54.32 167.114 52.5325C167.114 51.07 167.422 49.7212 168.04 48.4862C168.657 47.2512 169.567 46.26 170.77 45.5125C172.005 44.7325 173.5 44.3425 175.255 44.3425C176.912 44.3425 178.342 44.7487 179.545 45.5612C180.78 46.3412 181.739 47.365 182.421 48.6325C183.104 49.8675 183.445 51.1675 183.445 52.5325C183.445 54.71 182.909 56.6275 181.836 58.285C180.764 59.91 179.285 61.275 177.4 62.38C175.547 63.485 173.451 64.33 171.111 64.915C168.771 65.4675 166.334 65.7438 163.799 65.7438L164.286 58.9187C166.139 58.9187 167.747 58.87 169.112 58.7725C170.51 58.675 171.712 58.4637 172.72 58.1387C173.727 57.8137 174.605 57.3262 175.352 56.6762C176.1 56.0262 176.669 55.3112 177.059 54.5312C177.481 53.7187 177.692 52.9225 177.692 52.1425C177.692 51.6225 177.611 51.135 177.449 50.68C177.319 50.225 177.091 49.8512 176.766 49.5587C176.474 49.2337 176.084 49.0712 175.596 49.0712C175.076 49.0712 174.637 49.2337 174.28 49.5587C173.955 49.8512 173.695 50.2412 173.5 50.7287C173.337 51.2162 173.256 51.7362 173.256 52.2887C173.256 53.4262 173.549 54.45 174.134 55.36C174.751 56.27 175.564 57.0337 176.571 57.6512C177.579 58.2687 178.684 58.74 179.886 59.065C181.121 59.39 182.372 59.5525 183.64 59.5525C184.647 59.5525 185.362 59.39 185.785 59.065C186.207 58.74 186.419 58.3012 186.419 57.7487C186.419 57.3587 186.321 56.9525 186.126 56.53C185.964 56.075 185.59 55.5225 185.005 54.8725C184.42 54.2225 183.526 53.4262 182.324 52.4837C181.121 51.5087 179.512 50.3062 177.497 48.8762C175.482 47.4462 172.947 45.7075 169.892 43.66L173.646 38.3462C177.091 40.7837 179.967 42.9125 182.275 44.7325C184.615 46.5525 186.5 48.145 187.93 49.51C189.36 50.875 190.449 52.0775 191.196 53.1175C191.976 54.125 192.496 55.0512 192.756 55.8962C193.016 56.7412 193.146 57.5862 193.146 58.4312C193.146 59.9912 192.772 61.3237 192.025 62.4287C191.277 63.5337 190.189 64.395 188.759 65.0125C187.361 65.5975 185.655 65.89 183.64 65.89Z" fill="#3D434D"/>
<path d="M253.363 75.4141H232.082C224.809 75.4141 217.834 72.5229 212.692 67.3803C207.549 62.2377 204.66 55.2649 204.66 47.9922C204.66 40.7195 207.549 33.7443 212.692 28.6017C217.834 23.4591 224.809 20.5703 232.082 20.5703H253.363C260.635 20.5703 267.61 23.4591 272.753 28.6017C277.896 33.7443 280.784 40.7195 280.784 47.9922C280.784 55.2649 277.896 62.2377 272.753 67.3803C267.61 72.5229 260.635 75.4141 253.363 75.4141ZM230.387 65.7117V72.798H233.786V65.7117H230.387ZM245.831 59.3275L243.432 61.7269L248.449 66.74L250.839 64.343L245.831 59.3275ZM218.343 59.3275L213.325 64.343L215.724 66.74L220.742 61.7269L218.343 59.3275ZM232.082 32.9054C231.522 32.898 230.962 32.9292 230.406 32.9982C226.712 33.4066 223.302 35.1643 220.823 37.9327C218.344 40.7012 216.971 44.2854 216.971 48.0017C216.971 51.7181 218.344 55.3046 220.823 58.0731C223.302 60.8415 226.712 62.5968 230.406 63.0052C230.963 63.0653 231.527 63.0964 232.087 63.098C236.091 63.098 239.929 61.5088 242.76 58.6777C245.592 55.8465 247.183 52.0056 247.183 48.0017C247.183 43.9978 245.592 40.1593 242.76 37.3281C239.929 34.497 236.091 32.9054 232.087 32.9054H232.082ZM255.048 32.9982C257.974 37.4552 259.532 42.67 259.532 48.0017C259.532 53.3334 257.974 58.5482 255.048 63.0052C258.742 62.5968 262.157 60.8415 264.636 58.0731C267.115 55.3046 268.487 51.7181 268.487 48.0017C268.487 44.2854 267.115 40.7012 264.636 37.9327C262.157 35.1643 258.742 33.4066 255.048 32.9982ZM249.811 46.3069V49.6965H256.905V46.3069H249.811ZM207.25 46.3069V49.6965H214.363V46.3069H207.25ZM248.445 29.2634L243.427 34.2789L245.826 36.6759L250.835 31.6628L248.445 29.2634ZM215.719 29.2634L213.32 31.6628L218.338 36.6759L220.737 34.2789L215.719 29.2634ZM230.382 23.2078V30.2751H233.782V23.2078H230.382Z" fill="#00A2FF"/>
</g>
<defs>
<clipPath id="clip0_450_223">
<rect width="312" height="96" fill="white" transform="translate(0.5)"/>
</clipPath>
</defs>
</svg>
