<svg width="247" height="80" viewBox="0 0 247 80" fill="none" xmlns="http://www.w3.org/2000/svg">
<g clip-path="url(#clip0_398_59)">
<path d="M151.865 45.4319C151.72 50.3806 149.643 55.0758 146.078 58.5116C142.513 61.9473 137.745 63.8505 132.794 63.8133H113.802V23.6419H113.873C113.471 23.6414 113.073 23.5615 112.702 23.407C112.331 23.2524 111.994 23.0262 111.711 22.7412C111.427 22.4563 111.203 22.1182 111.05 21.7463C110.898 21.3745 110.82 20.9762 110.822 20.5743C110.821 20.1727 110.9 19.775 111.054 19.4039C111.207 19.0328 111.433 18.6957 111.716 18.4117C112 18.1277 112.338 17.9025 112.709 17.749C113.08 17.5954 113.477 17.5165 113.879 17.5168H119.923V57.6882H132.873C136.202 57.7094 139.409 56.4331 141.813 54.1299C144.217 51.8267 145.629 48.6777 145.75 45.3507C145.791 43.6663 145.495 41.9908 144.878 40.4225C144.262 38.8543 143.339 37.425 142.163 36.2186C140.987 35.0121 139.581 34.0529 138.029 33.3973C136.477 32.7416 134.81 32.4027 133.125 32.4005H122.792V25.898L123.224 25.4658L137.54 11.2943C137.824 11.0103 138.162 10.7857 138.534 10.6336C138.906 10.4815 139.304 10.4049 139.706 10.4083C140.108 10.4117 140.505 10.495 140.874 10.6534C141.243 10.8118 141.578 11.042 141.857 11.3308C142.141 11.6151 142.366 11.953 142.518 12.3249C142.67 12.6968 142.746 13.0953 142.743 13.4971C142.74 13.8989 142.656 14.296 142.498 14.6653C142.34 15.0346 142.109 15.3687 141.821 15.6482L131.068 26.3322H133.119C135.612 26.3279 138.08 26.8216 140.38 27.7843C142.679 28.7471 144.763 30.1595 146.51 31.9386C148.256 33.7178 149.629 35.8278 150.549 38.1449C151.469 40.462 151.916 42.9394 151.865 45.4319Z" fill="#232323"/>
<path d="M90.965 26.2939H74.6327C74.2311 26.2937 73.8334 26.3726 73.4623 26.5261C73.0912 26.6797 72.7541 26.9049 72.4701 27.1889C72.1861 27.4728 71.9609 27.81 71.8074 28.1811C71.6538 28.5522 71.5749 28.9499 71.5752 29.3514C71.5749 29.753 71.6538 30.1507 71.8074 30.5218C71.9609 30.8929 72.1861 31.23 72.4701 31.514C72.7541 31.798 73.0912 32.0232 73.4623 32.1767C73.8334 32.3303 74.2311 32.4092 74.6327 32.4089V57.6967H49.0934V32.4089H49.1644C49.566 32.4092 49.9637 32.3303 50.3347 32.1767C50.7058 32.0232 51.043 31.798 51.3269 31.514C51.6109 31.23 51.8361 30.8929 51.9897 30.5218C52.1432 30.1507 52.2221 29.753 52.2219 29.3514C52.2221 28.95 52.1433 28.5525 51.9899 28.1815C51.8364 27.8106 51.6114 27.4735 51.3277 27.1896C51.0439 26.9056 50.707 26.6804 50.3361 26.5267C49.9653 26.373 49.5678 26.2939 49.1664 26.2939H31.8277C26.8574 26.2939 22.0907 28.2684 18.5762 31.7829C15.0616 35.2975 13.0872 40.0642 13.0872 45.0345C13.0872 50.0048 15.0616 54.7716 18.5762 58.2861C22.0907 61.8007 26.8574 63.7751 31.8277 63.7751H42.9865V69.2429C42.5849 69.2426 42.1872 69.3215 41.8161 69.4751C41.445 69.6286 41.1079 69.8539 40.8239 70.1378C40.5399 70.4218 40.3147 70.7589 40.1612 71.13C40.0076 71.5011 39.9287 71.8988 39.929 72.3004C39.9287 72.702 40.0076 73.0997 40.1612 73.4708C40.3147 73.8418 40.5399 74.179 40.8239 74.463C41.1079 74.7469 41.445 74.9721 41.8161 75.1257C42.1872 75.2792 42.5849 75.3581 42.9865 75.3579H49.1015V63.7751H90.965C95.9353 63.7751 100.702 61.8007 104.217 58.2861C107.731 54.7716 109.706 50.0048 109.706 45.0345C109.706 40.0642 107.731 35.2975 104.217 31.7829C100.702 28.2684 95.9353 26.2939 90.965 26.2939ZM42.9439 57.6967H31.7851C28.4318 57.6918 25.2177 56.355 22.8499 53.9804C20.4822 51.6058 19.1547 48.3879 19.1595 45.0345C19.1644 41.6812 20.5011 38.4671 22.8758 36.0993C25.2504 33.7316 28.4683 32.4041 31.8217 32.4089H42.9804V57.6967H42.9439ZM90.965 57.6967H80.7476V32.4089H90.963C94.3163 32.4089 97.5323 33.741 99.9035 36.1122C102.275 38.4834 103.607 41.6994 103.607 45.0528C103.607 48.4062 102.275 51.6222 99.9035 53.9934C97.5323 56.3645 94.3183 57.6967 90.965 57.6967Z" fill="#232323"/>
<path d="M9.49136 17.5879V63.8114H3.37638V23.7029H3.44739C3.0458 23.7031 2.64809 23.6242 2.27702 23.4707C1.90595 23.3171 1.56878 23.0919 1.28482 22.808C1.00085 22.524 0.775647 22.1868 0.622088 21.8157C0.468529 21.4447 0.389627 21.047 0.389893 20.6454C0.389627 20.2438 0.468529 19.8461 0.622088 19.475C0.775647 19.1039 1.00085 18.7668 1.28482 18.4828C1.56878 18.1988 1.90595 17.9736 2.27702 17.8201C2.64809 17.6665 3.0458 17.5876 3.44739 17.5879H9.49136Z" fill="#232323"/>
<path d="M206.61 78.0566C197.786 78.0785 189.226 75.0431 182.387 69.4664C175.547 63.8898 170.851 56.1163 169.095 47.4679C167.34 38.8195 168.635 29.8301 172.759 22.0285C176.883 14.2268 183.583 8.09456 191.718 4.67453C199.853 1.2545 208.921 0.757848 217.381 3.26904C225.841 5.78023 233.17 11.1442 238.122 18.4488C243.073 25.7534 245.342 34.5477 244.542 43.336C243.741 52.1244 239.922 60.3643 233.732 66.6544L233.517 66.8695C230.001 70.4285 225.81 73.2509 221.19 75.1717C216.57 77.0926 211.614 78.0733 206.61 78.0566Z" fill="url(#paint0_linear_398_59)"/>
<path d="M206.611 3.95628C215.537 3.97972 224.137 7.31836 230.741 13.3243C237.345 19.3303 241.482 27.5754 242.35 36.4596C243.218 45.3438 240.754 54.2337 235.438 61.4043C230.121 68.5748 222.33 73.5147 213.577 75.2653C204.824 77.0159 195.733 75.4525 188.067 70.8784C180.402 66.3043 174.709 59.0457 172.093 50.511C169.477 41.9764 170.125 32.7743 173.911 24.6904C177.697 16.6064 184.35 10.2171 192.581 6.76219C197.023 4.89882 201.794 3.94473 206.611 3.95628ZM206.611 0C198.7 0 190.966 2.3459 184.389 6.74104C177.811 11.1362 172.684 17.3832 169.657 24.692C166.629 32.0009 165.837 40.0434 167.38 47.8024C168.924 55.5614 172.733 62.6886 178.327 68.2825C183.921 73.8765 191.048 77.686 198.807 79.2294C206.566 80.7728 214.609 79.9807 221.918 76.9532C229.227 73.9258 235.474 68.799 239.869 62.2212C244.264 55.6434 246.61 47.91 246.61 39.999C246.608 29.3913 242.393 19.2186 234.892 11.7178C227.391 4.21701 217.219 0.00215156 206.611 0Z" fill="#232323"/>
<path d="M242.269 45.5761C241.383 51.2776 239.137 56.682 235.722 61.3323L227.629 60.6485L215.902 59.2466L222.737 52.4479L229.787 44.7139L238.852 45.4341L242.269 45.5761Z" fill="url(#paint1_linear_398_59)"/>
<path d="M212.007 43.3441L196.432 53.667L188.051 49.5666L174.382 40.031L170.712 36.7605C171.155 31.6738 172.689 26.7421 175.208 22.3008L182.761 29.0265L212.007 43.3441Z" fill="url(#paint2_linear_398_59)"/>
<path d="M240.783 28.4177L240.532 29.209L230.605 44.7846L217.691 57.7693L198.662 68.2727L191.18 72.5901C185.327 69.7877 180.324 65.4802 176.684 60.1086L187.331 57.4832L202.907 49.3536L217.691 37.6633L226.431 26.3016L233.301 15.7617C236.039 18.7766 238.252 22.2297 239.848 25.977C240.173 26.7987 240.495 27.59 240.783 28.4177Z" fill="url(#paint3_linear_398_59)"/>
<path d="M206.61 78.0566C197.786 78.0785 189.226 75.0431 182.387 69.4664C175.547 63.8898 170.851 56.1163 169.095 47.4679C167.34 38.8195 168.635 29.8301 172.759 22.0285C176.883 14.2268 183.583 8.09456 191.718 4.67453C199.853 1.2545 208.921 0.757848 217.381 3.26904C225.841 5.78023 233.17 11.1442 238.122 18.4488C243.073 25.7534 245.342 34.5477 244.542 43.336C243.741 52.1244 239.922 60.3643 233.732 66.6544L233.517 66.8695C230.001 70.4285 225.81 73.2509 221.19 75.1717C216.57 77.0926 211.614 78.0733 206.61 78.0566Z" fill="url(#paint4_linear_398_59)"/>
<path d="M206.611 3.95628C215.537 3.97972 224.137 7.31836 230.741 13.3243C237.345 19.3303 241.482 27.5754 242.35 36.4596C243.218 45.3438 240.754 54.2337 235.438 61.4043C230.121 68.5748 222.33 73.5147 213.577 75.2653C204.824 77.0159 195.733 75.4525 188.067 70.8784C180.402 66.3043 174.709 59.0457 172.093 50.511C169.477 41.9764 170.125 32.7743 173.911 24.6904C177.697 16.6064 184.35 10.2171 192.581 6.76219C197.023 4.89882 201.794 3.94473 206.611 3.95628ZM206.611 0C198.7 0 190.966 2.3459 184.389 6.74104C177.811 11.1362 172.684 17.3832 169.657 24.692C166.629 32.0009 165.837 40.0434 167.38 47.8024C168.924 55.5614 172.733 62.6886 178.327 68.2825C183.921 73.8765 191.048 77.686 198.807 79.2294C206.566 80.7728 214.609 79.9807 221.918 76.9532C229.227 73.9258 235.474 68.799 239.869 62.2212C244.264 55.6434 246.61 47.91 246.61 39.999C246.608 29.3913 242.393 19.2186 234.892 11.7178C227.391 4.21701 217.219 0.00215156 206.611 0Z" fill="#232323"/>
<path d="M242.269 45.5761C241.383 51.2776 239.137 56.682 235.722 61.3323L227.629 60.6485L215.902 59.2466L222.737 52.4479L229.787 44.7139L238.852 45.4341L242.269 45.5761Z" fill="url(#paint5_linear_398_59)"/>
<path d="M212.007 43.3441L196.432 53.667L188.051 49.5666L174.382 40.031L170.712 36.7605C171.155 31.6738 172.689 26.7421 175.208 22.3008L182.761 29.0265L212.007 43.3441Z" fill="url(#paint6_linear_398_59)"/>
<path d="M240.783 28.4177L240.532 29.209L230.605 44.7846L217.691 57.7693L198.662 68.2727L191.18 72.5901C185.327 69.7877 180.324 65.4802 176.684 60.1086L187.331 57.4832L202.907 49.3536L217.691 37.6633L226.431 26.3016L233.301 15.7617C236.039 18.7766 238.252 22.2297 239.848 25.977C240.173 26.7987 240.495 27.59 240.783 28.4177Z" fill="url(#paint7_linear_398_59)"/>
<path d="M228.984 43.6693C228.049 44.8197 227.113 45.9355 226.107 47.0149C225.855 47.303 225.604 47.5546 225.352 47.8427L223.194 50.1089L222.617 50.6851C223.409 50.7561 224.163 50.8291 224.955 50.8656L227.292 50.9732C227.698 50.5674 228.047 50.1454 228.442 49.7559C228.55 48.9281 228.657 48.1003 228.767 47.2381C228.911 46.0512 228.982 44.9008 229.091 43.7119V43.5678L228.984 43.6693ZM228.984 43.6693C228.049 44.8197 227.113 45.9355 226.107 47.0149C225.855 47.303 225.604 47.5546 225.352 47.8427L223.194 50.1089L222.617 50.6851C223.409 50.7561 224.163 50.8291 224.955 50.8656L227.292 50.9732C227.698 50.5674 228.047 50.1454 228.442 49.7559C228.55 48.9281 228.657 48.1003 228.767 47.2381C228.911 46.0512 228.982 44.9008 229.091 43.7119V43.5678L228.984 43.6693ZM228.984 43.6693C228.049 44.8197 227.113 45.9355 226.107 47.0149C225.855 47.303 225.604 47.5546 225.352 47.8427L223.194 50.1089L222.617 50.6851C223.409 50.7561 224.163 50.8291 224.955 50.8656L227.292 50.9732C227.698 50.5674 228.047 50.1454 228.442 49.7559C228.55 48.9281 228.657 48.1003 228.767 47.2381C228.911 46.0512 228.982 44.9008 229.091 43.7119V43.5678L228.984 43.6693ZM219.201 53.8136C218.553 54.3533 217.941 54.9295 217.294 55.4367L214.705 57.4879C215.388 57.5954 216.072 57.7394 216.756 57.847C217.655 57.991 218.554 58.0985 219.489 58.2061L220.029 57.7739C220.353 56.514 220.605 55.2561 220.856 53.9962C221 53.3125 221.108 52.6653 221.215 51.9815C220.532 52.6267 219.886 53.2374 219.201 53.8136ZM211.071 60.1031L210.746 60.3181L208.92 61.505C207.445 62.4403 205.934 63.331 204.425 64.1669C203.238 64.8141 202.014 65.4613 200.791 66.0375C199.604 66.6137 198.381 67.1533 197.194 67.6606C196.906 67.7681 196.617 67.9121 196.295 68.0197C195.145 68.4863 193.992 68.9184 192.846 69.3506C191.371 69.8903 189.896 70.365 188.421 70.7891L187.812 70.9696C186.913 71.2212 186.049 71.4728 185.15 71.6899C184.503 71.8339 183.856 72.0145 183.209 72.1565C183.641 72.4811 184.073 72.8037 184.54 73.0918C185.26 73.5585 185.978 74.0271 186.735 74.4593C186.915 74.5668 187.141 74.6743 187.311 74.7839C188.528 74.4593 189.792 74.1002 190.979 73.7045L192.274 73.2724C192.957 73.0573 193.676 72.8058 194.359 72.5521C195.942 71.9759 197.488 71.3653 199.026 70.7262C200.243 70.1865 201.436 69.6468 202.623 69.0706C204.246 68.2794 205.788 67.4475 207.336 66.5893C208.667 65.8346 209.998 65.0433 211.292 64.2156C211.698 63.0287 212.047 61.8783 212.408 60.6894C212.589 60.0807 212.733 59.4721 212.911 58.8918C212.258 59.2814 211.692 59.677 211.071 60.1091V60.1031ZM228.984 43.6693C228.049 44.8197 227.113 45.9355 226.107 47.0149C225.855 47.303 225.604 47.5546 225.352 47.8427L223.194 50.1089L222.617 50.6851C223.409 50.7561 224.163 50.8291 224.955 50.8656L227.292 50.9732C227.698 50.5674 228.047 50.1454 228.442 49.7559C228.55 48.9281 228.657 48.1003 228.767 47.2381C228.911 46.0512 228.982 44.9008 229.091 43.7119V43.5678L228.984 43.6693ZM219.201 53.8136C218.553 54.3533 217.941 54.9295 217.294 55.4367L214.705 57.4879C215.388 57.5954 216.072 57.7394 216.756 57.847C217.655 57.991 218.554 58.0985 219.489 58.2061L220.029 57.7739C220.353 56.514 220.605 55.2561 220.856 53.9962C221 53.3125 221.108 52.6653 221.215 51.9815C220.532 52.6267 219.886 53.2374 219.201 53.8136ZM211.071 60.1031L210.746 60.3181L208.92 61.505C207.445 62.4403 205.934 63.331 204.425 64.1669C203.238 64.8141 202.014 65.4613 200.791 66.0375C199.604 66.6137 198.381 67.1533 197.194 67.6606C196.906 67.7681 196.617 67.9121 196.295 68.0197C195.145 68.4863 193.992 68.9184 192.846 69.3506C191.371 69.8903 189.896 70.365 188.421 70.7891L187.812 70.9696C186.913 71.2212 186.049 71.4728 185.15 71.6899C184.503 71.8339 183.856 72.0145 183.209 72.1565C183.641 72.4811 184.073 72.8037 184.54 73.0918C185.26 73.5585 185.978 74.0271 186.735 74.4593C186.915 74.5668 187.141 74.6743 187.311 74.7839C188.528 74.4593 189.792 74.1002 190.979 73.7045L192.274 73.2724C192.957 73.0573 193.676 72.8058 194.359 72.5521C195.942 71.9759 197.488 71.3653 199.026 70.7262C200.243 70.1865 201.436 69.6468 202.623 69.0706C204.246 68.2794 205.788 67.4475 207.336 66.5893C208.667 65.8346 209.998 65.0433 211.292 64.2156C211.698 63.0287 212.047 61.8783 212.408 60.6894C212.589 60.0807 212.733 59.4721 212.911 58.8918C212.258 59.2814 211.692 59.677 211.071 60.1091V60.1031ZM228.984 43.6693H229.091V43.5252L228.984 43.6693ZM219.201 53.8136C218.553 54.3533 217.941 54.9295 217.294 55.4367L214.705 57.4879C215.388 57.5954 216.072 57.7394 216.756 57.847C217.655 57.991 218.554 58.0985 219.489 58.2061L220.029 57.7739C220.353 56.514 220.605 55.2561 220.856 53.9962C221 53.3125 221.108 52.6653 221.215 51.9815C220.532 52.6267 219.886 53.2374 219.201 53.8136ZM211.071 60.1031L210.746 60.3181L208.92 61.505C207.445 62.4403 205.934 63.331 204.425 64.1669C203.238 64.8141 202.014 65.4613 200.791 66.0375C199.604 66.6137 198.381 67.1533 197.194 67.6606C196.906 67.7681 196.617 67.9121 196.295 68.0197C195.145 68.4863 193.992 68.9184 192.846 69.3506C191.371 69.8903 189.896 70.365 188.421 70.7891L187.812 70.9696C186.913 71.2212 186.049 71.4728 185.15 71.6899C184.503 71.8339 183.856 72.0145 183.209 72.1565C183.641 72.4811 184.073 72.8037 184.54 73.0918C185.26 73.5585 185.978 74.0271 186.735 74.4593C186.915 74.5668 187.141 74.6743 187.311 74.7839C188.528 74.4593 189.792 74.1002 190.979 73.7045L192.274 73.2724C192.957 73.0573 193.676 72.8058 194.359 72.5521C195.942 71.9759 197.488 71.3653 199.026 70.7262C200.243 70.1865 201.436 69.6468 202.623 69.0706C204.246 68.2794 205.788 67.4475 207.336 66.5893C208.667 65.8346 209.998 65.0433 211.292 64.2156C211.698 63.0287 212.047 61.8783 212.408 60.6894C212.589 60.0807 212.733 59.4721 212.911 58.8918C212.258 59.2814 211.692 59.677 211.071 60.1091V60.1031ZM228.984 43.6693H229.091V43.5252L228.984 43.6693ZM200.746 66.007C199.559 66.5832 198.336 67.1229 197.149 67.6301C196.861 67.7377 196.573 67.8817 196.25 67.9892C195.1 68.4559 193.948 68.888 192.801 69.3202C191.326 69.8598 189.851 70.3346 188.376 70.7586L187.768 70.9392C186.869 71.1908 186.004 71.4424 185.106 71.6594C184.458 71.8035 183.811 71.9841 183.164 72.1261C183.596 72.4507 184.028 72.7733 184.495 73.0614C185.215 73.528 185.933 73.9967 186.69 74.4288C186.871 74.5364 187.096 74.6439 187.266 74.7535C188.484 74.4288 189.748 74.0697 190.935 73.6741L192.229 73.2419C192.913 73.0269 193.631 72.7753 194.315 72.5217C195.897 71.9455 197.445 71.3348 198.981 70.6957C200.198 70.1561 201.391 69.6164 202.578 69.0402C203.225 67.4171 203.838 65.7676 204.404 64.1121C203.193 64.7836 201.97 65.4329 200.746 66.007ZM228.984 43.6693H229.091V43.5252L228.984 43.6693ZM200.746 66.007C199.559 66.5832 198.336 67.1229 197.149 67.6301C196.861 67.7377 196.573 67.8817 196.25 67.9892C195.1 68.4559 193.948 68.888 192.801 69.3202C191.326 69.8598 189.851 70.3346 188.376 70.7586L187.768 70.9392C186.869 71.1908 186.004 71.4424 185.106 71.6594C184.458 71.8035 183.811 71.9841 183.164 72.1261C183.596 72.4507 184.028 72.7733 184.495 73.0614C185.215 73.528 185.933 73.9967 186.69 74.4288C186.871 74.5364 187.096 74.6439 187.266 74.7535C188.484 74.4288 189.748 74.0697 190.935 73.6741L192.229 73.2419C192.913 73.0269 193.631 72.7753 194.315 72.5217C195.897 71.9455 197.445 71.3348 198.981 70.6957C200.198 70.1561 201.391 69.6164 202.578 69.0402C203.225 67.4171 203.838 65.7676 204.404 64.1121C203.193 64.7836 201.97 65.4329 200.746 66.007ZM241.79 21.4756C241.465 22.3399 241.106 23.1656 240.747 24.0299C240.496 24.6386 240.208 25.2472 239.956 25.8559C239.668 26.5031 239.347 27.1868 239.021 27.834C238.085 29.7757 237.079 31.6889 235.963 33.5148C235.064 35.0263 234.166 36.5013 233.157 37.9783C233.013 38.1934 232.869 38.3841 232.725 38.587C231.575 40.277 230.315 41.9326 229.02 43.5516L228.913 43.6591C227.978 44.8095 227.042 45.9254 226.036 47.0047C225.784 47.2928 225.533 47.5444 225.281 47.8325L223.122 50.0987L222.546 50.6749C222.08 51.1416 221.611 51.5737 221.144 52.0424C220.497 52.6511 219.813 53.2597 219.13 53.8684C218.483 54.408 217.87 54.9842 217.223 55.4915L214.634 57.5426C214.025 58.0093 213.416 58.4414 212.808 58.8736C212.232 59.3057 211.621 59.7013 211.01 60.1335L210.686 60.3485L208.86 61.5354C207.385 62.4707 205.873 63.3614 204.364 64.1973C203.177 64.8445 201.953 65.4917 200.73 66.0679C199.543 66.6441 198.32 67.1838 197.096 67.691C196.808 67.7985 196.52 67.9426 196.197 68.0501C195.047 68.5167 193.895 68.9489 192.748 69.381C191.273 69.9207 189.798 70.3955 188.323 70.8195L187.715 71.0001C186.816 71.2516 185.952 71.5032 185.053 71.7203C184.406 71.8644 183.759 72.0449 183.111 72.1869C183.543 72.5116 183.974 72.8342 184.442 73.1222C185.163 73.5889 185.881 74.0576 186.638 74.4897C186.818 74.5972 187.043 74.7048 187.214 74.8143C188.431 74.4897 189.695 74.1306 190.882 73.735L192.176 73.3028C192.86 73.0878 193.578 72.8362 194.262 72.5826C195.844 72.0064 197.392 71.3957 198.928 70.7566C200.146 70.2169 201.339 69.6773 202.525 69.1011C204.149 68.3098 205.691 67.478 207.239 66.6197C208.569 65.865 209.9 65.0738 211.195 64.246C212.67 63.3107 214.108 62.3044 215.512 61.296L215.871 61.0445C217.058 60.1457 218.245 59.2469 219.395 58.3116L219.935 57.8794C221.266 56.7635 222.597 55.5767 223.857 54.3898C224.028 54.2126 224.208 54.0446 224.397 53.8866C225.368 52.9513 226.304 52.016 227.237 51.0462C227.643 50.6405 227.992 50.2185 228.387 49.8289C229.108 49.0377 229.826 48.2058 230.546 47.3821L232.488 45.0083C232.776 44.6492 233.064 44.2536 233.352 43.8925C234.287 42.6751 235.178 41.3747 236.085 40.0802C237.302 38.2827 238.459 36.4121 239.574 34.5049C240.295 33.2876 240.942 32.0236 241.589 30.7272C242.38 29.1812 243.101 27.6332 243.782 26.0608C243.251 24.4782 242.584 22.9441 241.79 21.4756ZM228.984 43.6693H229.091V43.5252L228.984 43.6693ZM235.998 33.525C235.099 35.0365 234.2 36.5115 233.192 37.9885C233.048 38.2035 232.904 38.3943 232.76 38.5971C231.609 40.2872 230.349 41.9427 229.055 43.5618L228.947 43.6693H229.055C230.242 43.7403 231.392 43.7768 232.579 43.7768H233.37C234.306 42.5595 235.196 41.259 236.103 39.9646C236.103 39.3559 236.14 38.7473 236.14 38.1386C236.14 36.5926 236.103 35.0446 235.996 33.5351L235.998 33.525ZM200.746 66.0436C199.559 66.6198 198.336 67.1594 197.149 67.6667C196.861 67.7742 196.573 67.9182 196.25 68.0257C195.1 68.4924 193.948 68.9245 192.801 69.3567C191.326 69.8964 189.851 70.3711 188.376 70.7952L187.768 70.9757C186.869 71.2273 186.004 71.4789 185.106 71.696C184.458 71.84 183.811 72.0206 183.164 72.1626C183.596 72.4872 184.028 72.8098 184.495 73.0979C185.215 73.5645 185.933 74.0332 186.69 74.4654C186.871 74.5729 187.096 74.6804 187.266 74.79C188.484 74.4654 189.748 74.1062 190.935 73.7106L192.229 73.2785C192.913 73.0634 193.631 72.8118 194.315 72.5582C195.897 71.982 197.445 71.3713 198.981 70.7323C200.198 70.1926 201.391 69.6529 202.578 69.0767C203.225 67.4536 203.838 65.8042 204.404 64.1486C203.187 64.7958 201.957 65.443 200.736 66.0557L200.746 66.0436ZM228.984 43.6693H229.091V43.5252L228.984 43.6693ZM211.071 60.1031L210.746 60.3181L208.92 61.505C207.445 62.4403 205.934 63.331 204.425 64.1669C203.238 64.8141 202.014 65.4613 200.791 66.0375C199.604 66.6137 198.381 67.1533 197.194 67.6606C196.906 67.7681 196.617 67.9121 196.295 68.0197C195.145 68.4863 193.992 68.9184 192.846 69.3506C191.371 69.8903 189.896 70.365 188.421 70.7891L187.812 70.9696C186.913 71.2212 186.049 71.4728 185.15 71.6899C184.503 71.8339 183.856 72.0145 183.209 72.1565C183.641 72.4811 184.073 72.8037 184.54 73.0918C185.26 73.5585 185.978 74.0271 186.735 74.4593C186.915 74.5668 187.141 74.6743 187.311 74.7839C188.528 74.4593 189.792 74.1002 190.979 73.7045L192.274 73.2724C192.957 73.0573 193.676 72.8058 194.359 72.5521C195.942 71.9759 197.488 71.3653 199.026 70.7262C200.243 70.1865 201.436 69.6468 202.623 69.0706C204.246 68.2794 205.788 67.4475 207.336 66.5893C208.667 65.8346 209.998 65.0433 211.292 64.2156C211.698 63.0287 212.047 61.8783 212.408 60.6894C212.589 60.0807 212.733 59.4721 212.911 58.8918C212.258 59.2814 211.692 59.677 211.071 60.1091V60.1031ZM219.201 53.8136C218.553 54.3533 217.941 54.9295 217.294 55.4367L214.705 57.4879C215.388 57.5954 216.072 57.7394 216.756 57.847C217.655 57.991 218.554 58.0985 219.489 58.2061L220.029 57.7739C220.353 56.514 220.605 55.2561 220.856 53.9962C221 53.3125 221.108 52.6653 221.215 51.9815C220.532 52.6287 219.884 53.2415 219.201 53.8075V53.8136ZM228.984 43.6693C228.049 44.8197 227.113 45.9355 226.107 47.0149C225.855 47.303 225.604 47.5546 225.352 47.8427L223.194 50.1089L222.617 50.6851C223.409 50.7561 224.163 50.8291 224.955 50.8656L227.292 50.9732C227.698 50.5674 228.047 50.1454 228.442 49.7559C228.55 48.9281 228.657 48.1003 228.767 47.2381C228.911 46.0512 228.982 44.9008 229.091 43.7119V43.5678L228.984 43.6693ZM211.071 60.1031L210.746 60.3181L208.92 61.505C207.445 62.4403 205.934 63.331 204.425 64.1669C203.238 64.8141 202.014 65.4613 200.791 66.0375C199.604 66.6137 198.381 67.1533 197.194 67.6606C196.906 67.7681 196.617 67.9121 196.295 68.0197C195.145 68.4863 193.992 68.9184 192.846 69.3506C191.371 69.8903 189.896 70.365 188.421 70.7891L187.812 70.9696C186.913 71.2212 186.049 71.4728 185.15 71.6899C184.503 71.8339 183.856 72.0145 183.209 72.1565C183.641 72.4811 184.073 72.8037 184.54 73.0918C185.26 73.5585 185.978 74.0271 186.735 74.4593C186.915 74.5668 187.141 74.6743 187.311 74.7839C188.528 74.4593 189.792 74.1002 190.979 73.7045L192.274 73.2724C192.957 73.0573 193.676 72.8058 194.359 72.5521C195.942 71.9759 197.488 71.3653 199.026 70.7262C200.243 70.1865 201.436 69.6468 202.623 69.0706C204.246 68.2794 205.788 67.4475 207.336 66.5893C208.667 65.8346 209.998 65.0433 211.292 64.2156C211.698 63.0287 212.047 61.8783 212.408 60.6894C212.589 60.0807 212.733 59.4721 212.911 58.8918C212.258 59.2814 211.692 59.677 211.071 60.1091V60.1031ZM219.201 53.8136C218.553 54.3533 217.941 54.9295 217.294 55.4367L214.705 57.4879C215.388 57.5954 216.072 57.7394 216.756 57.847C217.655 57.991 218.554 58.0985 219.489 58.2061L220.029 57.7739C220.353 56.514 220.605 55.2561 220.856 53.9962C221 53.3125 221.108 52.6653 221.215 51.9815C220.532 52.6287 219.884 53.2415 219.201 53.8075V53.8136ZM228.984 43.6693C228.049 44.8197 227.113 45.9355 226.107 47.0149C225.855 47.303 225.604 47.5546 225.352 47.8427L223.194 50.1089L222.617 50.6851C223.409 50.7561 224.163 50.8291 224.955 50.8656L227.292 50.9732C227.698 50.5674 228.047 50.1454 228.442 49.7559C228.55 48.9281 228.657 48.1003 228.767 47.2381C228.911 46.0512 228.982 44.9008 229.091 43.7119V43.5678L228.984 43.6693ZM211.071 60.1031L210.746 60.3181L208.92 61.505C207.445 62.4403 205.934 63.331 204.425 64.1669C203.238 64.8141 202.014 65.4613 200.791 66.0375C199.604 66.6137 198.381 67.1533 197.194 67.6606C196.906 67.7681 196.617 67.9121 196.295 68.0197C195.145 68.4863 193.992 68.9184 192.846 69.3506C191.371 69.8903 189.896 70.365 188.421 70.7891L187.812 70.9696C186.913 71.2212 186.049 71.4728 185.15 71.6899C184.503 71.8339 183.856 72.0145 183.209 72.1565C183.641 72.4811 184.073 72.8037 184.54 73.0918C185.26 73.5585 185.978 74.0271 186.735 74.4593C186.915 74.5668 187.141 74.6743 187.311 74.7839C188.528 74.4593 189.792 74.1002 190.979 73.7045L192.274 73.2724C192.957 73.0573 193.676 72.8058 194.359 72.5521C195.942 71.9759 197.488 71.3653 199.026 70.7262C200.243 70.1865 201.436 69.6468 202.623 69.0706C204.246 68.2794 205.788 67.4475 207.336 66.5893C208.667 65.8346 209.998 65.0433 211.292 64.2156C211.698 63.0287 212.047 61.8783 212.408 60.6894C212.589 60.0807 212.733 59.4721 212.911 58.8918C212.258 59.2814 211.692 59.677 211.071 60.1091V60.1031ZM219.201 53.8136C218.553 54.3533 217.941 54.9295 217.294 55.4367L214.705 57.4879C215.388 57.5954 216.072 57.7394 216.756 57.847C217.655 57.991 218.554 58.0985 219.489 58.2061L220.029 57.7739C220.353 56.514 220.605 55.2561 220.856 53.9962C221 53.3125 221.108 52.6653 221.215 51.9815C220.532 52.6287 219.884 53.2415 219.201 53.8075V53.8136ZM228.984 43.6693C228.049 44.8197 227.113 45.9355 226.107 47.0149C225.855 47.303 225.604 47.5546 225.352 47.8427L223.194 50.1089L222.617 50.6851C223.409 50.7561 224.163 50.8291 224.955 50.8656L227.292 50.9732C227.698 50.5674 228.047 50.1454 228.442 49.7559C228.55 48.9281 228.657 48.1003 228.767 47.2381C228.911 46.0512 228.982 44.9008 229.091 43.7119V43.5678L228.984 43.6693ZM228.984 43.6693C228.049 44.8197 227.113 45.9355 226.107 47.0149C225.855 47.303 225.604 47.5546 225.352 47.8427L223.194 50.1089L222.617 50.6851C223.409 50.7561 224.163 50.8291 224.955 50.8656L227.292 50.9732C227.698 50.5674 228.047 50.1454 228.442 49.7559C228.55 48.9281 228.657 48.1003 228.767 47.2381C228.911 46.0512 228.982 44.9008 229.091 43.7119V43.5678L228.984 43.6693ZM228.984 43.6693C228.049 44.8197 227.113 45.9355 226.107 47.0149C226.969 47.0859 227.87 47.1589 228.769 47.1954C228.913 46.0086 228.984 44.8582 229.093 43.6693V43.5252L228.984 43.6693Z" fill="#232323"/>
<path d="M220.82 42.8412C221.287 42.9122 221.755 42.9852 222.258 43.0562C222.295 42.4476 222.329 41.8389 222.329 41.2302L220.82 42.8412ZM213.766 49.3518C214.09 49.4228 214.413 49.4593 214.701 49.5323C214.737 49.1732 214.808 48.8121 214.845 48.4165C214.49 48.7411 214.129 49.0657 213.766 49.3518ZM205.565 55.2862C205.971 55.3937 206.356 55.5378 206.752 55.6453C206.859 55.2131 206.932 54.781 207.04 54.3509C206.537 54.6755 206.026 54.9981 205.565 55.2862ZM220.816 42.8412C221.283 42.9122 221.751 42.9852 222.254 43.0562C222.291 42.4476 222.325 41.8389 222.325 41.2302L220.816 42.8412ZM213.766 49.3518C214.09 49.4228 214.413 49.4593 214.701 49.5323C214.737 49.1732 214.808 48.8121 214.845 48.4165C214.49 48.7411 214.129 49.0657 213.766 49.3518ZM205.565 55.2862C205.971 55.3937 206.356 55.5378 206.752 55.6453C206.859 55.2131 206.932 54.781 207.04 54.3509C206.537 54.6755 206.026 54.9981 205.565 55.2862ZM220.816 42.8412C221.283 42.9122 221.751 42.9852 222.254 43.0562C222.291 42.4476 222.325 41.8389 222.325 41.2302L220.816 42.8412ZM213.766 49.3518C214.09 49.4228 214.413 49.4593 214.701 49.5323C214.737 49.1732 214.808 48.8121 214.845 48.4165C214.49 48.7411 214.129 49.0657 213.766 49.3518ZM205.565 55.2862C205.971 55.3937 206.356 55.5378 206.752 55.6453C206.859 55.2131 206.932 54.781 207.04 54.3509C206.537 54.6755 206.026 54.9981 205.565 55.2862ZM220.816 42.8412C221.283 42.9122 221.751 42.9852 222.254 43.0562C222.291 42.4476 222.325 41.8389 222.325 41.2302L220.816 42.8412ZM213.766 49.3518C214.09 49.4228 214.413 49.4593 214.701 49.5323C214.737 49.1732 214.808 48.8121 214.845 48.4165C214.49 48.7411 214.129 49.0657 213.766 49.3518ZM205.565 55.2862C205.971 55.3937 206.356 55.5378 206.752 55.6453C206.859 55.2131 206.932 54.781 207.04 54.3509C206.537 54.6755 206.026 54.9981 205.565 55.2862ZM238.112 15.7559C237.824 16.4761 237.536 17.1943 237.248 17.8781C237.248 17.9146 237.248 17.9146 237.211 17.9491C236.996 18.4887 236.745 19.0284 236.491 19.5721C235.951 20.7895 235.375 22.019 234.764 23.2058C233.937 24.8289 233.074 26.3709 232.175 27.9189C231.384 29.2498 230.552 30.5807 229.658 31.8752C229.477 32.1633 229.252 32.4514 229.049 32.7395C228.035 34.1779 226.998 35.6164 225.884 37.0203C224.734 38.4588 223.547 39.8608 222.287 41.2282L220.775 42.8513C220.416 43.2571 220.021 43.6425 219.659 44.0017C219.371 44.2898 219.051 44.5779 218.761 44.9004C218.402 45.2596 218.04 45.5842 217.681 45.9149C216.746 46.7792 215.811 47.6414 214.841 48.4692C214.482 48.7938 214.121 49.0779 213.762 49.4045C212.897 50.1248 211.998 50.8065 211.136 51.4902C210.812 51.7418 210.489 51.9933 210.164 52.2104C209.3 52.8191 208.438 53.4703 207.574 54.0364C207.392 54.1353 207.223 54.2559 207.07 54.3955C206.604 54.7201 206.099 55.0427 205.632 55.3308C204.912 55.7975 204.193 56.2296 203.473 56.6618C202.865 57.0209 202.213 57.382 201.603 57.7411C200.848 58.1733 200.057 58.5689 199.3 58.9584C198.149 59.5698 196.962 60.1453 195.739 60.685C195.055 61.0096 194.372 61.2936 193.688 61.5838C192.968 61.8719 192.286 62.16 191.566 62.4481C190.415 62.8802 189.3 63.3123 188.149 63.708C186.782 64.1746 185.416 64.6068 184.012 65.0024C183.077 65.254 182.142 65.5056 181.172 65.7571L180.596 65.8281C179.408 66.1162 178.221 66.3678 177.035 66.5829C177.793 67.4426 178.597 68.2594 179.445 69.0297C179.626 69.2102 179.851 69.3888 180.022 69.5694C180.813 69.3888 181.604 69.2102 182.359 69.0297C183.006 68.8856 183.619 68.7051 184.266 68.5265C185.057 68.3115 185.849 68.0944 186.603 67.8428C187.754 67.4837 188.869 67.1225 189.985 66.7269C191.46 66.2238 192.899 65.6476 194.303 65.0714C195.49 64.5682 196.677 64.0569 197.829 63.5254C199.304 62.8417 200.742 62.0869 202.181 61.3302C203.398 60.6829 204.628 59.9627 205.815 59.2445L206.03 59.1004C207.397 58.2727 208.728 57.409 210.022 56.5096L210.093 56.4731C211.424 55.5743 212.684 54.6471 213.948 53.6671C214.163 53.4866 214.415 53.308 214.632 53.1275C215.819 52.1922 216.969 51.2203 218.081 50.2505L218.189 50.143C219.448 49.0271 220.635 47.9113 221.822 46.7264L221.966 46.5824C223.009 45.5395 224.018 44.4602 225.024 43.3808C225.239 43.1292 225.456 42.8777 225.671 42.6606C226.858 41.2931 228.008 39.9277 229.12 38.4872C230.307 36.9412 231.457 35.3587 232.537 33.7742C233.58 32.2282 234.551 30.6457 235.487 29.0611C236.501 27.3346 237.428 25.5715 238.327 23.7739C238.4 23.5933 238.508 23.4148 238.579 23.2342C239.226 21.9398 239.796 20.6089 240.376 19.2414C239.736 18.009 238.978 16.8416 238.112 15.7559ZM205.569 55.2882C205.975 55.3957 206.36 55.5398 206.756 55.6473C206.863 55.2152 206.936 54.783 207.044 54.3529C206.541 54.6775 206.03 55.0001 205.569 55.2882ZM213.77 49.3538C214.094 49.4248 214.417 49.4613 214.705 49.5344C214.742 49.1753 214.813 48.8141 214.849 48.4185C214.49 48.7411 214.129 49.0657 213.766 49.3518L213.77 49.3538ZM220.82 42.8412C221.287 42.9122 221.755 42.9852 222.258 43.0562C222.295 42.4476 222.329 41.8389 222.329 41.2302L220.82 42.8412ZM213.766 49.3518C214.09 49.4228 214.413 49.4593 214.701 49.5323C214.737 49.1732 214.808 48.8121 214.845 48.4165C214.49 48.7411 214.129 49.0657 213.766 49.3518ZM220.816 42.8412C221.283 42.9122 221.751 42.9852 222.254 43.0562C222.291 42.4476 222.325 41.8389 222.325 41.2302L220.816 42.8412ZM205.565 55.2862C205.971 55.3937 206.356 55.5378 206.752 55.6453C206.859 55.2131 206.932 54.781 207.04 54.3509C206.539 54.6755 206.036 55.0001 205.569 55.2882L205.565 55.2862ZM213.766 49.3518C214.09 49.4228 214.413 49.4593 214.701 49.5323C214.737 49.1732 214.808 48.8121 214.845 48.4165C214.486 48.7411 214.125 49.0637 213.766 49.3518ZM220.816 42.8412C221.283 42.9122 221.751 42.9852 222.254 43.0562C222.291 42.4476 222.325 41.8389 222.325 41.2302L220.816 42.8412ZM205.565 55.2862C205.971 55.3937 206.356 55.5378 206.752 55.6453C206.859 55.2131 206.932 54.781 207.04 54.3509C206.539 54.6755 206.036 55.0001 205.569 55.2882L205.565 55.2862ZM213.766 49.3518C214.09 49.4228 214.413 49.4593 214.701 49.5323C214.737 49.1732 214.808 48.8121 214.845 48.4165C214.486 48.7411 214.125 49.0637 213.766 49.3518ZM220.816 42.8412C221.283 42.9122 221.751 42.9852 222.254 43.0562C222.291 42.4476 222.325 41.8389 222.325 41.2302L220.816 42.8412Z" fill="#232323"/>
<path d="M235.962 13.1995L233.629 10.8623C233.223 11.7976 232.838 12.6883 232.411 13.6317L232.089 14.2789C231.513 15.4293 230.939 16.6162 230.326 17.728C229.498 19.2395 228.636 20.7489 227.701 22.2239C227.197 23.0517 226.658 23.847 226.118 24.6342C225.759 25.1374 225.398 25.677 225.039 26.1802C224.067 27.5821 223.024 28.9131 221.945 30.2379C220.93 31.4552 219.93 32.6482 218.851 33.8351C217.952 34.8495 217.025 35.8132 216.045 36.7851L215.397 37.4323C214.318 38.5116 213.166 39.5545 212.015 40.5608C211.871 40.7048 211.727 40.8123 211.583 40.9665C210.54 41.8653 209.425 42.7641 208.337 43.6284L208.266 43.6994C207.187 44.5272 206.073 45.355 204.957 46.1462C204.632 46.3613 204.31 46.6129 203.943 46.8299L203.906 46.8665C203.007 47.4751 202.08 48.0838 201.137 48.664C200.812 48.8446 200.489 49.0698 200.201 49.2402C199.374 49.7434 198.546 50.2121 197.684 50.6787C197.036 51.0378 196.389 51.3624 195.742 51.7215C195.095 52.0461 194.447 52.3687 193.764 52.736C193.08 53.0606 192.362 53.4197 191.642 53.7504C191.209 53.9654 190.777 54.1562 190.311 54.3266C190.194 54.3808 190.074 54.4289 189.952 54.4706C188.764 54.9738 187.577 55.4411 186.391 55.8726C185.275 56.3047 184.159 56.6638 183.009 57.0229C181.714 57.4287 180.42 57.8142 179.123 58.1733C178.044 58.4614 176.93 58.7495 175.814 58.9646L175.599 59.0011C175.636 59.0721 175.707 59.1451 175.743 59.2161C176.391 60.2306 177.038 61.1943 177.758 62.1296L178.046 62.0586C179.377 61.7339 180.708 61.3748 182.002 61.0157C183.118 60.6911 184.269 60.332 185.385 59.9729C186.752 59.5063 188.083 59.0376 189.414 58.4979C190.564 58.0313 191.717 57.5626 192.863 57.0595C193.877 56.6273 194.878 56.1607 195.847 55.6575C196.207 55.4769 196.568 55.2984 196.89 55.1178C197.933 54.5768 198.94 54.0358 199.911 53.4948L200.378 53.2432C201.745 52.4884 203.04 51.6607 204.371 50.8329L204.478 50.7619C205.629 50.0071 206.781 49.2504 207.895 48.4246L208.254 48.173C209.441 47.3088 210.628 46.41 211.744 45.4747C211.995 45.2941 212.21 45.0689 212.464 44.8985C213.436 44.1072 214.371 43.316 215.27 42.4517L215.738 42.0195C216.818 41.0477 217.861 40.0049 218.903 38.962C220.019 37.8117 221.135 36.6248 222.212 35.4014C223.363 34.107 224.479 32.776 225.522 31.4086C226.536 30.1142 227.5 28.7832 228.435 27.4523C229.449 26.0138 230.413 24.5023 231.312 22.9888C232.14 21.6213 232.935 20.1829 233.686 18.7809C233.974 18.2413 234.262 17.7016 234.513 17.1579C235.053 16.115 235.556 15.0357 236.025 13.9563C236.065 13.8567 236.114 13.7604 236.169 13.6682C236.185 13.5784 236.173 13.486 236.136 13.4026C236.1 13.3192 236.039 13.2486 235.962 13.1995Z" fill="#232323"/>
<path d="M206.757 55.6477C206.351 55.5401 205.965 55.4326 205.57 55.2886C204.85 55.7552 204.131 56.1873 203.411 56.6195C202.802 56.9786 202.151 57.3397 201.54 57.6988C202.044 57.8794 202.555 58.058 203.052 58.202C203.987 58.5266 204.959 58.8107 205.929 59.0663L206.109 59.1028C207.477 58.275 208.808 57.4114 210.102 56.512C208.986 56.2563 207.871 55.9682 206.757 55.6477ZM206.757 55.6477C206.351 55.5401 205.965 55.4326 205.57 55.2886C204.85 55.7552 204.131 56.1873 203.411 56.6195C202.802 56.9786 202.151 57.3397 201.54 57.6988C202.044 57.8794 202.555 58.058 203.052 58.202C203.987 58.5266 204.959 58.8107 205.929 59.0663L206.109 59.1028C207.477 58.275 208.808 57.4114 210.102 56.512C208.986 56.2563 207.871 55.9682 206.757 55.6477ZM206.757 55.6477C206.351 55.5401 205.965 55.4326 205.57 55.2886C204.85 55.7552 204.131 56.1873 203.411 56.6195C202.802 56.9786 202.151 57.3397 201.54 57.6988C202.044 57.8794 202.555 58.058 203.052 58.202C203.987 58.5266 204.959 58.8107 205.929 59.0663L206.109 59.1028C207.477 58.275 208.808 57.4114 210.102 56.512C208.986 56.2563 207.871 55.9682 206.757 55.6477ZM206.757 55.6477C206.351 55.5401 205.965 55.4326 205.57 55.2886C204.85 55.7552 204.131 56.1873 203.411 56.6195C202.802 56.9786 202.151 57.3397 201.54 57.6988C202.044 57.8794 202.555 58.058 203.052 58.202C203.987 58.5266 204.959 58.8107 205.929 59.0663L206.109 59.1028C207.477 58.275 208.808 57.4114 210.102 56.512C208.986 56.2563 207.871 55.9682 206.757 55.6477ZM206.757 55.6477C206.351 55.5401 205.965 55.4326 205.57 55.2886C204.85 55.7552 204.131 56.1873 203.411 56.6195C202.802 56.9786 202.151 57.3397 201.54 57.6988C202.044 57.8794 202.555 58.058 203.052 58.202C203.987 58.5266 204.959 58.8107 205.929 59.0663L206.109 59.1028C207.477 58.275 208.808 57.4114 210.102 56.512C208.986 56.2563 207.871 55.9682 206.757 55.6477ZM206.757 55.6477C206.351 55.5401 205.965 55.4326 205.57 55.2886C204.85 55.7552 204.131 56.1873 203.411 56.6195C202.802 56.9786 202.151 57.3397 201.54 57.6988C202.044 57.8794 202.555 58.058 203.052 58.202C203.987 58.5266 204.959 58.8107 205.929 59.0663L206.109 59.1028C207.477 58.275 208.808 57.4114 210.102 56.512C208.986 56.2563 207.871 55.9682 206.757 55.6477ZM237.835 58.3805C237.62 58.4171 237.429 58.4171 237.226 58.4515C236.009 58.5591 234.745 58.6666 233.521 58.7031L230.249 58.8107H229.385C228.449 58.8107 227.514 58.8107 226.615 58.7741C225.536 58.7376 224.493 58.6666 223.414 58.5936C222.226 58.5219 221.039 58.4137 219.853 58.269L219.421 58.2324C218.522 58.1249 217.595 57.9809 216.688 57.8733C216.004 57.7658 215.32 57.6583 214.637 57.5142C214.028 57.9809 213.419 58.413 212.811 58.8451C212.235 59.2773 211.624 59.6729 211.013 60.1051L210.689 60.3201C211.228 60.4277 211.768 60.5717 212.312 60.6792C213.391 60.8943 214.434 61.085 215.513 61.2554L215.801 61.2919C216.816 61.4725 217.853 61.6166 218.895 61.7241C220.082 61.8682 221.269 61.9757 222.456 62.0832C223.499 62.1542 224.542 62.2273 225.584 62.2638C226.802 62.3003 228.031 62.3348 229.253 62.3348H229.36C230.403 62.3348 231.446 62.2983 232.454 62.2638C233.39 62.2273 234.325 62.1928 235.224 62.1197C235.548 62.0832 235.871 62.0832 236.195 62.0487C237.413 61.9412 238.642 61.8337 239.864 61.6896C240.677 60.4355 241.422 59.1385 242.095 57.8043C240.764 58.0559 239.326 58.2365 237.851 58.3805H237.835ZM197.513 52.3731C196.937 52.1215 196.397 51.9064 195.823 51.6528C195.249 51.3992 194.707 51.1497 194.133 50.8616C193.119 50.3949 192.155 49.8898 191.183 49.3866C190.067 48.8104 188.951 48.1693 187.838 47.516C186.823 46.9073 185.823 46.2987 184.817 45.6454C184.384 45.3573 183.952 45.1057 183.557 44.8176C182.836 44.351 182.155 43.8458 181.471 43.3426C180.428 42.5879 179.385 41.7966 178.377 41.0054C177.19 40.0701 176.04 39.0983 174.887 38.0554C173.7 37.0126 172.55 35.8967 171.438 34.7829L170.83 34.1742C169.815 33.1314 168.815 32.0885 167.843 30.9727C167.516 32.4337 167.264 33.9107 167.088 35.3976C168.168 36.5135 169.247 37.6294 170.397 38.7067C171.799 40.0741 173.274 41.3685 174.786 42.592C175.902 43.4907 177.018 44.3895 178.131 45.2538C179.103 45.9741 180.11 46.6923 181.118 47.376C182.197 48.1307 183.311 48.851 184.427 49.5347C185.398 50.1461 186.369 50.7216 187.34 51.2613C188.42 51.8699 189.499 52.4482 190.613 53.0243C190.972 53.2049 191.368 53.3834 191.729 53.6005C192.305 53.8886 192.916 54.1767 193.492 54.4648C194.283 54.8239 195.115 55.2196 195.939 55.5442C196.298 55.3636 196.659 55.1851 196.982 55.0045C198.024 54.4635 199.031 53.9225 200.003 53.3814C199.203 53.0852 198.339 52.7322 197.513 52.3731ZM206.759 55.6456C206.353 55.5381 205.967 55.4306 205.572 55.2865C204.852 55.7532 204.133 56.1853 203.413 56.6175C202.804 56.9766 202.153 57.3377 201.542 57.6968C202.046 57.8774 202.557 58.0559 203.054 58.2C203.989 58.5246 204.961 58.8086 205.931 59.0643L206.111 59.1008C207.479 58.273 208.81 57.4094 210.104 56.5099C208.987 56.2557 207.871 55.9682 206.757 55.6477L206.759 55.6456ZM206.759 55.6456C206.353 55.5381 205.967 55.4306 205.572 55.2865C204.852 55.7532 204.133 56.1853 203.413 56.6175C202.804 56.9766 202.153 57.3377 201.542 57.6968C202.046 57.8774 202.557 58.0559 203.054 58.2C203.989 58.5246 204.961 58.8086 205.931 59.0643L206.111 59.1008C207.479 58.273 208.81 57.4094 210.104 56.5099C208.987 56.2557 207.871 55.9682 206.757 55.6477L206.759 55.6456ZM206.759 55.6456C206.353 55.5381 205.967 55.4306 205.572 55.2865C204.852 55.7532 204.133 56.1853 203.413 56.6175C202.804 56.9766 202.153 57.3377 201.542 57.6968C202.046 57.8774 202.557 58.0559 203.054 58.2C203.989 58.5246 204.961 58.8086 205.931 59.0643L206.111 59.1008C207.479 58.273 208.81 57.4094 210.104 56.5099C208.987 56.2557 207.871 55.9682 206.757 55.6477L206.759 55.6456ZM206.759 55.6456C206.353 55.5381 205.967 55.4306 205.572 55.2865C204.852 55.7532 204.133 56.1853 203.413 56.6175C202.804 56.9766 202.153 57.3377 201.542 57.6968C202.046 57.8774 202.557 58.0559 203.054 58.2C203.989 58.5246 204.961 58.8086 205.931 59.0643L206.111 59.1008C207.479 58.273 208.81 57.4094 210.104 56.5099C208.987 56.2557 207.871 55.9682 206.757 55.6477L206.759 55.6456ZM206.759 55.6456C206.353 55.5381 205.967 55.4306 205.572 55.2865C204.852 55.7532 204.133 56.1853 203.413 56.6175C202.804 56.9766 202.153 57.3377 201.542 57.6968C202.046 57.8774 202.557 58.0559 203.054 58.2C203.989 58.5246 204.961 58.8086 205.931 59.0643L206.111 59.1008C207.479 58.273 208.81 57.4094 210.104 56.5099C208.987 56.2557 207.871 55.9682 206.757 55.6477L206.759 55.6456Z" fill="#232323"/>
<path d="M208.045 47.9865C207.002 47.6984 205.994 47.4103 204.951 47.0512C204.663 46.9437 204.342 46.8707 204.052 46.7631C203.188 46.475 202.362 46.1869 201.534 45.8643C200.491 45.4586 199.483 45.0731 198.44 44.647L198.152 44.5395C197.073 44.0729 196.03 43.6042 194.987 43.1376C193.944 42.6344 192.901 42.1231 191.859 41.5916C190.672 40.9829 189.521 40.3316 188.369 39.6499C187.29 39.0027 186.21 38.3555 185.167 37.6718L184.196 37.0246C183.297 36.4159 182.433 35.8073 181.57 35.1986C180.456 34.3708 179.341 33.5072 178.225 32.6078C176.93 31.5284 175.634 30.4125 174.37 29.2987L172.544 27.5721C172.074 28.8033 171.689 30.0656 171.393 31.3499C172.509 32.3927 173.625 33.4011 174.776 34.3708C175.963 35.3853 177.149 36.349 178.409 37.2843C179.452 38.0755 180.531 38.8668 181.611 39.587C182.761 40.3783 183.914 41.133 185.1 41.8533C186.115 42.5005 187.152 43.1132 188.194 43.6793C189.31 44.3265 190.461 44.8966 191.611 45.4768C192.626 45.98 193.626 46.4913 194.669 46.9518C195.784 47.455 196.935 47.9662 198.051 48.3903C198.771 48.6784 199.526 48.9665 200.244 49.2546C200.514 49.3666 200.79 49.4628 201.072 49.5427C202.188 49.9484 203.338 50.3339 204.488 50.693C204.515 50.6972 204.54 50.71 204.559 50.7296C205.71 49.9748 206.862 49.2181 207.976 48.3923L208.335 48.1407L208.045 47.9865ZM218.189 50.1452C217.039 49.9647 215.852 49.7861 214.699 49.569C214.375 49.498 214.052 49.4615 213.764 49.3885C212.9 50.1087 212.001 50.7904 211.139 51.4741C210.814 51.7257 210.492 51.9773 210.167 52.1944C210.439 52.2717 210.715 52.332 210.995 52.375C212.038 52.6265 213.117 52.8416 214.16 53.0222L214.736 53.1297C215.923 52.1944 217.073 51.2226 218.185 50.2528L218.293 50.1452H218.189ZM218.189 50.1452C217.039 49.9647 215.852 49.7861 214.699 49.569C214.375 49.498 214.052 49.4615 213.764 49.3885C212.9 50.1087 212.001 50.7904 211.139 51.4741C210.814 51.7257 210.492 51.9773 210.167 52.1944C210.439 52.2717 210.715 52.332 210.995 52.375C212.038 52.6265 213.117 52.8416 214.16 53.0222L214.736 53.1297C215.923 52.1944 217.073 51.2226 218.185 50.2528L218.293 50.1452H218.189ZM218.189 50.1452C217.039 49.9647 215.852 49.7861 214.699 49.569C214.375 49.498 214.052 49.4615 213.764 49.3885C212.9 50.1087 212.001 50.7904 211.139 51.4741C210.814 51.7257 210.492 51.9773 210.167 52.1944C210.439 52.2717 210.715 52.332 210.995 52.375C212.038 52.6265 213.117 52.8416 214.16 53.0222L214.736 53.1297C215.923 52.1944 217.073 51.2226 218.185 50.2528L218.293 50.1452H218.189ZM218.189 50.1452C217.039 49.9647 215.852 49.7861 214.699 49.569C214.375 49.498 214.052 49.4615 213.764 49.3885C212.9 50.1087 212.001 50.7904 211.139 51.4741C210.814 51.7257 210.492 51.9773 210.167 52.1944C210.439 52.2717 210.715 52.332 210.995 52.375C212.038 52.6265 213.117 52.8416 214.16 53.0222L214.736 53.1297C215.923 52.1944 217.073 51.2226 218.185 50.2528L218.293 50.1452H218.189ZM218.189 50.1452C217.039 49.9647 215.852 49.7861 214.699 49.569C214.375 49.498 214.052 49.4615 213.764 49.3885C212.9 50.1087 212.001 50.7904 211.139 51.4741C210.814 51.7257 210.492 51.9773 210.167 52.1944C210.439 52.2717 210.715 52.332 210.995 52.375C212.038 52.6265 213.117 52.8416 214.16 53.0222L214.736 53.1297C215.923 52.1944 217.073 51.2226 218.185 50.2528L218.293 50.1452H218.189ZM218.189 50.1452C217.039 49.9647 215.852 49.7861 214.699 49.569C214.375 49.498 214.052 49.4615 213.764 49.3885C212.9 50.1087 212.001 50.7904 211.139 51.4741C210.814 51.7257 210.492 51.9773 210.167 52.1944C210.439 52.2717 210.715 52.332 210.995 52.375C212.038 52.6265 213.117 52.8416 214.16 53.0222L214.736 53.1297C215.923 52.1944 217.073 51.2226 218.185 50.2528L218.293 50.1452H218.189ZM218.189 50.1452C217.039 49.9647 215.852 49.7861 214.699 49.569C214.375 49.498 214.052 49.4615 213.764 49.3885C212.9 50.1087 212.001 50.7904 211.139 51.4741C210.814 51.7257 210.492 51.9773 210.167 52.1944C210.439 52.2717 210.715 52.332 210.995 52.375C212.038 52.6265 213.117 52.8416 214.16 53.0222L214.736 53.1297C215.923 52.1944 217.073 51.2226 218.185 50.2528L218.293 50.1452H218.189ZM218.189 50.1452C217.039 49.9647 215.852 49.7861 214.699 49.569C214.375 49.498 214.052 49.4615 213.764 49.3885C212.9 50.1087 212.001 50.7904 211.139 51.4741C210.814 51.7257 210.492 51.9773 210.167 52.1944C210.439 52.2717 210.715 52.332 210.995 52.375C212.038 52.6265 213.117 52.8416 214.16 53.0222L214.736 53.1297C215.923 52.1944 217.073 51.2226 218.185 50.2528L218.293 50.1452H218.189ZM241.391 50.1818L238.766 50.5064C237.579 50.6504 236.356 50.7214 235.132 50.7945C234.016 50.8655 232.9 50.902 231.787 50.9385C231.21 50.9385 230.6 50.975 230.023 50.975C229.415 50.975 228.837 50.975 228.224 50.9385C227.9 50.9443 227.575 50.9322 227.252 50.902L224.915 50.7945C224.124 50.758 223.369 50.6869 222.578 50.6139C222.111 51.0805 221.642 51.5127 221.176 51.9814C220.528 52.59 219.845 53.1987 219.161 53.8073C219.701 53.8783 220.24 53.9514 220.817 53.9879C221.859 54.0954 222.868 54.203 223.911 54.276L224.343 54.3125C225.422 54.3835 226.501 54.4201 227.589 54.4566C228.38 54.4931 229.212 54.4931 229.999 54.4931H231.186C232.302 54.4931 233.379 54.4566 234.495 54.3856C235.712 54.3145 236.942 54.2415 238.129 54.134L240.036 53.9189C241.367 53.7749 242.698 53.5598 244.029 53.3427C244.467 52.1039 244.839 50.8429 245.145 49.565C243.956 49.8206 242.69 50.0357 241.395 50.1797L241.391 50.1818ZM208.045 47.9865C207.002 47.6984 205.994 47.4103 204.951 47.0512C204.663 46.9437 204.342 46.8707 204.052 46.7631C203.188 46.475 202.362 46.1869 201.534 45.8643C200.491 45.4586 199.483 45.0731 198.44 44.647L198.152 44.5395C197.073 44.0729 196.03 43.6042 194.987 43.1376C193.944 42.6344 192.901 42.1231 191.859 41.5916C190.672 40.9829 189.521 40.3316 188.369 39.6499C187.29 39.0027 186.21 38.3555 185.167 37.6718L184.196 37.0246C183.297 36.4159 182.433 35.8073 181.57 35.1986C180.456 34.3708 179.341 33.5072 178.225 32.6078C176.93 31.5284 175.634 30.4125 174.37 29.2987L172.544 27.5721C172.373 27.3949 172.193 27.227 172.004 27.069C171.249 26.3142 170.529 25.5575 169.809 24.8027C169.296 26.0117 168.852 27.2486 168.478 28.5074C169.413 29.4793 170.385 30.4146 171.355 31.3478C172.471 32.3907 173.587 33.399 174.737 34.3688C175.924 35.3833 177.111 36.347 178.371 37.2823C179.414 38.0735 180.493 38.8648 181.572 39.585C182.723 40.3763 183.875 41.131 185.062 41.8512C186.076 42.4985 187.113 43.1112 188.156 43.6772C189.272 44.3244 190.422 44.8945 191.573 45.4748C192.587 45.978 193.587 46.4892 194.63 46.9498C195.746 47.4529 196.896 47.9642 198.012 48.3882C198.732 48.6763 199.487 48.9644 200.205 49.2525C200.475 49.3645 200.752 49.4607 201.033 49.5406C202.149 49.9464 203.299 50.3319 204.415 50.691C204.442 50.6951 204.467 50.708 204.486 50.7275C205.637 49.9728 206.789 49.216 207.903 48.3903L208.262 48.1387L208.045 47.9865ZM218.189 50.1452C217.039 49.9647 215.852 49.7861 214.699 49.569C214.375 49.498 214.052 49.4615 213.764 49.3885C212.9 50.1087 212.001 50.7904 211.139 51.4741C210.814 51.7257 210.492 51.9773 210.167 52.1944C210.439 52.2717 210.715 52.332 210.995 52.375C212.038 52.6265 213.117 52.8416 214.16 53.0222L214.736 53.1297C215.923 52.1944 217.073 51.2226 218.185 50.2528L218.293 50.1452H218.189ZM218.189 50.1452C217.039 49.9647 215.852 49.7861 214.699 49.569C214.375 49.498 214.052 49.4615 213.764 49.3885C212.9 50.1087 212.001 50.7904 211.139 51.4741C210.814 51.7257 210.492 51.9773 210.167 52.1944C210.439 52.2717 210.715 52.332 210.995 52.375C212.038 52.6265 213.117 52.8416 214.16 53.0222L214.736 53.1297C215.923 52.1944 217.073 51.2226 218.185 50.2528L218.293 50.1452H218.189ZM218.189 50.1452C217.039 49.9647 215.852 49.7861 214.699 49.569C214.375 49.498 214.052 49.4615 213.764 49.3885C212.9 50.1087 212.001 50.7904 211.139 51.4741C210.814 51.7257 210.492 51.9773 210.167 52.1944C210.439 52.2717 210.715 52.332 210.995 52.375C212.038 52.6265 213.117 52.8416 214.16 53.0222L214.736 53.1297C215.923 52.1944 217.073 51.2226 218.185 50.2528L218.293 50.1452H218.189ZM218.189 50.1452C217.039 49.9647 215.852 49.7861 214.699 49.569C214.375 49.498 214.052 49.4615 213.764 49.3885C212.9 50.1087 212.001 50.7904 211.139 51.4741C210.814 51.7257 210.492 51.9773 210.167 52.1944C210.439 52.2717 210.715 52.332 210.995 52.375C212.038 52.6265 213.117 52.8416 214.16 53.0222L214.736 53.1297C215.923 52.1944 217.073 51.2226 218.185 50.2528L218.293 50.1452H218.189ZM218.189 50.1452C217.039 49.9647 215.852 49.7861 214.699 49.569C214.375 49.498 214.052 49.4615 213.764 49.3885C212.9 50.1087 212.001 50.7904 211.139 51.4741C210.814 51.7257 210.492 51.9773 210.167 52.1944C210.439 52.2717 210.715 52.332 210.995 52.375C212.038 52.6265 213.117 52.8416 214.16 53.0222L214.736 53.1297C215.923 52.1944 217.073 51.2226 218.185 50.2528L218.293 50.1452H218.189ZM208.045 47.9865C207.002 47.6984 205.994 47.4103 204.951 47.0512C204.663 46.9437 204.342 46.8707 204.052 46.7631C203.188 46.475 202.362 46.1869 201.534 45.8643C200.491 45.4586 199.483 45.0731 198.44 44.647L198.152 44.5395C197.073 44.0729 196.03 43.6042 194.987 43.1376C193.944 42.6344 192.901 42.1231 191.859 41.5916C190.672 40.9829 189.521 40.3316 188.369 39.6499C187.29 39.0027 186.21 38.3555 185.167 37.6718L184.196 37.0246C183.297 36.4159 182.433 35.8073 181.57 35.1986C180.456 34.3708 179.341 33.5072 178.225 32.6078C176.93 31.5284 175.634 30.4125 174.37 29.2987L172.544 27.5721C172.074 28.8033 171.689 30.0656 171.393 31.3499C172.509 32.3927 173.625 33.4011 174.776 34.3708C175.963 35.3853 177.149 36.349 178.409 37.2843C179.452 38.0755 180.531 38.8668 181.611 39.587C182.761 40.3783 183.914 41.133 185.1 41.8533C186.115 42.5005 187.152 43.1132 188.194 43.6793C189.31 44.3265 190.461 44.8966 191.611 45.4768C192.626 45.98 193.626 46.4913 194.669 46.9518C195.784 47.455 196.935 47.9662 198.051 48.3903C198.771 48.6784 199.526 48.9665 200.244 49.2546C200.514 49.3666 200.79 49.4628 201.072 49.5427C202.188 49.9484 203.338 50.3339 204.488 50.693C204.515 50.6972 204.54 50.71 204.559 50.7296C205.71 49.9748 206.862 49.2181 207.976 48.3923L208.335 48.1407L208.045 47.9865ZM218.189 50.1452C217.039 49.9647 215.852 49.7861 214.699 49.569C214.375 49.498 214.052 49.4615 213.764 49.3885C212.9 50.1087 212.001 50.7904 211.139 51.4741C210.814 51.7257 210.492 51.9773 210.167 52.1944C210.439 52.2717 210.715 52.332 210.995 52.375C212.038 52.6265 213.117 52.8416 214.16 53.0222L214.736 53.1297C215.923 52.1944 217.073 51.2226 218.185 50.2528L218.293 50.1452H218.189ZM208.045 47.9865C207.002 47.6984 205.994 47.4103 204.951 47.0512C204.663 46.9437 204.342 46.8707 204.052 46.7631C203.188 46.475 202.362 46.1869 201.534 45.8643C200.491 45.4586 199.483 45.0731 198.44 44.647L198.152 44.5395C197.073 44.0729 196.03 43.6042 194.987 43.1376C193.944 42.6344 192.901 42.1231 191.859 41.5916C190.672 40.9829 189.521 40.3316 188.369 39.6499C187.29 39.0027 186.21 38.3555 185.167 37.6718L184.196 37.0246C183.297 36.4159 182.433 35.8073 181.57 35.1986C180.456 34.3708 179.341 33.5072 178.225 32.6078C176.93 31.5284 175.634 30.4125 174.37 29.2987L172.544 27.5721C172.074 28.8033 171.689 30.0656 171.393 31.3499C172.509 32.3927 173.625 33.4011 174.776 34.3708C175.963 35.3853 177.149 36.349 178.409 37.2843C179.452 38.0755 180.531 38.8668 181.611 39.587C182.761 40.3783 183.914 41.133 185.1 41.8533C186.115 42.5005 187.152 43.1132 188.194 43.6793C189.31 44.3265 190.461 44.8966 191.611 45.4768C192.626 45.98 193.626 46.4913 194.669 46.9518C195.784 47.455 196.935 47.9662 198.051 48.3903C198.771 48.6784 199.526 48.9665 200.244 49.2546C200.514 49.3666 200.79 49.4628 201.072 49.5427C202.188 49.9484 203.338 50.3339 204.488 50.693C204.515 50.6972 204.54 50.71 204.559 50.7296C205.71 49.9748 206.862 49.2181 207.976 48.3923L208.335 48.1407L208.045 47.9865ZM218.189 50.1452C217.039 49.9647 215.852 49.7861 214.699 49.569C214.375 49.498 214.052 49.4615 213.764 49.3885C212.9 50.1087 212.001 50.7904 211.139 51.4741C210.814 51.7257 210.492 51.9773 210.167 52.1944C210.439 52.2717 210.715 52.332 210.995 52.375C212.038 52.6265 213.117 52.8416 214.16 53.0222L214.736 53.1297C215.923 52.1944 217.073 51.2226 218.185 50.2528L218.293 50.1452H218.189Z" fill="#232323"/>
<path d="M222.222 43.058C221.755 42.987 221.286 42.914 220.783 42.8429C220.424 43.2487 220.029 43.6342 219.667 43.9933C219.379 44.2814 219.059 44.5695 218.769 44.8921C218.41 45.2512 218.048 45.5758 217.689 45.9065C218.014 45.9775 218.336 46.0141 218.661 46.0871C219.74 46.2677 220.856 46.4462 221.934 46.5903H222.078C223.12 45.5474 224.129 44.4681 225.135 43.3887L222.222 43.058ZM222.222 43.058C221.755 42.987 221.286 42.914 220.783 42.8429C220.424 43.2487 220.029 43.6342 219.667 43.9933C219.379 44.2814 219.059 44.5695 218.769 44.8921C218.41 45.2512 218.048 45.5758 217.689 45.9065C218.014 45.9775 218.336 46.0141 218.661 46.0871C219.74 46.2677 220.856 46.4462 221.934 46.5903H222.078C223.12 45.5474 224.129 44.4681 225.135 43.3887L222.222 43.058ZM222.222 43.058C221.755 42.987 221.286 42.914 220.783 42.8429C220.424 43.2487 220.029 43.6342 219.667 43.9933C219.379 44.2814 219.059 44.5695 218.769 44.8921C218.41 45.2512 218.048 45.5758 217.689 45.9065C218.014 45.9775 218.336 46.0141 218.661 46.0871C219.74 46.2677 220.856 46.4462 221.934 46.5903H222.078C223.12 45.5474 224.129 44.4681 225.135 43.3887L222.222 43.058ZM222.222 43.058C221.755 42.987 221.286 42.914 220.783 42.8429C220.424 43.2487 220.029 43.6342 219.667 43.9933C219.379 44.2814 219.059 44.5695 218.769 44.8921C218.41 45.2512 218.048 45.5758 217.689 45.9065C218.014 45.9775 218.336 46.0141 218.661 46.0871C219.74 46.2677 220.856 46.4462 221.934 46.5903H222.078C223.12 45.5474 224.129 44.4681 225.135 43.3887L222.222 43.058ZM222.222 43.058C221.755 42.987 221.286 42.914 220.783 42.8429C220.424 43.2487 220.029 43.6342 219.667 43.9933C219.379 44.2814 219.059 44.5695 218.769 44.8921C218.41 45.2512 218.048 45.5758 217.689 45.9065C218.014 45.9775 218.336 46.0141 218.661 46.0871C219.74 46.2677 220.856 46.4462 221.934 46.5903H222.078C223.12 45.5474 224.129 44.4681 225.135 43.3887L222.222 43.058ZM222.222 43.058C221.755 42.987 221.286 42.914 220.783 42.8429C220.424 43.2487 220.029 43.6342 219.667 43.9933C219.379 44.2814 219.059 44.5695 218.769 44.8921C218.41 45.2512 218.048 45.5758 217.689 45.9065C218.014 45.9775 218.336 46.0141 218.661 46.0871C219.74 46.2677 220.856 46.4462 221.934 46.5903H222.078C223.12 45.5474 224.129 44.4681 225.135 43.3887L222.222 43.058ZM242.725 43.2021L239.524 43.5267C238.337 43.5977 237.15 43.6707 235.963 43.7072C235.099 43.7438 234.273 43.7438 233.409 43.7438H232.618C231.431 43.7438 230.244 43.7072 229.091 43.6362H228.984C228.049 44.7866 227.113 45.9025 226.107 46.9818C226.971 47.0528 227.87 47.1259 228.769 47.1624C229.378 47.1989 229.986 47.2334 230.595 47.2334C231.171 47.2334 231.745 47.2699 232.321 47.2699H233.186C234.013 47.2699 234.841 47.2699 235.667 47.2334C236.854 47.1969 238.041 47.1259 239.228 47.0528C240.242 46.9818 241.242 46.9088 242.249 46.8013C243.466 46.6572 244.695 46.5132 245.917 46.3346C246.097 45.1477 246.241 43.9243 246.323 42.7009C245.099 42.914 243.912 43.0945 242.725 43.2021ZM222.222 43.058C221.755 42.987 221.286 42.914 220.783 42.8429C220.424 43.2487 220.029 43.6342 219.667 43.9933C219.379 44.2814 219.059 44.5695 218.769 44.8921C218.41 45.2512 218.048 45.5758 217.689 45.9065C218.014 45.9775 218.336 46.0141 218.661 46.0871C219.74 46.2677 220.856 46.4462 221.934 46.5903H222.078C223.12 45.5474 224.129 44.4681 225.135 43.3887L222.222 43.0641V43.058ZM222.222 43.058C221.755 42.987 221.286 42.914 220.783 42.8429C220.424 43.2487 220.029 43.6342 219.667 43.9933C219.379 44.2814 219.059 44.5695 218.769 44.8921C218.41 45.2512 218.048 45.5758 217.689 45.9065C218.014 45.9775 218.336 46.0141 218.661 46.0871C219.74 46.2677 220.856 46.4462 221.934 46.5903H222.078C223.12 45.5474 224.129 44.4681 225.135 43.3887L222.222 43.0641V43.058ZM222.222 43.058C221.755 42.987 221.286 42.914 220.783 42.8429C220.424 43.2487 220.029 43.6342 219.667 43.9933C219.379 44.2814 219.059 44.5695 218.769 44.8921C218.41 45.2512 218.048 45.5758 217.689 45.9065C218.014 45.9775 218.336 46.0141 218.661 46.0871C219.74 46.2677 220.856 46.4462 221.934 46.5903H222.078C223.12 45.5474 224.129 44.4681 225.135 43.3887L222.222 43.0641V43.058ZM222.222 43.058C221.755 42.987 221.286 42.914 220.783 42.8429C220.424 43.2487 220.029 43.6342 219.667 43.9933C219.379 44.2814 219.059 44.5695 218.769 44.8921C218.41 45.2512 218.048 45.5758 217.689 45.9065C218.014 45.9775 218.336 46.0141 218.661 46.0871C219.74 46.2677 220.856 46.4462 221.934 46.5903H222.078C223.12 45.5474 224.129 44.4681 225.135 43.3887L222.222 43.0641V43.058ZM222.222 43.058C221.755 42.987 221.286 42.914 220.783 42.8429C220.424 43.2487 220.029 43.6342 219.667 43.9933C219.379 44.2814 219.059 44.5695 218.769 44.8921C218.41 45.2512 218.048 45.5758 217.689 45.9065C218.014 45.9775 218.336 46.0141 218.661 46.0871C219.74 46.2677 220.856 46.4462 221.934 46.5903H222.078C223.12 45.5474 224.129 44.4681 225.135 43.3887L222.222 43.0641V43.058ZM222.222 43.058C221.755 42.987 221.286 42.914 220.783 42.8429C220.424 43.2487 220.029 43.6342 219.667 43.9933C219.379 44.2814 219.059 44.5695 218.769 44.8921C218.41 45.2512 218.048 45.5758 217.689 45.9065C218.014 45.9775 218.336 46.0141 218.661 46.0871C219.74 46.2677 220.856 46.4462 221.934 46.5903H222.078C223.12 45.5474 224.129 44.4681 225.135 43.3887L222.222 43.0641V43.058ZM222.222 43.058C221.755 42.987 221.286 42.914 220.783 42.8429C220.424 43.2487 220.029 43.6342 219.667 43.9933C219.379 44.2814 219.059 44.5695 218.769 44.8921C218.41 45.2512 218.048 45.5758 217.689 45.9065C218.014 45.9775 218.336 46.0141 218.661 46.0871C219.74 46.2677 220.856 46.4462 221.934 46.5903H222.078C223.12 45.5474 224.129 44.4681 225.135 43.3887L222.222 43.0641V43.058ZM222.222 43.058C221.755 42.987 221.286 42.914 220.783 42.8429C220.424 43.2487 220.029 43.6342 219.667 43.9933C219.379 44.2814 219.059 44.5695 218.769 44.8921C218.41 45.2512 218.048 45.5758 217.689 45.9065C218.014 45.9775 218.336 46.0141 218.661 46.0871C219.74 46.2677 220.856 46.4462 221.934 46.5903H222.078C223.12 45.5474 224.129 44.4681 225.135 43.3887L222.222 43.0641V43.058ZM228.984 43.6667C228.049 44.817 227.113 45.9329 226.107 47.0123C226.971 47.0833 227.87 47.1563 228.769 47.1928C228.913 46.006 228.984 44.8556 229.093 43.6687L228.984 43.6667ZM215.423 41.8407C214.307 41.5891 213.191 41.3375 212.114 41.0494L211.682 40.9419C210.639 40.6538 209.631 40.3657 208.588 40.0431C207.508 39.7185 206.466 39.3594 205.386 38.9638C204.199 38.5316 203.012 38.065 201.862 37.5963L201.253 37.3447C200.389 36.9856 199.49 36.59 198.628 36.1944C197.411 35.6182 196.218 35.044 195.031 34.4313C193.915 33.8551 192.799 33.2444 191.722 32.6053C190.462 31.8506 189.204 31.0938 187.981 30.2681C187.745 30.1249 187.516 29.9691 187.297 29.8014C186.362 29.1542 185.426 28.507 184.528 27.8598C183.16 26.8454 181.829 25.8086 180.498 24.6948C179.204 23.6127 177.945 22.4975 176.72 21.3492C176.469 21.0976 176.217 20.8826 175.966 20.629C175.678 20.3409 175.39 20.0893 175.138 19.8012C174.562 19.225 173.988 18.6508 173.448 18.0381L172.657 19.2554C172.945 20.5498 173.233 21.8463 173.484 23.1407C173.699 23.3557 173.951 23.5728 174.168 23.7879C175.284 24.8672 176.471 25.9101 177.658 26.9164C178.808 27.8882 179.961 28.8235 181.184 29.7568C182.407 30.6901 183.665 31.5828 184.962 32.4897C186.041 33.2444 187.155 33.9647 188.271 34.6484C189.458 35.3686 190.645 36.0868 191.868 36.7341C192.911 37.3103 193.99 37.8844 195.069 38.4241C196.22 39.0003 197.407 39.54 198.596 40.0796C199.638 40.5463 200.681 40.9784 201.761 41.4106C202.911 41.8772 204.063 42.2749 205.25 42.705C206.265 43.0641 207.301 43.3887 208.308 43.7194L208.379 43.7559C209.529 44.115 210.682 44.4397 211.868 44.7278L212.516 44.9083C213.487 44.1171 214.423 43.3258 215.322 42.4615L215.788 42.0294L215.423 41.8407ZM215.423 41.8407C214.307 41.5891 213.191 41.3375 212.114 41.0494L211.682 40.9419C210.639 40.6538 209.631 40.3657 208.588 40.0431C207.508 39.7185 206.466 39.3594 205.386 38.9638C204.199 38.5316 203.012 38.065 201.862 37.5963L201.253 37.3447C200.389 36.9856 199.49 36.59 198.628 36.1944C197.411 35.6182 196.218 35.044 195.031 34.4313C193.915 33.8551 192.799 33.2444 191.722 32.6053C190.462 31.8506 189.204 31.0938 187.981 30.2681C187.745 30.1249 187.516 29.9691 187.297 29.8014C186.362 29.1542 185.426 28.507 184.528 27.8598C183.16 26.8454 181.829 25.8086 180.498 24.6948C179.204 23.6127 177.945 22.4975 176.72 21.3492C176.469 21.0976 176.217 20.8826 175.966 20.629C175.678 20.3409 175.39 20.0893 175.138 19.8012C174.562 19.225 173.988 18.6508 173.448 18.0381L172.657 19.2554C172.251 19.9026 171.902 20.5498 171.541 21.197L173.482 23.1387C173.697 23.3537 173.949 23.5708 174.166 23.7859C175.282 24.8652 176.469 25.9081 177.656 26.9144C178.806 27.8862 179.959 28.8215 181.182 29.7548C182.405 30.688 183.663 31.5807 184.96 32.4876C186.039 33.2424 187.153 33.9626 188.269 34.6464C189.456 35.3666 190.643 36.0848 191.866 36.732C192.909 37.3082 193.988 37.8824 195.067 38.4221C196.218 38.9983 197.405 39.5379 198.594 40.0776C199.636 40.5443 200.679 40.9764 201.759 41.4085C202.909 41.8752 204.061 42.2728 205.248 42.703C206.263 43.0621 207.299 43.3867 208.306 43.7174L208.377 43.7539C209.527 44.113 210.68 44.4376 211.866 44.7257L212.514 44.9063C213.485 44.115 214.421 43.3238 215.32 42.4595L215.786 42.0273L215.423 41.8407ZM215.423 41.8407C214.307 41.5891 213.191 41.3375 212.114 41.0494L211.682 40.9419C210.639 40.6538 209.631 40.3657 208.588 40.0431C207.508 39.7185 206.466 39.3594 205.386 38.9638C204.199 38.5316 203.012 38.065 201.862 37.5963L201.253 37.3447C200.389 36.9856 199.49 36.59 198.628 36.1944C197.411 35.6182 196.218 35.044 195.031 34.4313C193.915 33.8551 192.799 33.2444 191.722 32.6053C190.462 31.8506 189.204 31.0938 187.981 30.2681C187.745 30.1249 187.516 29.9691 187.297 29.8014C186.362 29.1542 185.426 28.507 184.528 27.8598C183.16 26.8454 181.829 25.8086 180.498 24.6948C179.204 23.6127 177.945 22.4975 176.72 21.3492C176.469 21.0976 176.217 20.8826 175.966 20.629C175.678 20.3409 175.39 20.0893 175.138 19.8012C174.562 19.225 173.988 18.6508 173.448 18.0381L172.657 19.2554C172.945 20.5498 173.233 21.8463 173.484 23.1407C173.699 23.3557 173.951 23.5728 174.168 23.7879C175.284 24.8672 176.471 25.9101 177.658 26.9164C178.808 27.8882 179.961 28.8235 181.184 29.7568C182.407 30.6901 183.665 31.5828 184.962 32.4897C186.041 33.2444 187.155 33.9647 188.271 34.6484C189.458 35.3686 190.645 36.0868 191.868 36.7341C192.911 37.3103 193.99 37.8844 195.069 38.4241C196.22 39.0003 197.407 39.54 198.596 40.0796C199.638 40.5463 200.681 40.9784 201.761 41.4106C202.911 41.8772 204.063 42.2749 205.25 42.705C206.265 43.0641 207.301 43.3887 208.308 43.7194L208.379 43.7559C209.529 44.115 210.682 44.4397 211.868 44.7278L212.516 44.9083C213.487 44.1171 214.423 43.3258 215.322 42.4615L215.788 42.0294L215.423 41.8407ZM172.726 19.2027L173.517 17.9854C173.229 18.3911 172.977 18.8131 172.726 19.2027Z" fill="#232323"/>
<path d="M210.137 52.1582C209.273 52.7669 208.41 53.4181 207.546 53.9842C207.364 54.0831 207.196 54.2037 207.043 54.3433C206.972 54.7754 206.862 55.2076 206.755 55.6377C206.503 56.7881 206.215 57.9405 205.927 59.0868C205.927 59.1578 205.89 59.1943 205.89 59.2673L206.106 59.1233C207.473 58.2955 208.804 57.4319 210.098 56.5324H210.171V56.4614C210.46 55.094 210.748 53.7285 210.963 52.3246C210.999 52 211.07 51.7159 211.107 51.3893C210.802 51.6678 210.478 51.9247 210.137 52.1582ZM204.418 64.1285C203.878 65.784 203.267 67.4376 202.592 69.0566C202.448 69.3812 202.34 69.7038 202.186 70.0284C201.395 71.899 200.53 73.7331 199.597 75.5672C199.021 76.6466 198.447 77.7259 197.834 78.8134C199.055 79.1018 200.292 79.3179 201.539 79.4606C202.147 78.3447 202.725 77.2288 203.302 76.115C204.844 73.0242 206.189 69.8393 207.331 66.5793C207.907 64.8893 208.447 63.1972 208.954 61.4707C207.443 62.406 205.933 63.2966 204.422 64.1325L204.418 64.1285ZM204.992 3.80844C204.489 2.65807 203.949 1.50568 203.409 0.359375C202.149 0.466905 200.928 0.610954 199.705 0.826013C200.281 1.90537 200.784 3.02124 201.328 4.13508C201.652 4.81881 201.936 5.50254 202.226 6.18626C206.508 16.2782 208.697 27.1338 208.662 38.0962C208.662 38.7434 208.662 39.3561 208.625 40.0033C208.589 41.1902 208.554 42.3771 208.481 43.564V43.635C208.374 45.0734 208.266 46.5119 208.086 47.9524C208.086 48.0599 208.049 48.1674 208.049 48.3115L208.408 48.0599C209.595 47.1956 210.782 46.2968 211.898 45.3615C211.934 45.1099 211.934 44.8584 211.971 44.6068C212.042 43.4199 212.115 42.1965 212.152 41.0096V40.5065C212.188 39.7152 212.188 38.8834 212.188 38.0962C212.167 26.2943 209.717 14.623 204.992 3.80844Z" fill="#232323"/>
<path d="M201.54 57.6962C200.785 58.1284 199.994 58.524 199.237 58.9136C198.842 60.4595 198.375 62.0076 197.87 63.517C199.345 62.8333 200.783 62.0786 202.222 61.3218C202.51 60.279 202.798 59.2361 203.05 58.1568C203.194 57.6171 203.301 57.1139 203.409 56.5743C202.798 56.976 202.151 57.3371 201.54 57.6962ZM204.058 46.7607C203.194 46.4726 202.368 46.1845 201.54 45.8619C201.469 46.7607 201.36 47.6879 201.252 48.5948C201.216 48.8829 201.181 49.171 201.144 49.4935C200.964 50.7109 200.785 51.9404 200.568 53.1272C201.936 52.3725 203.23 51.5447 204.561 50.717V50.6459C204.741 49.4584 204.885 48.2715 204.993 47.0853L205.101 46.1135C204.695 46.3285 204.381 46.5456 204.058 46.7607ZM197.16 67.6579C196.872 67.7655 196.584 67.9095 196.261 68.0171C196.009 68.7008 195.721 69.3845 195.433 70.0317C195.074 70.896 194.713 71.7217 194.317 72.5495C194.102 72.9817 193.912 73.4138 193.709 73.8805C193.206 74.9598 192.666 76.0026 192.086 77.0455C193.202 77.4776 194.317 77.8732 195.468 78.1958C196.044 77.153 196.584 76.0737 197.091 74.9943C197.775 73.5924 198.385 72.1539 198.998 70.7134C199.645 69.1674 200.215 67.6194 200.761 66.047C199.562 66.5806 198.369 67.1203 197.152 67.66L197.16 67.6579ZM198.635 4.67197C198.168 3.55609 197.663 2.47674 197.16 1.39941C196.009 1.68751 194.857 2.00807 193.711 2.41384C194.214 3.4932 194.725 4.57255 195.186 5.66002C195.257 5.87508 195.366 6.06579 195.437 6.26868C199.649 16.1915 201.839 26.8552 201.877 37.6349V38.1745C201.877 39.2539 201.84 40.3332 201.806 41.4207C202.956 41.8874 204.109 42.285 205.296 42.7151C205.367 41.4978 205.403 40.2683 205.403 39.0104V38.1644C205.44 26.6568 203.134 15.2621 198.627 4.67399L198.635 4.67197Z" fill="#232323"/>
<path d="M198.664 36.1498C198.453 26.0042 196.418 15.9794 192.656 6.55477C192.224 5.4389 191.757 4.35954 191.289 3.30859C190.209 3.77523 189.13 4.28042 188.087 4.82009C188.302 5.28673 188.493 5.7554 188.696 6.22204C188.947 6.8307 189.199 7.48196 189.451 8.09265C192.773 16.4819 194.658 25.371 195.026 34.3867C195.097 35.6466 195.097 36.868 195.097 38.1279V38.3795C196.247 38.9557 197.434 39.4954 198.623 40.035C198.623 39.3878 198.66 38.7751 198.66 38.1279L198.664 36.1498ZM195.823 51.6523C195.247 51.4007 194.707 51.1491 194.133 50.8975C194.026 51.4737 193.953 52.0844 193.845 52.6606C193.738 53.2693 193.63 53.8779 193.486 54.4866L192.946 56.9679C193.961 56.5013 194.961 56.0691 195.933 55.566C196.292 55.3854 196.617 55.2068 196.976 55.0263C197.156 54.162 197.335 53.2632 197.479 52.3644C197.586 51.7882 197.659 51.214 197.767 50.6013C197.116 50.9706 196.468 51.3297 195.821 51.6543L195.823 51.6523ZM198.161 44.531C197.118 44.0643 196.038 43.5957 194.995 43.129C194.924 44.389 194.815 45.6469 194.671 46.8703C195.787 47.3734 196.937 47.8847 198.053 48.3087C198.197 47.0914 198.304 45.8619 198.412 44.6405L198.161 44.531ZM193.628 61.5734C192.908 61.8615 192.19 62.1496 191.506 62.4377C191.074 63.8762 190.57 65.3146 190.031 66.7551C191.506 66.252 192.944 65.7123 194.348 65.0996C194.815 63.6246 195.284 62.1496 195.679 60.6746C194.985 60.9708 194.31 61.2934 193.626 61.5815L193.628 61.5734Z" fill="#232323"/>
<path d="M187.87 47.5178C187.726 48.7777 187.545 50.0356 187.367 51.2955C187.115 52.807 186.827 54.282 186.503 55.759C186.215 57.1265 185.855 58.4919 185.488 59.8594C186.856 59.3927 188.187 58.9241 189.517 58.3844C189.842 56.9824 190.165 55.615 190.416 54.1765C190.487 53.8174 190.56 53.4218 190.631 53.0262C190.846 51.8088 191.037 50.5794 191.208 49.3215C190.065 48.7773 188.951 48.1753 187.87 47.5178ZM188.373 39.6053C188.337 40.9362 188.302 42.2671 188.193 43.598C189.309 44.2453 190.459 44.8154 191.609 45.3956C191.717 44.1357 191.79 42.8413 191.861 41.5408C190.676 40.9362 189.524 40.2869 188.373 39.6053ZM191.755 32.555C191.253 24.7006 189.667 16.9534 187.042 9.53348C186.637 8.38311 186.215 7.26724 185.782 6.15137C184.74 6.79857 183.768 7.4823 182.796 8.20254C183.263 9.35291 183.66 10.5053 184.056 11.6922C186.103 17.7028 187.443 23.9315 188.049 30.2522C188.193 31.6907 188.3 33.1656 188.337 34.6406C189.524 35.3609 190.71 36.0791 191.934 36.7263C191.899 35.3243 191.826 33.9204 191.755 32.555Z" fill="#232323"/>
<path d="M183.588 44.8218C182.868 44.3552 182.186 43.85 181.502 43.3469C181.431 44.7143 181.287 46.0797 181.143 47.4046C180.744 50.9921 180.107 54.5491 179.236 58.052C178.911 59.383 178.552 60.6774 178.157 61.9738C179.488 61.6492 180.819 61.2901 182.149 60.931C182.509 59.6001 182.833 58.2691 183.164 56.9382C183.704 54.5279 184.136 52.0811 184.495 49.5633C184.675 48.2689 184.819 46.9724 184.927 45.6415C184.463 45.3979 184.016 45.1241 183.588 44.8218ZM185.17 37.6275L184.199 36.9803C183.3 36.3716 182.436 35.763 181.573 35.1543C181.61 36.1688 181.644 37.169 181.644 38.1408V39.5083C182.795 40.2995 183.947 41.0543 185.134 41.7745C185.17 40.5876 185.205 39.3642 185.205 38.1408C185.176 37.9721 185.165 37.8006 185.172 37.6295L185.17 37.6275ZM184.562 27.8078C183.986 23.0465 183.011 18.342 181.648 13.7438C181.289 12.4838 180.894 11.2625 180.461 10.0391C179.49 10.902 178.555 11.8015 177.656 12.7375C178.087 14.0684 178.483 15.3993 178.842 16.7302C179.562 19.3342 180.139 21.9757 180.569 24.6428C180.857 26.3328 181.072 28.0249 181.253 29.715C182.47 30.6503 183.734 31.5409 185.03 32.4478C184.884 30.8998 184.74 29.3538 184.552 27.8058L184.562 27.8078Z" fill="#232323"/>
<path d="M175.208 19.7488C174.632 19.1726 174.058 18.5984 173.518 17.9857L172.727 19.203C173.015 20.4974 173.303 21.7939 173.555 23.0883C173.662 23.5914 173.735 24.1027 173.843 24.6343L174.275 23.77C174.818 22.6837 175.419 21.6272 176.075 20.605C175.748 20.2885 175.462 20.0267 175.208 19.7488ZM175.208 19.7488C174.632 19.1726 174.058 18.5984 173.518 17.9857L172.727 19.203C173.015 20.4974 173.303 21.7939 173.555 23.0883C173.662 23.5914 173.735 24.1027 173.843 24.6343L174.275 23.77C174.818 22.6837 175.419 21.6272 176.075 20.605C175.748 20.2885 175.462 20.0267 175.208 19.7488ZM175.208 19.7488C174.632 19.1726 174.058 18.5984 173.518 17.9857L172.727 19.203C173.015 20.4974 173.303 21.7939 173.555 23.0883C173.662 23.5914 173.735 24.1027 173.843 24.6343L174.275 23.77C174.818 22.6837 175.419 21.6272 176.075 20.605C175.748 20.2885 175.462 20.0267 175.208 19.7488ZM176.791 21.2948C176.683 20.8281 176.61 20.3229 176.503 19.8563C176.178 18.3448 175.819 16.8698 175.387 15.3604C174.703 16.1881 174.092 17.0869 173.48 17.9857L172.689 19.203C172.977 20.4974 173.265 21.7939 173.516 23.0883C173.624 23.5914 173.697 24.1027 173.804 24.6343L174.237 23.77C175.352 24.8493 176.539 25.8922 177.726 26.8985C177.475 24.9914 177.15 23.1207 176.791 21.2866V21.2948ZM175.208 19.7488C174.632 19.1726 174.058 18.5984 173.518 17.9857L172.727 19.203C173.015 20.4974 173.303 21.7939 173.555 23.0883C173.662 23.5914 173.735 24.1027 173.843 24.6343L174.275 23.77C174.818 22.6837 175.419 21.6272 176.075 20.605C175.748 20.2885 175.462 20.0267 175.208 19.7488ZM175.208 19.7488C174.632 19.1726 174.058 18.5984 173.518 17.9857L172.727 19.203C173.015 20.4974 173.303 21.7939 173.555 23.0883C173.662 23.5914 173.735 24.1027 173.843 24.6343L174.275 23.77C174.818 22.6837 175.419 21.6272 176.075 20.605C175.748 20.2885 175.462 20.0267 175.208 19.7488ZM173.553 23.0944C173.66 23.5975 173.733 24.1088 173.841 24.6404L174.273 23.7761C173.987 23.5265 173.77 23.3094 173.555 23.0944H173.553ZM173.553 23.0944C173.66 23.5975 173.733 24.1088 173.841 24.6404L174.273 23.7761C173.987 23.5265 173.77 23.3094 173.555 23.0944H173.553ZM175.208 19.7488C174.632 19.1726 174.058 18.5984 173.518 17.9857C173.267 18.3915 172.979 18.777 172.727 19.203C173.015 20.4974 173.303 21.7939 173.555 23.0883C173.662 23.5914 173.735 24.1027 173.843 24.6343L174.275 23.77C174.818 22.6837 175.419 21.6272 176.075 20.605C175.748 20.2885 175.462 20.0267 175.208 19.7488ZM178.266 32.5549C176.971 31.4756 175.675 30.3597 174.411 29.2459C174.592 30.9359 174.736 32.628 174.817 34.318C176.004 35.3325 177.191 36.2962 178.451 37.2315C178.41 35.6124 178.369 34.0644 178.266 32.5549ZM174.92 38.0937V38.1303C174.92 39.6418 174.884 41.1512 174.813 42.6262C174.61 46.554 174.117 50.4614 173.338 54.3165C172.979 56.1141 172.583 57.8772 172.078 59.6402V59.7112C172.694 60.8004 173.367 61.8568 174.093 62.8763C174.273 63.1278 174.452 63.3794 174.632 63.5965C174.74 63.3084 174.813 63.0203 174.92 62.6977C175.28 61.5102 175.604 60.3233 175.892 59.1371C175.929 59.0295 175.929 58.9565 175.963 58.849C177.085 54.388 177.831 49.841 178.195 45.2556C178.302 43.8537 178.41 42.4152 178.446 40.9747C177.223 40.0719 176.036 39.098 174.92 38.0937ZM175.208 19.7488C174.632 19.1726 174.058 18.5984 173.518 17.9857C173.267 18.3915 172.979 18.777 172.727 19.203C173.015 20.4974 173.303 21.7939 173.555 23.0883C173.662 23.5914 173.735 24.1027 173.843 24.6343L174.275 23.77C174.818 22.6837 175.419 21.6272 176.075 20.605C175.75 20.2803 175.466 20.0288 175.21 19.7407L175.208 19.7488ZM173.553 23.0944C173.66 23.5975 173.733 24.1088 173.841 24.6404L174.273 23.7761C173.987 23.5265 173.77 23.3094 173.555 23.0944H173.553Z" fill="#232323"/>
<path d="M217.686 45.8988C216.75 46.7631 215.815 47.6253 214.845 48.4531C214.809 48.8122 214.738 49.2078 214.701 49.569C214.521 50.7193 214.342 51.9062 214.125 53.0586L214.018 53.7058C214.233 53.5253 214.486 53.3467 214.701 53.1661C215.888 52.2308 217.039 51.259 218.15 50.2892V50.1817C218.331 48.8508 218.509 47.4833 218.617 46.124L218.725 44.9371C218.408 45.215 218.049 45.5742 217.686 45.8988ZM214.665 57.5181C214.056 57.9847 213.447 58.4168 212.839 58.849C212.695 59.4576 212.514 60.0663 212.336 60.6466C212.011 61.8334 211.615 63.0203 211.22 64.1727C210.573 66.1509 209.818 68.0945 208.988 70.0361C208.089 72.1218 207.117 74.2095 206.038 76.2221C205.427 77.4097 204.779 78.5594 204.096 79.6712C204.888 79.7077 205.72 79.7422 206.543 79.7422C207.083 79.7422 207.623 79.7422 208.166 79.7057C208.849 78.4884 209.497 77.2656 210.108 76.0375C212.45 71.2934 214.351 66.3446 215.789 61.2532C215.83 61.1494 215.853 61.0399 215.86 60.9286C216.148 59.8857 216.399 58.8429 216.651 57.8001C216.832 57.0088 217.01 56.2176 217.191 55.3898C216.399 56.1544 215.556 56.8648 214.669 57.516L214.665 57.5181ZM218.903 33.8473C218.402 23.6216 216.066 13.5693 212.005 4.1712C211.464 2.91195 210.888 1.65271 210.278 0.393459C209.061 0.28593 207.832 0.212891 206.61 0.212891H206.204C206.813 1.39977 207.391 2.58666 207.968 3.77354C208.327 4.5648 208.688 5.35605 209.047 6.18383C213.221 16.0558 215.409 26.6535 215.486 37.3715V38.0917C215.486 39.3516 215.45 40.573 215.415 41.7964C215.421 41.9771 215.409 42.1579 215.379 42.3361L215.846 41.9039C216.925 40.9321 217.968 39.8893 219.011 38.8465V38.0917C219.021 36.6898 218.984 35.2858 218.903 33.8473ZM217.686 45.8967C216.75 46.761 215.815 47.6253 214.845 48.4531C214.809 48.8122 214.738 49.2078 214.701 49.569C214.521 50.7193 214.342 51.9062 214.125 53.0586L214.018 53.7058C214.233 53.5253 214.486 53.3467 214.701 53.1661C215.888 52.2308 217.039 51.259 218.15 50.2892V50.1797C218.331 48.8487 218.509 47.4813 218.617 46.1219L218.725 44.9371C218.4 45.2252 218.041 45.5823 217.682 45.9069L217.686 45.8967Z" fill="#232323"/>
<path d="M225.1 26.1863C224.136 19.3413 222.349 12.6379 219.776 6.22227C219.167 4.74729 218.558 3.27231 217.869 1.83385C216.403 1.39719 214.912 1.04895 213.405 0.791016C214.089 2.12195 214.736 3.45288 215.312 4.78381C215.527 5.25045 215.718 5.71912 215.921 6.15127C219.16 13.8043 221.213 21.9068 222.007 30.1791C222.151 31.8691 222.259 33.5612 222.332 35.2877C223.482 33.9933 224.598 32.6624 225.641 31.2949C225.495 29.6008 225.317 27.8763 225.1 26.1863ZM219.883 58.2727C219.595 59.4231 219.275 60.5754 218.948 61.7218C218.104 64.5465 217.107 67.3234 215.961 70.0401C215.17 71.9472 214.271 73.8178 213.336 75.6519C212.653 76.9828 211.934 78.2779 211.177 79.5372C212.691 79.364 214.192 79.0997 215.673 78.7459C216.428 77.344 217.148 75.94 217.832 74.465C219.71 70.4568 221.27 66.3072 222.498 62.0545C222.823 60.9041 223.146 59.7517 223.434 58.5648C222.259 58.5243 221.072 58.4107 219.885 58.2727H219.883ZM223.192 50.072L222.616 50.6482C222.15 51.1149 221.681 51.547 221.214 52.0157C221.107 52.6994 220.963 53.3831 220.808 54.0303C220.557 55.2903 220.269 56.5482 219.981 57.8081C221.312 56.6922 222.643 55.5418 223.902 54.3184L224.335 54.355L224.442 53.8153C224.623 52.8435 224.801 51.8371 224.945 50.8653C225.089 49.8509 225.233 48.8872 225.351 47.8788C224.667 48.5991 223.949 49.3518 223.192 50.072ZM225.891 37.0143C224.74 38.4528 223.554 39.8547 222.294 41.2221C222.257 41.8308 222.257 42.4395 222.223 43.0481C222.152 44.235 222.042 45.3854 221.935 46.5743V46.7548L222.079 46.6108C223.121 45.568 224.13 44.4886 225.136 43.4093C225.351 43.1577 225.568 42.9061 225.783 42.689C225.854 41.1775 225.891 39.7025 225.891 38.1931V37.0062V37.0143Z" fill="#232323"/>
<path d="M232.689 33.7417C232.581 31.7636 232.437 29.8199 232.186 27.9148C231.395 29.2458 230.563 30.5767 229.668 31.8711C229.487 32.1592 229.272 32.4473 229.059 32.7354C229.167 34.533 229.24 36.3326 229.24 38.1301V38.4548C230.459 36.9433 231.575 35.3526 232.689 33.7417ZM229.092 43.5249V43.671C229.021 44.8578 228.911 46.0082 228.767 47.1971C228.66 48.0249 228.552 48.8872 228.442 49.7149C229.163 48.9237 229.881 48.0918 230.601 47.2681C231.177 47.2681 231.752 47.3046 232.328 47.3046C232.399 46.5134 232.472 45.6816 232.543 44.8944C232.579 44.5352 232.614 44.1396 232.614 43.7785C232.721 42.0519 232.794 40.3294 232.794 38.5988C231.61 40.2523 230.382 41.9058 229.092 43.5249ZM230.352 17.734C229.812 15.4678 229.165 13.2705 228.445 11.0793C227.797 9.17222 227.114 7.30161 226.359 5.46752C224.77 4.56843 223.124 3.77544 221.431 3.09375C221.934 4.13658 222.401 5.17942 222.833 6.22225C223.084 6.79845 223.299 7.37262 223.551 7.94881C225.387 12.5706 226.795 17.351 227.759 22.23C228.083 23.92 228.367 25.6466 228.587 27.3731C229.601 25.9347 230.565 24.4232 231.463 22.9096C231.139 21.1831 230.743 19.42 230.348 17.7299L230.352 17.734ZM229.416 58.8123C228.481 58.8123 227.546 58.8123 226.647 58.7758C226.359 59.9627 226 61.1131 225.633 62.2655C224.805 64.8908 223.869 67.4817 222.792 70.036C222.36 71.0504 221.893 72.0872 221.425 73.0935C220.67 74.7166 219.879 76.2585 219.014 77.8065C220.746 77.2287 222.44 76.5437 224.087 75.7554C224.951 73.9578 225.777 72.1582 226.533 70.2876C227.59 67.6865 228.515 65.0334 229.303 62.3385C229.662 61.1881 229.95 60.0013 230.275 58.8123H229.416ZM230.064 50.9708C229.455 50.9708 228.877 50.9708 228.266 50.9343C228.085 52.1212 227.86 53.2715 227.619 54.4604C228.41 54.497 229.242 54.497 230.029 54.497H231.216C231.431 53.3101 231.648 52.1597 231.825 50.9363C231.251 50.9749 230.64 50.9749 230.064 50.9749V50.9708Z" fill="#232323"/>
<path d="M239.595 34.3867C239.487 32.1549 239.307 29.9983 239.055 27.803C238.12 29.7447 237.114 31.6579 235.998 33.4839C236.069 35.0298 236.142 36.5779 236.142 38.1239C236.142 38.7325 236.142 39.3412 236.105 39.9498C236.069 41.2097 236.034 42.4676 235.925 43.691C235.853 44.8786 235.745 46.0655 235.6 47.2517C236.787 47.2152 237.974 47.1442 239.161 47.0711C239.268 45.8842 239.376 44.6974 239.449 43.5105C239.556 41.7129 239.629 39.9133 239.629 38.1157C239.666 36.87 239.632 35.6101 239.595 34.3867ZM233.508 58.7026C233.184 59.8895 232.861 61.1129 232.494 62.2998C232.027 63.8457 231.48 65.3572 230.948 66.8322C230.542 67.9116 230.12 68.9544 229.69 70.0338C229.223 71.1841 228.676 72.3 228.144 73.4504C230.224 72.1119 232.175 70.5823 233.971 68.8814C234.835 66.6496 235.594 64.3854 236.274 62.0827C236.489 61.3989 236.679 60.6807 236.85 59.997C236.994 59.4938 237.102 58.9542 237.256 58.451C235.996 58.5585 234.774 58.6661 233.515 58.7026H233.508ZM235.164 50.8245C234.984 52.0121 234.768 53.199 234.517 54.3852C235.734 54.3142 236.964 54.2411 238.15 54.1336C238.365 52.9467 238.583 51.7233 238.759 50.5364C237.58 50.6399 236.393 50.7535 235.17 50.8265L235.164 50.8245ZM238.185 22.2176C237.897 20.7426 237.609 19.3041 237.25 17.8657C236.926 16.4982 236.567 15.1673 236.17 13.8729C236.099 13.6578 236.026 13.4062 235.955 13.1892L233.618 10.8519C232.604 9.9166 231.567 9.05434 230.489 8.22656C231.173 9.98964 231.82 11.7872 232.397 13.6213L232.829 15.0232C233.188 16.2406 233.512 17.47 233.843 18.7279C234.131 18.1883 234.419 17.6486 234.671 17.1049C235.318 17.8961 235.965 18.7279 236.542 19.5862C236.002 20.8035 235.426 22.033 234.815 23.2198C235.174 25.1615 235.462 27.0747 235.677 29.0467C236.692 27.3202 237.619 25.5571 238.518 23.7595C238.372 23.2361 238.301 22.7329 238.193 22.2358L238.185 22.2176Z" fill="#232323"/>
</g>
<defs>
<linearGradient id="paint0_linear_398_59" x1="168.333" y1="39.8736" x2="244.699" y2="39.8736" gradientUnits="userSpaceOnUse">
<stop stop-color="#BFD627"/>
<stop offset="0.47" stop-color="#57D329"/>
<stop offset="0.987" stop-color="#2AD166"/>
</linearGradient>
<linearGradient id="paint1_linear_398_59" x1="215.875" y1="53.0397" x2="242.269" y2="53.0397" gradientUnits="userSpaceOnUse">
<stop stop-color="#BFD627"/>
<stop offset="0.47" stop-color="#57D329"/>
<stop offset="0.987" stop-color="#2AD166"/>
</linearGradient>
<linearGradient id="paint2_linear_398_59" x1="170.712" y1="37.9839" x2="212.007" y2="37.9839" gradientUnits="userSpaceOnUse">
<stop stop-color="#BFD627"/>
<stop offset="0.47" stop-color="#57D329"/>
<stop offset="0.987" stop-color="#2AD166"/>
</linearGradient>
<linearGradient id="paint3_linear_398_59" x1="176.684" y1="44.1759" x2="240.783" y2="44.1759" gradientUnits="userSpaceOnUse">
<stop stop-color="#BFD627"/>
<stop offset="0.47" stop-color="#57D329"/>
<stop offset="0.987" stop-color="#2AD166"/>
</linearGradient>
<linearGradient id="paint4_linear_398_59" x1="168.333" y1="39.8736" x2="244.699" y2="39.8736" gradientUnits="userSpaceOnUse">
<stop stop-color="#BFD627"/>
<stop offset="0.47" stop-color="#57D329"/>
<stop offset="0.987" stop-color="#2AD166"/>
</linearGradient>
<linearGradient id="paint5_linear_398_59" x1="215.875" y1="53.0397" x2="242.269" y2="53.0397" gradientUnits="userSpaceOnUse">
<stop stop-color="#BFD627"/>
<stop offset="0.47" stop-color="#57D329"/>
<stop offset="0.987" stop-color="#2AD166"/>
</linearGradient>
<linearGradient id="paint6_linear_398_59" x1="170.712" y1="37.9839" x2="212.007" y2="37.9839" gradientUnits="userSpaceOnUse">
<stop stop-color="#BFD627"/>
<stop offset="0.47" stop-color="#57D329"/>
<stop offset="0.987" stop-color="#2AD166"/>
</linearGradient>
<linearGradient id="paint7_linear_398_59" x1="176.684" y1="44.1759" x2="240.783" y2="44.1759" gradientUnits="userSpaceOnUse">
<stop stop-color="#BFD627"/>
<stop offset="0.47" stop-color="#57D329"/>
<stop offset="0.987" stop-color="#2AD166"/>
</linearGradient>
<clipPath id="clip0_398_59">
<rect width="246.221" height="80" fill="white" transform="translate(0.389648)"/>
</clipPath>
</defs>
</svg>
