<svg width="122" height="56" viewBox="0 0 122 56" fill="none" xmlns="http://www.w3.org/2000/svg">
<path d="M94.5713 8.71699C84.4339 2.92814 72.9465 -0.0785297 61.273 0.00155915C49.6111 -0.0724819 38.1363 2.93399 28.009 8.71699C11.0033 18.6324 1.31413 35.405 0.628418 55.9627H15.1656C15.9336 36.5913 26.5347 26.4084 35.3256 21.2587C43.249 16.8188 52.1906 14.5149 61.273 14.573C70.3499 14.5071 79.2867 16.8117 87.1999 21.2587C96.0113 26.4016 106.592 36.5638 107.36 55.9558H121.897C121.252 35.405 111.543 18.6324 94.5713 8.71699Z" fill="white"/>
<path d="M79.9997 30.4187C68.802 23.8839 53.7437 23.8839 42.5322 30.4187C33.2408 35.8427 27.7002 44.901 26.8979 55.9616H41.4968C41.7412 53.2845 42.628 50.7059 44.0821 48.4449C45.5361 46.1838 47.5143 44.3071 49.8488 42.9741C53.3406 41.0317 57.2702 40.0123 61.2659 40.0123C65.2617 40.0123 69.1913 41.0317 72.6831 42.9741C75.019 44.3068 76.999 46.1832 78.4554 48.4441C79.9117 50.7049 80.8013 53.2837 81.0488 55.9616H95.6477C94.8248 44.901 89.2842 35.8427 79.9997 30.4187Z" fill="white"/>
<path d="M81.0488 55.9616C80.8013 53.2837 79.9117 50.7049 78.4554 48.4441C76.999 46.1832 75.019 44.3068 72.6831 42.9741C69.1913 41.0317 65.2617 40.0123 61.2659 40.0123C57.2702 40.0123 53.3406 41.0317 49.8488 42.9741C47.5143 44.3071 45.5361 46.1838 44.0821 48.4449C42.628 50.7059 41.7412 53.2845 41.4968 55.9616H26.8979C27.7002 44.901 33.2408 35.8427 42.5322 30.4187C53.7437 23.8839 68.802 23.8839 79.9997 30.4187C89.2842 35.8427 94.8248 44.901 95.6477 55.9616H81.0488Z" fill="white"/>
</svg>
